{
.appVersion = "1277";
DisplayStrings = (

glyphs = (
{
color = 5;
glyphname = .notdef;
lastChange = "2019-12-11 07:54:21 +0000";
layers = (
{
layerId = "47F7128E-F1A6-4572-9BDC-88462FF34A66";
paths = (
{
closed = 1;
nodes = (
"466 -87 LINE",
"466 837 LINE",
"34 837 LINE",
"34 -87 LINE"
);
},
{
closed = 1;
nodes = (
"367 -23 OFFCURVE",
"419 9 OFFCURVE",
"419 75 CURVE SMOOTH",
"419 104 LINE SMOOTH",
"419 129 OFFCURVE",
"402 135 OFFCURVE",
"393 135 CURVE SMOOTH",
"356 135 LINE SMOOTH",
"341 135 OFFCURVE",
"322 132 OFFCURVE",
"322 109 CURVE SMOOTH",
"322 71 LINE SMOOTH",
"322 47 OFFCURVE",
"293 36 OFFCURVE",
"257 36 CURVE SMOOTH",
"225 36 OFFCURVE",
"176 40 OFFCURVE",
"176 82 CURVE SMOOTH",
"176 109 LINE SMOOTH",
"176 132 OFFCURVE",
"156 135 OFFCURVE",
"141 135 CURVE SMOOTH",
"104 135 LINE SMOOTH",
"95 135 OFFCURVE",
"78 129 OFFCURVE",
"78 104 CURVE SMOOTH",
"78 55 LINE SMOOTH",
"78 -10 OFFCURVE",
"171 -23 OFFCURVE",
"257 -23 CURVE SMOOTH"
);
},
{
closed = 1;
nodes = (
"152 163 LINE SMOOTH",
"168 163 OFFCURVE",
"181 177 OFFCURVE",
"181 200 CURVE SMOOTH",
"181 327 LINE",
"154 294 LINE",
"379 294 LINE SMOOTH",
"405 294 OFFCURVE",
"417 294 OFFCURVE",
"417 318 CURVE SMOOTH",
"417 342 OFFCURVE",
"408 354 OFFCURVE",
"379 354 CURVE SMOOTH",
"101 354 LINE SMOOTH",
"85 354 OFFCURVE",
"82 349 OFFCURVE",
"82 326 CURVE SMOOTH",
"82 200 LINE SMOOTH",
"82 178 OFFCURVE",
"87 163 OFFCURVE",
"105 163 CURVE SMOOTH"
);
},
{
closed = 1;
nodes = (
"361 216 LINE SMOOTH",
"377 216 OFFCURVE",
"389 228 OFFCURVE",
"389 244 CURVE SMOOTH",
"389 260 OFFCURVE",
"377 272 OFFCURVE",
"361 272 CURVE SMOOTH",
"168 272 LINE SMOOTH",
"152 272 OFFCURVE",
"139 260 OFFCURVE",
"139 244 CURVE SMOOTH",
"139 228 OFFCURVE",
"152 216 OFFCURVE",
"168 216 CURVE SMOOTH"
);
},
{
closed = 1;
nodes = (
"45 827 LINE",
"455 827 LINE",
"455 -77 LINE",
"45 -77 LINE"
);
},
{
closed = 1;
nodes = (
"354 370 OFFCURVE",
"424 388 OFFCURVE",
"424 474 CURVE SMOOTH",
"424 563 OFFCURVE",
"406 572 OFFCURVE",
"261 572 CURVE SMOOTH",
"127 572 OFFCURVE",
"73 556 OFFCURVE",
"73 474 CURVE SMOOTH",
"73 406 OFFCURVE",
"127 370 OFFCURVE",
"222 370 CURVE SMOOTH"
);
},
{
closed = 1;
nodes = (
"196 422 OFFCURVE",
"161 424 OFFCURVE",
"161 474 CURVE SMOOTH",
"161 517 OFFCURVE",
"189 525 OFFCURVE",
"266 525 CURVE SMOOTH",
"309 525 OFFCURVE",
"340 512 OFFCURVE",
"340 474 CURVE SMOOTH",
"340 436 OFFCURVE",
"316 422 OFFCURVE",
"272 422 CURVE SMOOTH"
);
},
{
closed = 1;
nodes = (
"272 595 LINE SMOOTH",
"288 595 OFFCURVE",
"301 610 OFFCURVE",
"301 629 CURVE SMOOTH",
"301 695 LINE SMOOTH",
"301 714 OFFCURVE",
"288 729 OFFCURVE",
"272 729 CURVE SMOOTH",
"236 729 LINE SMOOTH",
"220 729 OFFCURVE",
"207 714 OFFCURVE",
"207 695 CURVE SMOOTH",
"207 629 LINE SMOOTH",
"207 610 OFFCURVE",
"220 595 OFFCURVE",
"236 595 CURVE SMOOTH"
);
},
{
closed = 1;
nodes = (
"402 688 LINE SMOOTH",
"418 688 OFFCURVE",
"431 703 OFFCURVE",
"431 722 CURVE SMOOTH",
"431 741 OFFCURVE",
"418 755 OFFCURVE",
"402 755 CURVE SMOOTH",
"105 755 LINE SMOOTH",
"89 755 OFFCURVE",
"76 741 OFFCURVE",
"76 722 CURVE SMOOTH",
"76 703 OFFCURVE",
"89 688 OFFCURVE",
"105 688 CURVE SMOOTH"
);
}
);
width = 500;
}
);
},
{
color = 5;
glyphname = A;
lastChange = "2019-12-13 04:27:01 +0000";
layers = (
{
layerId = "47F7128E-F1A6-4572-9BDC-88462FF34A66";
paths = (
{
closed = 1;
nodes = (
"217 756 LINE SMOOTH",
"204 756 OFFCURVE",
"199 745 OFFCURVE",
"194 724 CURVE SMOOTH",
"188 704 OFFCURVE",
"39 49 OFFCURVE",
"32 26 CURVE SMOOTH",
"24 0 OFFCURVE",
"25 -24 OFFCURVE",
"44 -24 CURVE SMOOTH",
"105 -24 LINE SMOOTH",
"124 -24 OFFCURVE",
"135 -6 OFFCURVE",
"140 12 CURVE SMOOTH",
"144 30 OFFCURVE",
"292 720 OFFCURVE",
"297 731 CURVE SMOOTH",
"301 742 OFFCURVE",
"295 756 OFFCURVE",
"282 756 CURVE SMOOTH"
);
},
{
closed = 1;
nodes = (
"214 756 OFFCURVE",
"208 742 OFFCURVE",
"212 731 CURVE SMOOTH",
"216 720 OFFCURVE",
"365 30 OFFCURVE",
"369 12 CURVE SMOOTH",
"373 -6 OFFCURVE",
"385 -24 OFFCURVE",
"404 -24 CURVE SMOOTH",
"465 -24 LINE SMOOTH",
"484 -24 OFFCURVE",
"485 0 OFFCURVE",
"477 26 CURVE SMOOTH",
"470 49 OFFCURVE",
"321 704 OFFCURVE",
"315 724 CURVE SMOOTH",
"309 745 OFFCURVE",
"305 756 OFFCURVE",
"292 756 CURVE SMOOTH",
"227 756 LINE SMOOTH"
);
},
{
closed = 1;
nodes = (
"116 188 OFFCURVE",
"135 176 OFFCURVE",
"159 176 CURVE SMOOTH",
"351 176 LINE SMOOTH",
"375 176 OFFCURVE",
"394 188 OFFCURVE",
"394 204 CURVE SMOOTH",
"394 220 OFFCURVE",
"375 231 OFFCURVE",
"351 231 CURVE SMOOTH",
"159 231 LINE SMOOTH",
"135 231 OFFCURVE",
"116 220 OFFCURVE",
"116 204 CURVE SMOOTH"
);
}
);
userData = {
assembly = "SVTCA[0]\011/* SetFreedomAndProjectionVectorToAxis */
IUP[0]\011/* InterpolateUntPts */
IUP[1]\011/* InterpolateUntPts */";
};
width = 500;
}
);
note = uni0041;
unicode = 0041;
},
{
color = 5;
glyphname = AE;
lastChange = "2019-12-11 06:40:48 +0000";
layers = (
{
components = (
{
name = E;
transform = "{1, 0, 0, 1, 287, 0}";
}
);
layerId = "47F7128E-F1A6-4572-9BDC-88462FF34A66";
paths = (
{
closed = 1;
nodes = (
"356 754 LINE SMOOTH",
"343 754 OFFCURVE",
"336 743 OFFCURVE",
"327 722 CURVE SMOOTH",
"318 702 OFFCURVE",
"53 48 OFFCURVE",
"42 25 CURVE SMOOTH",
"29 -1 OFFCURVE",
"26 -25 OFFCURVE",
"45 -25 CURVE SMOOTH",
"106 -25 LINE SMOOTH",
"125 -25 OFFCURVE",
"139 -7 OFFCURVE",
"148 11 CURVE SMOOTH",
"157 28 OFFCURVE",
"424 718 OFFCURVE",
"431 729 CURVE SMOOTH",
"438 740 OFFCURVE",
"434 754 OFFCURVE",
"421 754 CURVE SMOOTH"
);
},
{
closed = 1;
nodes = (
"146 188 OFFCURVE",
"165 176 OFFCURVE",
"189 176 CURVE SMOOTH",
"381 176 LINE SMOOTH",
"405 176 OFFCURVE",
"424 188 OFFCURVE",
"424 204 CURVE SMOOTH",
"424 220 OFFCURVE",
"405 231 OFFCURVE",
"381 231 CURVE SMOOTH",
"189 231 LINE SMOOTH",
"165 231 OFFCURVE",
"146 220 OFFCURVE",
"146 204 CURVE SMOOTH"
);
}
);
width = 769;
}
);
unicode = 00C6;
},
{
color = 5;
glyphname = B;
lastChange = "2019-12-11 06:40:48 +0000";
layers = (
{
layerId = "47F7128E-F1A6-4572-9BDC-88462FF34A66";
paths = (
{
closed = 1;
nodes = (
"60 8 LINE SMOOTH",
"60 -11 OFFCURVE",
"75 -26 OFFCURVE",
"94 -26 CURVE SMOOTH",
"143 -26 LINE SMOOTH",
"162 -26 OFFCURVE",
"178 -11 OFFCURVE",
"178 8 CURVE SMOOTH",
"178 721 LINE SMOOTH",
"178 740 OFFCURVE",
"162 755 OFFCURVE",
"143 755 CURVE SMOOTH",
"94 755 LINE SMOOTH",
"75 755 OFFCURVE",
"60 740 OFFCURVE",
"60 721 CURVE SMOOTH"
);
},
{
closed = 1;
nodes = (
"240 756 OFFCURVE",
"147 756 OFFCURVE",
"137 756 CURVE SMOOTH",
"127 756 OFFCURVE",
"118 744 OFFCURVE",
"118 728 CURVE SMOOTH",
"118 712 OFFCURVE",
"149 699 OFFCURVE",
"235 699 CURVE SMOOTH",
"321 699 OFFCURVE",
"353 646 OFFCURVE",
"353 571 CURVE SMOOTH",
"353 496 OFFCURVE",
"307 413 OFFCURVE",
"229 413 CURVE SMOOTH",
"151 413 OFFCURVE",
"126 401 OFFCURVE",
"126 382 CURVE SMOOTH",
"126 363 OFFCURVE",
"133 339 OFFCURVE",
"228 339 CURVE SMOOTH",
"323 339 OFFCURVE",
"353 227 OFFCURVE",
"353 180 CURVE SMOOTH",
"353 98 OFFCURVE",
"310 16 OFFCURVE",
"217 16 CURVE SMOOTH",
"97 16 OFFCURVE",
"93 8 OFFCURVE",
"93 0 CURVE SMOOTH",
"93 -8 OFFCURVE",
"96 -27 OFFCURVE",
"215 -27 CURVE SMOOTH",
"284 -27 OFFCURVE",
"468 -20 OFFCURVE",
"468 183 CURVE SMOOTH",
"468 386 OFFCURVE",
"274 391 OFFCURVE",
"229 391 CURVE SMOOTH",
"184 391 OFFCURVE",
"183 368 OFFCURVE",
"228 368 CURVE SMOOTH",
"273 368 OFFCURVE",
"471 347 OFFCURVE",
"471 557 CURVE SMOOTH",
"471 760 OFFCURVE",
"297 756 OFFCURVE",
"282 756 CURVE"
);
}
);
userData = {
assembly = "SVTCA[0]\011/* SetFreedomAndProjectionVectorToAxis */
IUP[0]\011/* InterpolateUntPts */
IUP[1]\011/* InterpolateUntPts */";
};
width = 500;
}
);
note = uni0042;
unicode = 0042;
},
{
color = 5;
glyphname = C;
lastChange = "2019-12-11 06:40:48 +0000";
layers = (
{
layerId = "47F7128E-F1A6-4572-9BDC-88462FF34A66";
paths = (
{
closed = 1;
nodes = (
"319 -37 OFFCURVE",
"450 7 OFFCURVE",
"450 89 CURVE SMOOTH",
"450 125 OFFCURVE",
"439 132 OFFCURVE",
"406 132 CURVE SMOOTH",
"384 132 OFFCURVE",
"336 128 OFFCURVE",
"336 89 CURVE SMOOTH",
"336 62 OFFCURVE",
"304 29 OFFCURVE",
"275 29 CURVE SMOOTH",
"171 29 OFFCURVE",
"145 165 OFFCURVE",
"145 341 CURVE SMOOTH",
"145 464 OFFCURVE",
"196 691 OFFCURVE",
"257 691 CURVE SMOOTH",
"282 691 OFFCURVE",
"339 609 OFFCURVE",
"339 569 CURVE SMOOTH",
"339 522 OFFCURVE",
"363 512 OFFCURVE",
"409 512 CURVE SMOOTH",
"444 512 OFFCURVE",
"464 519 OFFCURVE",
"464 550 CURVE SMOOTH",
"464 610 OFFCURVE",
"347 765 OFFCURVE",
"255 765 CURVE SMOOTH",
"86 765 OFFCURVE",
"35 530 OFFCURVE",
"35 321 CURVE SMOOTH",
"35 22 OFFCURVE",
"125 -37 OFFCURVE",
"268 -37 CURVE SMOOTH"
);
}
);
userData = {
assembly = "SVTCA[0]\011/* SetFreedomAndProjectionVectorToAxis */
PUSHB[ ]\011/* 8 values pushed */
60 70 29 0 60 73 27 0 
CALL[ ]\011/* CallFunction */
CALL[ ]\011/* CallFunction */
IUP[0]\011/* InterpolateUntPts */
IUP[1]\011/* InterpolateUntPts */";
};
width = 500;
}
);
note = uni0043;
unicode = 0043;
},
{
color = 5;
glyphname = D;
lastChange = "2019-12-13 04:32:27 +0000";
layers = (
{
layerId = "47F7128E-F1A6-4572-9BDC-88462FF34A66";
paths = (
{
closed = 1;
nodes = (
"318 10 OFFCURVE",
"134 10 CURVE",
"167 -9 LINE",
"167 739 LINE",
"128 707 LINE",
"320 707 OFFCURVE",
"352 532 OFFCURVE",
"352 366 CURVE SMOOTH",
"352 171 OFFCURVE"
);
},
{
closed = 1;
nodes = (
"62 -25 OFFCURVE",
"114 -25 CURVE SMOOTH",
"414 -25 OFFCURVE",
"461 88 OFFCURVE",
"461 366 CURVE SMOOTH",
"461 611 OFFCURVE",
"369 757 OFFCURVE",
"98 757 CURVE SMOOTH",
"66 757 OFFCURVE",
"52 741 OFFCURVE",
"52 721 CURVE SMOOTH",
"52 560 OFFCURVE",
"52 37 OFFCURVE",
"52 27 CURVE SMOOTH",
"52 -9 OFFCURVE"
);
}
);
userData = {
assembly = "PUSHB[ ]\011/* 5 values pushed */
95 112 6 7 4 
CALL[ ]\011/* CallFunction */
SVTCA[0]\011/* SetFreedomAndProjectionVectorToAxis */
IUP[0]\011/* InterpolateUntPts */
IUP[1]\011/* InterpolateUntPts */";
};
width = 500;
}
);
note = uni0044;
unicode = 0044;
},
{
color = 5;
glyphname = Eth;
lastChange = "2019-12-11 06:40:48 +0000";
layers = (
{
components = (
{
name = D;
transform = "{1, 0, 0, 1, 59, 0}";
}
);
layerId = "47F7128E-F1A6-4572-9BDC-88462FF34A66";
paths = (
{
closed = 1;
nodes = (
"44 385 LINE SMOOTH",
"44 366 OFFCURVE",
"59 351 OFFCURVE",
"78 351 CURVE SMOOTH",
"315 351 LINE SMOOTH",
"334 351 OFFCURVE",
"349 366 OFFCURVE",
"349 385 CURVE SMOOTH",
"349 385 LINE SMOOTH",
"349 404 OFFCURVE",
"334 419 OFFCURVE",
"315 419 CURVE SMOOTH",
"78 419 LINE SMOOTH",
"59 419 OFFCURVE",
"44 404 OFFCURVE",
"44 385 CURVE SMOOTH"
);
}
);
width = 577;
}
);
unicode = 00D0;
},
{
color = 5;
glyphname = E;
lastChange = "2019-12-11 06:40:48 +0000";
layers = (
{
layerId = "47F7128E-F1A6-4572-9BDC-88462FF34A66";
paths = (
{
closed = 1;
nodes = (
"84 754 LINE SMOOTH",
"65 754 OFFCURVE",
"61 749 OFFCURVE",
"61 726 CURVE SMOOTH",
"61 12 LINE SMOOTH",
"61 -11 OFFCURVE",
"68 -27 OFFCURVE",
"89 -27 CURVE SMOOTH",
"402 -27 LINE SMOOTH",
"419 -27 OFFCURVE",
"428 -13 OFFCURVE",
"428 5 CURVE SMOOTH",
"428 23 OFFCURVE",
"415 32 OFFCURVE",
"402 32 CURVE SMOOTH",
"164 32 LINE",
"188 11 LINE",
"188 727 LINE",
"157 694 LINE",
"402 694 LINE SMOOTH",
"433 694 OFFCURVE",
"447 694 OFFCURVE",
"447 718 CURVE SMOOTH",
"447 742 OFFCURVE",
"436 754 OFFCURVE",
"402 754 CURVE SMOOTH"
);
},
{
closed = 1;
nodes = (
"129 368 OFFCURVE",
"144 356 OFFCURVE",
"163 356 CURVE SMOOTH",
"400 356 LINE SMOOTH",
"419 356 OFFCURVE",
"434 368 OFFCURVE",
"434 384 CURVE SMOOTH",
"434 400 OFFCURVE",
"419 412 OFFCURVE",
"400 412 CURVE SMOOTH",
"163 412 LINE SMOOTH",
"144 412 OFFCURVE",
"129 400 OFFCURVE",
"129 384 CURVE SMOOTH"
);
}
);
userData = {
assembly = "SVTCA[0]\011/* SetFreedomAndProjectionVectorToAxis */
IUP[0]\011/* InterpolateUntPts */
IUP[1]\011/* InterpolateUntPts */";
};
width = 500;
}
);
note = uni0045;
unicode = 0045;
},
{
color = 5;
glyphname = F;
lastChange = "2019-12-11 06:40:48 +0000";
layers = (
{
layerId = "47F7128E-F1A6-4572-9BDC-88462FF34A66";
paths = (
{
closed = 1;
nodes = (
"74 754 LINE SMOOTH",
"55 754 OFFCURVE",
"51 749 OFFCURVE",
"51 726 CURVE SMOOTH",
"51 10 LINE SMOOTH",
"51 -12 OFFCURVE",
"58 -27 OFFCURVE",
"79 -27 CURVE SMOOTH",
"134 -27 LINE SMOOTH",
"153 -27 OFFCURVE",
"168 -13 OFFCURVE",
"168 10 CURVE SMOOTH",
"168 727 LINE",
"137 694 LINE",
"402 694 LINE SMOOTH",
"433 694 OFFCURVE",
"447 694 OFFCURVE",
"447 718 CURVE SMOOTH",
"447 742 OFFCURVE",
"436 754 OFFCURVE",
"402 754 CURVE SMOOTH"
);
},
{
closed = 1;
nodes = (
"119 368 OFFCURVE",
"134 356 OFFCURVE",
"153 356 CURVE SMOOTH",
"380 356 LINE SMOOTH",
"399 356 OFFCURVE",
"414 368 OFFCURVE",
"414 384 CURVE SMOOTH",
"414 400 OFFCURVE",
"399 412 OFFCURVE",
"380 412 CURVE SMOOTH",
"153 412 LINE SMOOTH",
"134 412 OFFCURVE",
"119 400 OFFCURVE",
"119 384 CURVE SMOOTH"
);
}
);
userData = {
assembly = "PUSHB[ ]\011/* 6 values pushed */
108 125 16 11 12 8 
CALL[ ]\011/* CallFunction */
SVTCA[0]\011/* SetFreedomAndProjectionVectorToAxis */
IUP[0]\011/* InterpolateUntPts */
IUP[1]\011/* InterpolateUntPts */";
};
width = 468;
}
);
note = uni0046;
unicode = 0046;
},
{
color = 5;
glyphname = G;
lastChange = "2019-12-11 06:40:48 +0000";
layers = (
{
layerId = "47F7128E-F1A6-4572-9BDC-88462FF34A66";
paths = (
{
closed = 1;
nodes = (
"240 295 LINE SMOOTH",
"221 295 OFFCURVE",
"206 283 OFFCURVE",
"206 266 CURVE SMOOTH",
"206 249 OFFCURVE",
"221 236 OFFCURVE",
"240 236 CURVE SMOOTH",
"344 236 LINE",
"344 124 OFFCURVE",
"310 37 OFFCURVE",
"269 37 CURVE SMOOTH",
"180 37 OFFCURVE",
"145 199 OFFCURVE",
"145 347 CURVE SMOOTH",
"145 456 OFFCURVE",
"178 688 OFFCURVE",
"269 688 CURVE SMOOTH",
"292 688 OFFCURVE",
"344 617 OFFCURVE",
"344 560 CURVE SMOOTH",
"344 542 OFFCURVE",
"359 529 OFFCURVE",
"376 529 CURVE SMOOTH",
"423 529 LINE SMOOTH",
"443 529 OFFCURVE",
"457 545 OFFCURVE",
"457 566 CURVE SMOOTH",
"457 652 OFFCURVE",
"349 752 OFFCURVE",
"263 752 CURVE SMOOTH",
"104 752 OFFCURVE",
"41 567 OFFCURVE",
"41 347 CURVE SMOOTH",
"41 174 OFFCURVE",
"104 -25 OFFCURVE",
"217 -25 CURVE SMOOTH",
"366 -25 OFFCURVE",
"455 64 OFFCURVE",
"455 266 CURVE SMOOTH",
"455 286 OFFCURVE",
"444 295 OFFCURVE",
"420 295 CURVE SMOOTH"
);
}
);
userData = {
assembly = "SVTCA[0]\011/* SetFreedomAndProjectionVectorToAxis */
IUP[0]\011/* InterpolateUntPts */
IUP[1]\011/* InterpolateUntPts */";
};
width = 500;
}
);
note = uni0047;
unicode = 0047;
},
{
color = 5;
glyphname = H;
lastChange = "2019-12-11 06:40:48 +0000";
layers = (
{
layerId = "47F7128E-F1A6-4572-9BDC-88462FF34A66";
paths = (
{
closed = 1;
nodes = (
"76 759 LINE SMOOTH",
"62 759 OFFCURVE",
"49 744 OFFCURVE",
"49 721 CURVE SMOOTH",
"49 21 LINE SMOOTH",
"49 0 OFFCURVE",
"50 -30 OFFCURVE",
"69 -30 CURVE SMOOTH",
"138 -30 LINE SMOOTH",
"152 -30 OFFCURVE",
"165 -15 OFFCURVE",
"165 17 CURVE SMOOTH",
"165 728 LINE SMOOTH",
"165 750 OFFCURVE",
"163 759 OFFCURVE",
"141 759 CURVE SMOOTH"
);
},
{
closed = 1;
nodes = (
"366 759 LINE SMOOTH",
"352 759 OFFCURVE",
"339 744 OFFCURVE",
"339 721 CURVE SMOOTH",
"339 21 LINE SMOOTH",
"339 0 OFFCURVE",
"340 -30 OFFCURVE",
"359 -30 CURVE SMOOTH",
"428 -30 LINE SMOOTH",
"442 -30 OFFCURVE",
"455 -13 OFFCURVE",
"455 17 CURVE SMOOTH",
"455 728 LINE SMOOTH",
"455 750 OFFCURVE",
"453 759 OFFCURVE",
"431 759 CURVE SMOOTH"
);
},
{
closed = 1;
nodes = (
"108 327 OFFCURVE",
"123 315 OFFCURVE",
"142 315 CURVE SMOOTH",
"358 315 LINE SMOOTH",
"377 315 OFFCURVE",
"392 327 OFFCURVE",
"392 343 CURVE SMOOTH",
"392 359 OFFCURVE",
"377 371 OFFCURVE",
"358 371 CURVE SMOOTH",
"142 371 LINE SMOOTH",
"123 371 OFFCURVE",
"108 359 OFFCURVE",
"108 343 CURVE SMOOTH"
);
}
);
userData = {
assembly = "NPUSHB[ ]\011/* 10 values pushed */
63 121 51 0 28 27 26 122 12 2 
CALL[ ]\011/* CallFunction */
CALL[ ]\011/* CallFunction */
SVTCA[0]\011/* SetFreedomAndProjectionVectorToAxis */
IUP[0]\011/* InterpolateUntPts */
IUP[1]\011/* InterpolateUntPts */";
};
width = 500;
}
);
note = uni0048;
unicode = 0048;
},
{
color = 5;
glyphname = I;
lastChange = "2019-12-11 06:40:48 +0000";
layers = (
{
layerId = "47F7128E-F1A6-4572-9BDC-88462FF34A66";
paths = (
{
closed = 1;
nodes = (
"117 753 LINE SMOOTH",
"60 753 OFFCURVE",
"55 750 OFFCURVE",
"55 726 CURVE SMOOTH",
"55 705 OFFCURVE",
"59 697 OFFCURVE",
"75 697 CURVE SMOOTH",
"91 697 OFFCURVE",
"100 697 OFFCURVE",
"110 697 CURVE SMOOTH",
"120 697 OFFCURVE",
"127 688 OFFCURVE",
"127 656 CURVE SMOOTH",
"127 624 OFFCURVE",
"127 94 OFFCURVE",
"127 69 CURVE SMOOTH",
"127 44 OFFCURVE",
"122 28 OFFCURVE",
"110 28 CURVE SMOOTH",
"98 28 OFFCURVE",
"83 28 OFFCURVE",
"70 28 CURVE SMOOTH",
"57 28 OFFCURVE",
"44 23 OFFCURVE",
"44 6 CURVE SMOOTH",
"44 -11 OFFCURVE",
"52 -21 OFFCURVE",
"67 -21 CURVE SMOOTH",
"214 -21 LINE",
"214 753 LINE"
);
},
{
closed = 1;
nodes = (
"144 -21 LINE",
"291 -21 LINE SMOOTH",
"306 -21 OFFCURVE",
"314 -11 OFFCURVE",
"314 6 CURVE SMOOTH",
"314 23 OFFCURVE",
"301 28 OFFCURVE",
"288 28 CURVE SMOOTH",
"275 28 OFFCURVE",
"260 28 OFFCURVE",
"248 28 CURVE SMOOTH",
"236 28 OFFCURVE",
"231 44 OFFCURVE",
"231 69 CURVE SMOOTH",
"231 94 OFFCURVE",
"231 624 OFFCURVE",
"231 656 CURVE SMOOTH",
"231 688 OFFCURVE",
"238 697 OFFCURVE",
"248 697 CURVE SMOOTH",
"258 697 OFFCURVE",
"267 697 OFFCURVE",
"283 697 CURVE SMOOTH",
"299 697 OFFCURVE",
"303 705 OFFCURVE",
"303 726 CURVE SMOOTH",
"303 750 OFFCURVE",
"298 753 OFFCURVE",
"241 753 CURVE SMOOTH",
"144 753 LINE"
);
}
);
userData = {
assembly = "SVTCA[0]\011/* SetFreedomAndProjectionVectorToAxis */
IUP[0]\011/* InterpolateUntPts */
IUP[1]\011/* InterpolateUntPts */";
};
width = 360;
}
);
note = uni0049;
unicode = 0049;
},
{
color = 5;
glyphname = J;
lastChange = "2019-12-11 06:40:48 +0000";
layers = (
{
layerId = "47F7128E-F1A6-4572-9BDC-88462FF34A66";
paths = (
{
closed = 1;
nodes = (
"131 -28 OFFCURVE",
"265 -28 CURVE SMOOTH",
"367 -28 OFFCURVE",
"440 24 OFFCURVE",
"440 118 CURVE SMOOTH",
"440 217 OFFCURVE",
"440 541 OFFCURVE",
"440 673 CURVE SMOOTH",
"440 723 OFFCURVE",
"432 746 OFFCURVE",
"414 746 CURVE SMOOTH",
"402 746 OFFCURVE",
"386 746 OFFCURVE",
"363 746 CURVE SMOOTH",
"336 746 OFFCURVE",
"321 746 OFFCURVE",
"321 711 CURVE SMOOTH",
"321 602 OFFCURVE",
"321 433 OFFCURVE",
"321 338 CURVE SMOOTH",
"321 206 OFFCURVE",
"319 24 OFFCURVE",
"240 24 CURVE SMOOTH",
"178 24 OFFCURVE",
"148 94 OFFCURVE",
"148 171 CURVE SMOOTH",
"148 217 OFFCURVE",
"137 232 OFFCURVE",
"86 225 CURVE SMOOTH",
"47 218 OFFCURVE",
"37 209 OFFCURVE",
"37 181 CURVE SMOOTH",
"37 -5 OFFCURVE"
);
}
);
userData = {
assembly = "NPUSHB[ ]\011/* 13 values pushed */
69 127 55 0 77 119 48 0 77 121 45 46 4 
CALL[ ]\011/* CallFunction */
CALL[ ]\011/* CallFunction */
CALL[ ]\011/* CallFunction */
SVTCA[0]\011/* SetFreedomAndProjectionVectorToAxis */
IUP[0]\011/* InterpolateUntPts */
IUP[1]\011/* InterpolateUntPts */";
};
width = 500;
}
);
note = uni004A;
unicode = 004A;
},
{
color = 5;
glyphname = K;
lastChange = "2019-12-11 06:40:48 +0000";
layers = (
{
layerId = "47F7128E-F1A6-4572-9BDC-88462FF34A66";
paths = (
{
closed = 1;
nodes = (
"49 9 LINE SMOOTH",
"49 -10 OFFCURVE",
"63 -25 OFFCURVE",
"80 -25 CURVE SMOOTH",
"125 -25 LINE SMOOTH",
"143 -25 OFFCURVE",
"157 -10 OFFCURVE",
"157 9 CURVE SMOOTH",
"157 721 LINE SMOOTH",
"157 740 OFFCURVE",
"143 755 OFFCURVE",
"125 755 CURVE SMOOTH",
"80 755 LINE SMOOTH",
"63 755 OFFCURVE",
"49 740 OFFCURVE",
"49 721 CURVE SMOOTH"
);
},
{
closed = 1;
nodes = (
"428 724 OFFCURVE",
"380 724 OFFCURVE",
"362 724 CURVE SMOOTH",
"354 724 OFFCURVE",
"346 717 OFFCURVE",
"326 687 CURVE SMOOTH",
"317 674 OFFCURVE",
"153 444 OFFCURVE",
"141 428 CURVE",
"141 258 LINE",
"245 399 OFFCURVE",
"441 662 OFFCURVE",
"454 681 CURVE SMOOTH",
"467 700 OFFCURVE",
"481 724 OFFCURVE",
"455 724 CURVE"
);
},
{
closed = 1;
nodes = (
"451 -22 OFFCURVE",
"437 3 OFFCURVE",
"424 23 CURVE SMOOTH",
"411 44 OFFCURVE",
"215 322 OFFCURVE",
"111 471 CURVE",
"111 291 LINE",
"123 274 OFFCURVE",
"287 31 OFFCURVE",
"296 17 CURVE SMOOTH",
"317 -15 OFFCURVE",
"324 -22 OFFCURVE",
"332 -22 CURVE SMOOTH",
"350 -22 OFFCURVE",
"398 -22 OFFCURVE",
"425 -22 CURVE"
);
}
);
userData = {
assembly = "PUSHB[ ]\011/* 5 values pushed */
32 123 18 19 4 
CALL[ ]\011/* CallFunction */
SVTCA[0]\011/* SetFreedomAndProjectionVectorToAxis */
IUP[0]\011/* InterpolateUntPts */
IUP[1]\011/* InterpolateUntPts */";
};
width = 500;
}
);
note = uni004B;
unicode = 004B;
},
{
color = 5;
glyphname = L;
lastChange = "2019-12-11 06:40:48 +0000";
layers = (
{
layerId = "47F7128E-F1A6-4572-9BDC-88462FF34A66";
paths = (
{
closed = 1;
nodes = (
"131 753 OFFCURVE",
"95 753 OFFCURVE",
"75 753 CURVE SMOOTH",
"59 753 OFFCURVE",
"52 739 OFFCURVE",
"52 709 CURVE SMOOTH",
"52 683 OFFCURVE",
"52 60 OFFCURVE",
"52 30 CURVE SMOOTH",
"52 -3 OFFCURVE",
"64 -18 OFFCURVE",
"90 -18 CURVE SMOOTH",
"113 -18 OFFCURVE",
"355 -18 OFFCURVE",
"380 -18 CURVE SMOOTH",
"410 -18 OFFCURVE",
"424 -13 OFFCURVE",
"424 -1 CURVE SMOOTH",
"424 20 OFFCURVE",
"411 30 OFFCURVE",
"382 30 CURVE SMOOTH",
"351 30 OFFCURVE",
"232 30 OFFCURVE",
"204 30 CURVE SMOOTH",
"179 30 OFFCURVE",
"168 45 OFFCURVE",
"168 78 CURVE SMOOTH",
"168 109 OFFCURVE",
"168 682 OFFCURVE",
"168 712 CURVE SMOOTH",
"168 740 OFFCURVE",
"163 753 OFFCURVE",
"153 753 CURVE"
);
}
);
userData = {
assembly = "SVTCA[0]\011/* SetFreedomAndProjectionVectorToAxis */
PUSHB[ ]\011/* 4 values pushed */
70 61 58 0 
CALL[ ]\011/* CallFunction */
IUP[0]\011/* InterpolateUntPts */
IUP[1]\011/* InterpolateUntPts */";
};
width = 463;
}
);
note = uni004C;
unicode = 004C;
},
{
color = 5;
glyphname = M;
lastChange = "2019-12-11 07:02:33 +0000";
layers = (
{
layerId = "47F7128E-F1A6-4572-9BDC-88462FF34A66";
paths = (
{
closed = 1;
nodes = (
"132 746 OFFCURVE",
"105 746 OFFCURVE",
"88 746 CURVE SMOOTH",
"67 746 OFFCURVE",
"58 735 OFFCURVE",
"58 710 CURVE SMOOTH",
"58 635 OFFCURVE",
"58 46 OFFCURVE",
"58 19 CURVE SMOOTH",
"58 -9 OFFCURVE",
"66 -20 OFFCURVE",
"82 -20 CURVE SMOOTH",
"100 -20 OFFCURVE",
"113 -20 OFFCURVE",
"128 -20 CURVE SMOOTH",
"143 -20 OFFCURVE",
"163 -3 OFFCURVE",
"163 24 CURVE SMOOTH",
"163 51 OFFCURVE",
"163 261 OFFCURVE",
"163 291 CURVE SMOOTH",
"163 321 OFFCURVE",
"177 319 OFFCURVE",
"181 294 CURVE SMOOTH",
"183 282 OFFCURVE",
"201 184 OFFCURVE",
"205 163 CURVE SMOOTH",
"208 142 OFFCURVE",
"213 130 OFFCURVE",
"224 130 CURVE SMOOTH",
"234 130 OFFCURVE",
"269 130 OFFCURVE",
"278 130 CURVE SMOOTH",
"287 130 OFFCURVE",
"301 149 OFFCURVE",
"289 191 CURVE SMOOTH",
"278 233 OFFCURVE",
"193 659 OFFCURVE",
"186 695 CURVE SMOOTH",
"178 731 OFFCURVE",
"172 746 OFFCURVE",
"157 746 CURVE"
);
},
{
closed = 1;
nodes = (
"333 746 OFFCURVE",
"326 731 OFFCURVE",
"319 695 CURVE SMOOTH",
"311 659 OFFCURVE",
"226 233 OFFCURVE",
"215 191 CURVE SMOOTH",
"204 149 OFFCURVE",
"217 130 OFFCURVE",
"226 130 CURVE SMOOTH",
"236 130 OFFCURVE",
"271 130 OFFCURVE",
"281 130 CURVE SMOOTH",
"291 130 OFFCURVE",
"296 142 OFFCURVE",
"300 163 CURVE SMOOTH",
"303 184 OFFCURVE",
"321 282 OFFCURVE",
"323 294 CURVE SMOOTH",
"327 319 OFFCURVE",
"341 321 OFFCURVE",
"341 291 CURVE SMOOTH",
"341 261 OFFCURVE",
"341 51 OFFCURVE",
"341 24 CURVE SMOOTH",
"341 -3 OFFCURVE",
"362 -20 OFFCURVE",
"377 -20 CURVE SMOOTH",
"392 -20 OFFCURVE",
"404 -20 OFFCURVE",
"422 -20 CURVE SMOOTH",
"439 -20 OFFCURVE",
"446 -9 OFFCURVE",
"446 19 CURVE SMOOTH",
"446 46 OFFCURVE",
"446 635 OFFCURVE",
"446 710 CURVE SMOOTH",
"446 735 OFFCURVE",
"437 746 OFFCURVE",
"416 746 CURVE SMOOTH",
"399 746 OFFCURVE",
"372 746 OFFCURVE",
"348 746 CURVE"
);
}
);
userData = {
assembly = "SVTCA[0]\011/* SetFreedomAndProjectionVectorToAxis */
IUP[0]\011/* InterpolateUntPts */
IUP[1]\011/* InterpolateUntPts */";
};
width = 500;
}
);
note = uni004D;
unicode = 004D;
},
{
color = 5;
glyphname = N;
lastChange = "2019-12-11 06:40:48 +0000";
layers = (
{
layerId = "47F7128E-F1A6-4572-9BDC-88462FF34A66";
paths = (
{
closed = 1;
nodes = (
"143 755 OFFCURVE",
"80 755 OFFCURVE",
"63 755 CURVE SMOOTH",
"46 755 OFFCURVE",
"43 723 OFFCURVE",
"43 703 CURVE SMOOTH",
"43 683 OFFCURVE",
"43 30 OFFCURVE",
"43 15 CURVE SMOOTH",
"43 0 OFFCURVE",
"49 -17 OFFCURVE",
"58 -17 CURVE SMOOTH",
"67 -17 OFFCURVE",
"124 -17 OFFCURVE",
"140 -17 CURVE SMOOTH",
"156 -17 OFFCURVE",
"164 -2 OFFCURVE",
"164 21 CURVE SMOOTH",
"164 44 OFFCURVE",
"164 392 OFFCURVE",
"164 417 CURVE SMOOTH",
"164 442 OFFCURVE",
"178 440 OFFCURVE",
"186 419 CURVE SMOOTH",
"194 398 OFFCURVE",
"329 5 OFFCURVE",
"334 -7 CURVE SMOOTH",
"339 -19 OFFCURVE",
"346 -25 OFFCURVE",
"358 -25 CURVE SMOOTH",
"370 -25 OFFCURVE",
"421 -25 OFFCURVE",
"434 -25 CURVE SMOOTH",
"447 -25 OFFCURVE",
"452 -18 OFFCURVE",
"452 2 CURVE SMOOTH",
"452 22 OFFCURVE",
"452 692 OFFCURVE",
"452 713 CURVE SMOOTH",
"452 734 OFFCURVE",
"447 748 OFFCURVE",
"427 748 CURVE SMOOTH",
"407 748 OFFCURVE",
"371 748 OFFCURVE",
"355 748 CURVE SMOOTH",
"339 748 OFFCURVE",
"329 735 OFFCURVE",
"329 713 CURVE SMOOTH",
"329 691 OFFCURVE",
"333 452 OFFCURVE",
"333 428 CURVE SMOOTH",
"333 404 OFFCURVE",
"319 403 OFFCURVE",
"310 426 CURVE SMOOTH",
"297 459 OFFCURVE",
"201 708 OFFCURVE",
"196 730 CURVE SMOOTH",
"191 752 OFFCURVE",
"184 755 OFFCURVE",
"170 755 CURVE"
);
}
);
userData = {
assembly = "SVTCA[0]\011/* SetFreedomAndProjectionVectorToAxis */
IUP[0]\011/* InterpolateUntPts */
IUP[1]\011/* InterpolateUntPts */";
};
width = 500;
}
);
note = uni004E;
unicode = 004E;
},
{
color = 5;
glyphname = O;
lastChange = "2019-12-11 06:40:48 +0000";
layers = (
{
layerId = "47F7128E-F1A6-4572-9BDC-88462FF34A66";
paths = (
{
closed = 1;
nodes = (
"186 46 OFFCURVE",
"145 199 OFFCURVE",
"145 347 CURVE SMOOTH",
"145 456 OFFCURVE",
"178 688 OFFCURVE",
"269 688 CURVE SMOOTH",
"319 688 OFFCURVE",
"356 450 OFFCURVE",
"356 347 CURVE SMOOTH",
"356 185 OFFCURVE",
"328 46 OFFCURVE",
"275 46 CURVE SMOOTH"
);
},
{
closed = 1;
nodes = (
"455 -25 OFFCURVE",
"455 96 OFFCURVE",
"455 347 CURVE SMOOTH",
"455 555 OFFCURVE",
"434 752 OFFCURVE",
"263 752 CURVE SMOOTH",
"104 752 OFFCURVE",
"41 567 OFFCURVE",
"41 347 CURVE SMOOTH",
"41 174 OFFCURVE",
"104 -25 OFFCURVE",
"217 -25 CURVE SMOOTH"
);
}
);
userData = {
assembly = "SVTCA[0]\011/* SetFreedomAndProjectionVectorToAxis */
IUP[0]\011/* InterpolateUntPts */
IUP[1]\011/* InterpolateUntPts */";
};
width = 500;
}
);
note = uni004F;
unicode = 004F;
},
{
color = 5;
glyphname = Oslash;
lastChange = "2019-12-11 06:40:48 +0000";
layers = (
{
components = (
{
name = O;
}
);
layerId = "47F7128E-F1A6-4572-9BDC-88462FF34A66";
paths = (
{
closed = 1;
nodes = (
"415 850 OFFCURVE",
"388 850 OFFCURVE",
"376 850 CURVE SMOOTH",
"364 850 OFFCURVE",
"344 834 OFFCURVE",
"338 814 CURVE SMOOTH",
"332 794 OFFCURVE",
"50 -42 OFFCURVE",
"45 -56 CURVE SMOOTH",
"40 -70 OFFCURVE",
"37 -105 OFFCURVE",
"54 -105 CURVE SMOOTH",
"71 -105 OFFCURVE",
"92 -105 OFFCURVE",
"102 -105 CURVE SMOOTH",
"112 -105 OFFCURVE",
"129 -94 OFFCURVE",
"141 -67 CURVE SMOOTH",
"153 -40 OFFCURVE",
"433 766 OFFCURVE",
"442 788 CURVE SMOOTH",
"451 810 OFFCURVE",
"459 850 OFFCURVE",
"440 850 CURVE"
);
}
);
width = 489;
}
);
unicode = 00D8;
},
{
color = 5;
glyphname = P;
lastChange = "2019-12-11 06:40:48 +0000";
layers = (
{
layerId = "47F7128E-F1A6-4572-9BDC-88462FF34A66";
paths = (
{
closed = 1;
nodes = (
"134 697 LINE",
"147 697 OFFCURVE",
"163 697 OFFCURVE",
"207 697 CURVE SMOOTH",
"266 697 OFFCURVE",
"338 659 OFFCURVE",
"338 525 CURVE SMOOTH",
"338 403 OFFCURVE",
"279 340 OFFCURVE",
"204 340 CURVE SMOOTH",
"128 340 LINE",
"128 292 LINE",
"153 292 OFFCURVE",
"165 292 OFFCURVE",
"204 292 CURVE SMOOTH",
"296 292 OFFCURVE",
"458 299 OFFCURVE",
"458 529 CURVE SMOOTH",
"458 710 OFFCURVE",
"346 743 OFFCURVE",
"206 743 CURVE SMOOTH",
"128 743 LINE",
"89 743 LINE SMOOTH",
"70 743 OFFCURVE",
"55 727 OFFCURVE",
"55 708 CURVE SMOOTH",
"55 34 LINE SMOOTH",
"55 15 OFFCURVE",
"70 0 OFFCURVE",
"89 0 CURVE SMOOTH",
"128 0 LINE SMOOTH",
"147 0 OFFCURVE",
"162 15 OFFCURVE",
"162 34 CURVE SMOOTH",
"162 712 LINE"
);
}
);
userData = {
assembly = "PUSHB[ ]\011/* 8 values pushed */
104 103 102 101 120 13 12 7 
CALL[ ]\011/* CallFunction */
SVTCA[0]\011/* SetFreedomAndProjectionVectorToAxis */
IUP[0]\011/* InterpolateUntPts */
IUP[1]\011/* InterpolateUntPts */";
};
width = 500;
}
);
note = uni0050;
unicode = 0050;
},
{
color = 5;
glyphname = Thorn;
lastChange = "2019-12-11 07:18:47 +0000";
layers = (
{
layerId = "47F7128E-F1A6-4572-9BDC-88462FF34A66";
paths = (
{
closed = 1;
nodes = (
"77 34 LINE SMOOTH",
"77 15 OFFCURVE",
"92 0 OFFCURVE",
"111 0 CURVE SMOOTH",
"155 0 LINE SMOOTH",
"174 0 OFFCURVE",
"189 15 OFFCURVE",
"189 34 CURVE SMOOTH",
"189 708 LINE SMOOTH",
"189 727 OFFCURVE",
"174 742 OFFCURVE",
"155 742 CURVE SMOOTH",
"111 742 LINE SMOOTH",
"92 742 OFFCURVE",
"77 727 OFFCURVE",
"77 708 CURVE SMOOTH"
);
},
{
closed = 1;
nodes = (
"145 573 LINE",
"145 531 LINE",
"199 531 OFFCURVE",
"225 531 OFFCURVE",
"307 531 CURVE SMOOTH",
"389 531 OFFCURVE",
"419 476 OFFCURVE",
"419 374 CURVE SMOOTH",
"419 272 OFFCURVE",
"379 203 OFFCURVE",
"290 203 CURVE SMOOTH",
"143 203 LINE",
"143 158 LINE",
"192 158 OFFCURVE",
"201 158 OFFCURVE",
"291 158 CURVE SMOOTH",
"381 158 OFFCURVE",
"525 167 OFFCURVE",
"525 375 CURVE SMOOTH",
"525 553 OFFCURVE",
"327 573 OFFCURVE",
"297 573 CURVE"
);
}
);
width = 602;
}
);
unicode = 00DE;
},
{
color = 5;
glyphname = Q;
lastChange = "2019-12-11 06:40:48 +0000";
layers = (
{
layerId = "47F7128E-F1A6-4572-9BDC-88462FF34A66";
paths = (
{
closed = 1;
nodes = (
"176 46 OFFCURVE",
"135 199 OFFCURVE",
"135 347 CURVE SMOOTH",
"135 456 OFFCURVE",
"168 688 OFFCURVE",
"259 688 CURVE SMOOTH",
"309 688 OFFCURVE",
"346 450 OFFCURVE",
"346 347 CURVE SMOOTH",
"346 185 OFFCURVE",
"318 46 OFFCURVE",
"265 46 CURVE SMOOTH"
);
},
{
closed = 1;
nodes = (
"445 -25 OFFCURVE",
"445 96 OFFCURVE",
"445 347 CURVE SMOOTH",
"445 555 OFFCURVE",
"424 752 OFFCURVE",
"253 752 CURVE SMOOTH",
"94 752 OFFCURVE",
"31 567 OFFCURVE",
"31 347 CURVE SMOOTH",
"31 174 OFFCURVE",
"94 -25 OFFCURVE",
"207 -25 CURVE SMOOTH"
);
},
{
closed = 1;
nodes = (
"235 324 OFFCURVE",
"209 324 OFFCURVE",
"193 324 CURVE SMOOTH",
"178 324 OFFCURVE",
"167 293 OFFCURVE",
"177 275 CURVE SMOOTH",
"187 257 OFFCURVE",
"331 4 OFFCURVE",
"342 -12 CURVE SMOOTH",
"353 -28 OFFCURVE",
"359 -36 OFFCURVE",
"374 -36 CURVE SMOOTH",
"390 -36 OFFCURVE",
"417 -36 OFFCURVE",
"429 -36 CURVE SMOOTH",
"441 -36 OFFCURVE",
"441 2 OFFCURVE",
"428 21 CURVE SMOOTH",
"415 40 OFFCURVE",
"292 278 OFFCURVE",
"284 297 CURVE SMOOTH",
"276 316 OFFCURVE",
"271 324 OFFCURVE",
"253 324 CURVE"
);
}
);
userData = {
assembly = "SVTCA[0]\011/* SetFreedomAndProjectionVectorToAxis */
IUP[0]\011/* InterpolateUntPts */
IUP[1]\011/* InterpolateUntPts */";
};
width = 500;
}
);
note = uni0051;
unicode = 0051;
},
{
color = 5;
glyphname = R;
lastChange = "2019-12-11 06:40:48 +0000";
layers = (
{
layerId = "47F7128E-F1A6-4572-9BDC-88462FF34A66";
paths = (
{
closed = 1;
nodes = (
"154 702 LINE",
"167 702 OFFCURVE",
"183 702 OFFCURVE",
"227 702 CURVE SMOOTH",
"286 702 OFFCURVE",
"338 668 OFFCURVE",
"338 547 CURVE SMOOTH",
"338 438 OFFCURVE",
"299 381 OFFCURVE",
"224 381 CURVE SMOOTH",
"148 381 LINE",
"148 338 LINE",
"173 338 OFFCURVE",
"185 338 OFFCURVE",
"224 338 CURVE SMOOTH",
"316 338 OFFCURVE",
"458 344 OFFCURVE",
"458 551 CURVE SMOOTH",
"458 713 OFFCURVE",
"366 743 OFFCURVE",
"226 743 CURVE SMOOTH",
"148 743 LINE",
"109 743 LINE SMOOTH",
"90 743 OFFCURVE",
"75 729 OFFCURVE",
"75 712 CURVE SMOOTH",
"75 34 LINE SMOOTH",
"75 15 OFFCURVE",
"90 0 OFFCURVE",
"109 0 CURVE SMOOTH",
"148 0 LINE SMOOTH",
"167 0 OFFCURVE",
"182 15 OFFCURVE",
"182 34 CURVE SMOOTH",
"182 715 LINE"
);
},
{
closed = 1;
nodes = (
"227 349 OFFCURVE",
"201 349 OFFCURVE",
"185 349 CURVE SMOOTH",
"170 349 OFFCURVE",
"159 319 OFFCURVE",
"169 302 CURVE SMOOTH",
"179 285 OFFCURVE",
"315 54 OFFCURVE",
"334 23 CURVE SMOOTH",
"344 7 OFFCURVE",
"351 0 OFFCURVE",
"366 0 CURVE SMOOTH",
"382 0 OFFCURVE",
"409 0 OFFCURVE",
"421 0 CURVE SMOOTH",
"433 0 OFFCURVE",
"435 28 OFFCURVE",
"420 54 CURVE SMOOTH",
"405 80 OFFCURVE",
"284 305 OFFCURVE",
"276 323 CURVE SMOOTH",
"268 341 OFFCURVE",
"263 349 OFFCURVE",
"245 349 CURVE"
);
}
);
userData = {
assembly = "PUSHB[ ]\011/* 8 values pushed */
40 115 103 0 126 108 11 0 
CALL[ ]\011/* CallFunction */
CALL[ ]\011/* CallFunction */
SVTCA[0]\011/* SetFreedomAndProjectionVectorToAxis */
IUP[0]\011/* InterpolateUntPts */
IUP[1]\011/* InterpolateUntPts */";
};
width = 500;
}
);
note = uni0052;
unicode = 0052;
},
{
color = 5;
glyphname = S;
lastChange = "2019-12-11 06:40:48 +0000";
layers = (
{
layerId = "47F7128E-F1A6-4572-9BDC-88462FF34A66";
paths = (
{
closed = 1;
nodes = (
"73 756 OFFCURVE",
"44 621 OFFCURVE",
"44 552 CURVE SMOOTH",
"44 444 OFFCURVE",
"66 382 OFFCURVE",
"250 340 CURVE SMOOTH",
"341 319 OFFCURVE",
"344 247 OFFCURVE",
"344 183 CURVE SMOOTH",
"344 119 OFFCURVE",
"330 22 OFFCURVE",
"262 22 CURVE SMOOTH",
"194 22 OFFCURVE",
"148 85 OFFCURVE",
"148 194 CURVE SMOOTH",
"148 226 OFFCURVE",
"136 228 OFFCURVE",
"115 223 CURVE SMOOTH",
"94 218 OFFCURVE",
"67 213 OFFCURVE",
"55 211 CURVE SMOOTH",
"43 209 OFFCURVE",
"38 200 OFFCURVE",
"38 179 CURVE SMOOTH",
"38 50 OFFCURVE",
"108 -31 OFFCURVE",
"255 -31 CURVE SMOOTH",
"402 -31 OFFCURVE",
"449 23 OFFCURVE",
"449 188 CURVE SMOOTH",
"449 353 OFFCURVE",
"394 353 OFFCURVE",
"269 406 CURVE SMOOTH",
"178 444 OFFCURVE",
"152 473 OFFCURVE",
"152 556 CURVE SMOOTH",
"152 639 OFFCURVE",
"205 697 OFFCURVE",
"243 697 CURVE SMOOTH",
"281 697 OFFCURVE",
"300 678 OFFCURVE",
"312 666 CURVE SMOOTH",
"324 654 OFFCURVE",
"338 639 OFFCURVE",
"355 636 CURVE SMOOTH",
"372 633 OFFCURVE",
"403 628 OFFCURVE",
"418 627 CURVE SMOOTH",
"433 626 OFFCURVE",
"441 639 OFFCURVE",
"441 650 CURVE SMOOTH",
"441 661 OFFCURVE",
"348 756 OFFCURVE",
"240 756 CURVE"
);
}
);
userData = {
assembly = "SVTCA[0]\011/* SetFreedomAndProjectionVectorToAxis */
IUP[0]\011/* InterpolateUntPts */
IUP[1]\011/* InterpolateUntPts */";
};
width = 482;
}
);
note = uni0053;
unicode = 0053;
},
{
color = 4;
glyphname = Scaron;
lastChange = "2019-12-12 07:40:31 +0000";
layers = (
{
background = {
paths = (
{
closed = 1;
nodes = (
"229 -28 OFFCURVE",
"239 -33 QCURVE",
"256 -33 OFFCURVE",
"271 -30 QCURVE SMOOTH",
"286 -27 OFFCURVE",
"300 -23 QCURVE",
"316 -22 OFFCURVE",
"332 -21 QCURVE",
"384 -9 OFFCURVE",
"418 34 QCURVE",
"449 86 OFFCURVE",
"449 148 QCURVE",
"458 208 OFFCURVE",
"446 267 QCURVE",
"434 312 OFFCURVE",
"400 344 QCURVE",
"382 356 OFFCURVE",
"364 371 QCURVE",
"347 382 OFFCURVE",
"327 386 QCURVE",
"304 396 OFFCURVE",
"281 404 QCURVE SMOOTH",
"259 411 OFFCURVE",
"239 419 QCURVE SMOOTH",
"197 435 OFFCURVE",
"174 475 QCURVE SMOOTH",
"150 519 OFFCURVE",
"156 568 QCURVE",
"157 595 OFFCURVE",
"170 618 QCURVE",
"176 637 OFFCURVE",
"187 653 QCURVE",
"195 660 OFFCURVE",
"204 669 QCURVE",
"208 676 OFFCURVE",
"215 683 QCURVE SMOOTH",
"229 694 OFFCURVE",
"247 698 QCURVE",
"270 698 OFFCURVE",
"288 684 QCURVE SMOOTH",
"307 669 OFFCURVE",
"326 655 QCURVE",
"332 646 OFFCURVE",
"341 640 QCURVE",
"351 636 OFFCURVE",
"361 635 QCURVE",
"380 628 OFFCURVE",
"398 621 QCURVE SMOOTH",
"419 612 OFFCURVE",
"436 628 QCURVE SMOOTH",
"449 643 OFFCURVE",
"439 660 QCURVE",
"427 674 OFFCURVE",
"411 684 QCURVE SMOOTH",
"392 696 OFFCURVE",
"375 712 QCURVE SMOOTH",
"356 727 OFFCURVE",
"334 736 QCURVE SMOOTH",
"313 746 OFFCURVE",
"292 752 QCURVE",
"266 754 OFFCURVE",
"239 753 QCURVE",
"214 756 OFFCURVE",
"188 756 QCURVE",
"142 748 OFFCURVE",
"109 714 QCURVE SMOOTH",
"76 682 OFFCURVE",
"61 639 QCURVE",
"48 591 OFFCURVE",
"45 542 QCURVE SMOOTH",
"43 439 OFFCURVE",
"124 378 QCURVE SMOOTH",
"144 363 OFFCURVE",
"167 364 QCURVE",
"189 360 OFFCURVE",
"212 354 QCURVE SMOOTH",
"233 349 OFFCURVE",
"253 339 QCURVE SMOOTH",
"273 329 OFFCURVE",
"295 320 QCURVE",
"334 292 OFFCURVE",
"341 244 QCURVE SMOOTH",
"348 192 OFFCURVE",
"341 143 QCURVE",
"344 53 OFFCURVE",
"268 22 QCURVE",
"225 28 OFFCURVE",
"191 57 QCURVE SMOOTH",
"158 86 OFFCURVE",
"157 132 QCURVE SMOOTH",
"157 167 OFFCURVE",
"149 202 QCURVE",
"139 221 OFFCURVE",
"117 222 QCURVE",
"106 220 OFFCURVE",
"96 216 QCURVE SMOOTH",
"85 213 OFFCURVE",
"73 213 QCURVE SMOOTH",
"52 212 OFFCURVE",
"44 193 QCURVE",
"40 170 OFFCURVE",
"44 146 QCURVE SMOOTH",
"45 133 OFFCURVE",
"49 121 QCURVE SMOOTH",
"52 109 OFFCURVE",
"53 97 QCURVE SMOOTH",
"56 72 OFFCURVE",
"65 50 QCURVE",
"90 9 OFFCURVE",
"136 -8 QCURVE",
"157 -21 OFFCURVE",
"182 -28 QCURVE",
"201 -27 OFFCURVE",
"219 -33 QCURVE",
"219 -33 LINE"
);
},
{
closed = 1;
nodes = (
"215 814 OFFCURVE",
"215 817 QCURVE",
"222 816 OFFCURVE",
"227 819 QCURVE",
"252 814 OFFCURVE",
"298 833 OFFCURVE",
"332 871 OFFCURVE",
"352 885 QCURVE",
"391 903 OFFCURVE",
"427 927 QCURVE",
"440 934 OFFCURVE",
"438 947 QCURVE",
"429 957 OFFCURVE",
"405 964 OFFCURVE",
"395 968 QCURVE",
"395 967 LINE",
"372 969 OFFCURVE",
"350 972 QCURVE",
"325 969 OFFCURVE",
"296 933 OFFCURVE",
"278 920 QCURVE SMOOTH",
"267 911 OFFCURVE",
"238 914 OFFCURVE",
"223 938 OFFCURVE",
"204 957 OFFCURVE",
"190 961 QCURVE SMOOTH",
"172 968 OFFCURVE",
"153 967 QCURVE",
"144 969 OFFCURVE",
"133 969 QCURVE",
"133 968 LINE",
"119 968 OFFCURVE",
"105 969 QCURVE SMOOTH",
"102 969 OFFCURVE",
"98 967 QCURVE",
"93 968 OFFCURVE",
"79 964 OFFCURVE",
"81 951 OFFCURVE",
"89 941 OFFCURVE",
"92 938 QCURVE SMOOTH",
"109 916 OFFCURVE",
"131 898 QCURVE",
"144 884 OFFCURVE",
"167 852 OFFCURVE",
"193 821 OFFCURVE",
"212 813 QCURVE",
"212 813 LINE"
);
}
);
};
components = (
{
name = caroncomb;
},
{
name = S;
}
);
layerId = "47F7128E-F1A6-4572-9BDC-88462FF34A66";
userData = {
assembly = "SVTCA[0]\011/* SetFreedomAndProjectionVectorToAxis */
IUP[0]\011/* InterpolateUntPts */
IUP[1]\011/* InterpolateUntPts */";
};
vertWidth = 1000;
width = 482;
}
);
leftMetricsKey = S;
note = uni0160;
rightMetricsKey = S;
unicode = 0160;
},
{
color = 5;
glyphname = T;
lastChange = "2019-12-11 07:02:24 +0000";
layers = (
{
layerId = "47F7128E-F1A6-4572-9BDC-88462FF34A66";
paths = (
{
closed = 1;
nodes = (
"45 703 OFFCURVE",
"60 688 OFFCURVE",
"79 688 CURVE SMOOTH",
"429 688 LINE SMOOTH",
"448 688 OFFCURVE",
"463 703 OFFCURVE",
"463 722 CURVE SMOOTH",
"463 741 OFFCURVE",
"448 755 OFFCURVE",
"429 755 CURVE SMOOTH",
"79 755 LINE SMOOTH",
"60 755 OFFCURVE",
"45 741 OFFCURVE",
"45 722 CURVE SMOOTH"
);
},
{
closed = 1;
nodes = (
"199 14 LINE SMOOTH",
"199 -5 OFFCURVE",
"214 -20 OFFCURVE",
"233 -20 CURVE SMOOTH",
"276 -20 LINE SMOOTH",
"295 -20 OFFCURVE",
"310 -5 OFFCURVE",
"310 14 CURVE SMOOTH",
"310 695 LINE SMOOTH",
"310 714 OFFCURVE",
"295 729 OFFCURVE",
"276 729 CURVE SMOOTH",
"233 729 LINE SMOOTH",
"214 729 OFFCURVE",
"199 714 OFFCURVE",
"199 695 CURVE SMOOTH"
);
}
);
userData = {
assembly = "PUSHB[ ]\011/* 4 values pushed */
54 116 11 0 
CALL[ ]\011/* CallFunction */
SVTCA[0]\011/* SetFreedomAndProjectionVectorToAxis */
PUSHB[ ]\011/* 4 values pushed */
49 72 43 0 
CALL[ ]\011/* CallFunction */
IUP[0]\011/* InterpolateUntPts */
IUP[1]\011/* InterpolateUntPts */";
};
width = 500;
}
);
note = uni0054;
unicode = 0054;
},
{
color = 4;
glyphname = Tcaron;
lastChange = "2019-12-12 07:40:11 +0000";
layers = (
{
background = {
paths = (
{
closed = 1;
nodes = (
"222 -24 OFFCURVE",
"232 -27 QCURVE SMOOTH",
"244 -31 OFFCURVE",
"256 -27 QCURVE",
"281 -27 OFFCURVE",
"300 -11 QCURVE",
"310 10 OFFCURVE",
"305 32 QCURVE",
"304 57 OFFCURVE",
"303 81 QCURVE SMOOTH",
"301 135 OFFCURVE",
"303 188 QCURVE SMOOTH",
"303 216 OFFCURVE",
"306 243 QCURVE",
"305 268 OFFCURVE",
"306 294 QCURVE SMOOTH",
"307 350 OFFCURVE",
"305 405 QCURVE SMOOTH",
"303 459 OFFCURVE",
"307 514 QCURVE SMOOTH",
"310 567 OFFCURVE",
"310 622 QCURVE",
"306 647 OFFCURVE",
"313 672 QCURVE",
"323 688 OFFCURVE",
"344 685 QCURVE",
"381 685 OFFCURVE",
"418 691 QCURVE",
"450 685 OFFCURVE",
"465 715 QCURVE",
"466 752 OFFCURVE",
"428 755 QCURVE",
"377 755 OFFCURVE",
"327 750 QCURVE",
"304 754 OFFCURVE",
"280 758 QCURVE",
"257 754 OFFCURVE",
"234 755 QCURVE",
"208 753 OFFCURVE",
"184 754 QCURVE",
"158 758 OFFCURVE",
"133 757 QCURVE SMOOTH",
"107 756 OFFCURVE",
"83 751 QCURVE",
"61 749 OFFCURVE",
"43 738 QCURVE",
"30 722 OFFCURVE",
"42 704 QCURVE",
"44 693 OFFCURVE",
"53 689 QCURVE",
"63 688 OFFCURVE",
"73 691 QCURVE",
"84 688 OFFCURVE",
"97 688 QCURVE",
"107 688 OFFCURVE",
"118 692 QCURVE SMOOTH",
"130 698 OFFCURVE",
"138 691 QCURVE",
"156 697 OFFCURVE",
"176 688 QCURVE",
"195 684 OFFCURVE",
"197 663 QCURVE SMOOTH",
"197 638 OFFCURVE",
"196 614 QCURVE SMOOTH",
"196 588 OFFCURVE",
"198 563 QCURVE",
"199 458 OFFCURVE",
"199 354 QCURVE SMOOTH",
"196 249 OFFCURVE",
"194 146 QCURVE SMOOTH",
"193 92 OFFCURVE",
"193 40 QCURVE",
"189 16 OFFCURVE",
"193 -8 QCURVE",
"198 -25 OFFCURVE",
"215 -33 QCURVE",
"215 -33 LINE"
);
},
{
closed = 1;
nodes = (
"215 814 OFFCURVE",
"215 817 QCURVE",
"222 816 OFFCURVE",
"227 819 QCURVE",
"252 814 OFFCURVE",
"298 833 OFFCURVE",
"332 871 OFFCURVE",
"352 885 QCURVE",
"391 903 OFFCURVE",
"427 927 QCURVE",
"440 934 OFFCURVE",
"438 947 QCURVE",
"429 957 OFFCURVE",
"405 964 OFFCURVE",
"395 968 QCURVE",
"395 967 LINE",
"372 969 OFFCURVE",
"350 972 QCURVE",
"325 969 OFFCURVE",
"296 933 OFFCURVE",
"278 920 QCURVE SMOOTH",
"267 911 OFFCURVE",
"238 914 OFFCURVE",
"223 938 OFFCURVE",
"204 957 OFFCURVE",
"190 961 QCURVE SMOOTH",
"172 968 OFFCURVE",
"153 967 QCURVE",
"144 969 OFFCURVE",
"133 969 QCURVE",
"133 968 LINE",
"119 968 OFFCURVE",
"105 969 QCURVE SMOOTH",
"102 969 OFFCURVE",
"98 967 QCURVE",
"93 968 OFFCURVE",
"79 964 OFFCURVE",
"81 951 OFFCURVE",
"89 941 OFFCURVE",
"92 938 QCURVE SMOOTH",
"109 916 OFFCURVE",
"131 898 QCURVE",
"144 884 OFFCURVE",
"167 852 OFFCURVE",
"193 821 OFFCURVE",
"212 813 QCURVE",
"212 813 LINE"
);
}
);
};
components = (
{
name = T;
},
{
name = caroncomb;
}
);
layerId = "47F7128E-F1A6-4572-9BDC-88462FF34A66";
userData = {
assembly = "PUSHB[ ]\011/* 4 values pushed */
54 116 11 0 
CALL[ ]\011/* CallFunction */
SVTCA[0]\011/* SetFreedomAndProjectionVectorToAxis */
PUSHB[ ]\011/* 4 values pushed */
49 72 43 0 
CALL[ ]\011/* CallFunction */
IUP[0]\011/* InterpolateUntPts */
IUP[1]\011/* InterpolateUntPts */";
};
width = 500;
}
);
note = uni0164;
unicode = 0164;
},
{
color = 5;
glyphname = U;
lastChange = "2019-12-11 06:40:48 +0000";
layers = (
{
layerId = "47F7128E-F1A6-4572-9BDC-88462FF34A66";
paths = (
{
closed = 1;
nodes = (
"375 745 LINE SMOOTH",
"357 745 OFFCURVE",
"334 742 OFFCURVE",
"334 719 CURVE SMOOTH",
"334 131 LINE SMOOTH",
"334 87 OFFCURVE",
"300 36 OFFCURVE",
"258 36 CURVE SMOOTH",
"220 36 OFFCURVE",
"162 80 OFFCURVE",
"162 142 CURVE SMOOTH",
"162 719 LINE SMOOTH",
"162 742 OFFCURVE",
"139 745 OFFCURVE",
"121 745 CURVE SMOOTH",
"78 745 LINE SMOOTH",
"67 745 OFFCURVE",
"47 739 OFFCURVE",
"47 714 CURVE SMOOTH",
"47 115 LINE SMOOTH",
"47 30 OFFCURVE",
"157 -23 OFFCURVE",
"258 -23 CURVE SMOOTH",
"388 -23 OFFCURVE",
"449 49 OFFCURVE",
"449 135 CURVE SMOOTH",
"449 714 LINE SMOOTH",
"449 739 OFFCURVE",
"429 745 OFFCURVE",
"418 745 CURVE SMOOTH"
);
}
);
userData = {
assembly = "PUSHB[ ]\011/* 7 values pushed */
33 32 121 24 22 23 9 
CALL[ ]\011/* CallFunction */
SVTCA[0]\011/* SetFreedomAndProjectionVectorToAxis */
IUP[0]\011/* InterpolateUntPts */
IUP[1]\011/* InterpolateUntPts */";
};
width = 500;
}
);
note = uni0055;
unicode = 0055;
},
{
color = 5;
glyphname = V;
lastChange = "2019-12-11 06:40:48 +0000";
layers = (
{
layerId = "47F7128E-F1A6-4572-9BDC-88462FF34A66";
paths = (
{
closed = 1;
nodes = (
"42 758 OFFCURVE",
"38 744 OFFCURVE",
"45 703 CURVE SMOOTH",
"50 673 OFFCURVE",
"169 78 OFFCURVE",
"183 33 CURVE SMOOTH",
"197 -12 OFFCURVE",
"209 -22 OFFCURVE",
"231 -22 CURVE SMOOTH",
"253 -22 OFFCURVE",
"278 -22 OFFCURVE",
"304 -22 CURVE SMOOTH",
"330 -22 OFFCURVE",
"344 16 OFFCURVE",
"348 50 CURVE SMOOTH",
"352 84 OFFCURVE",
"457 661 OFFCURVE",
"464 708 CURVE SMOOTH",
"471 755 OFFCURVE",
"459 758 OFFCURVE",
"439 758 CURVE SMOOTH",
"419 758 OFFCURVE",
"412 758 OFFCURVE",
"394 758 CURVE SMOOTH",
"365 758 OFFCURVE",
"352 747 OFFCURVE",
"348 718 CURVE SMOOTH",
"252 158 LINE",
"272 158 LINE",
"160 719 LINE SMOOTH",
"154 748 OFFCURVE",
"145 760 OFFCURVE",
"128 760 CURVE SMOOTH",
"73 760 LINE SMOOTH"
);
}
);
userData = {
assembly = "SVTCA[0]\011/* SetFreedomAndProjectionVectorToAxis */
IUP[0]\011/* InterpolateUntPts */
IUP[1]\011/* InterpolateUntPts */";
};
width = 500;
}
);
note = uni0056;
unicode = 0056;
},
{
color = 5;
glyphname = W;
lastChange = "2019-12-11 06:40:48 +0000";
layers = (
{
layerId = "47F7128E-F1A6-4572-9BDC-88462FF34A66";
paths = (
{
closed = 1;
nodes = (
"408 760 LINE SMOOTH",
"388 760 OFFCURVE",
"388 742 OFFCURVE",
"384 719 CURVE SMOOTH",
"380 698 OFFCURVE",
"362 413 OFFCURVE",
"339 220 CURVE",
"302 551 LINE SMOOTH",
"299 577 OFFCURVE",
"295 591 OFFCURVE",
"277 591 CURVE SMOOTH",
"306 591 OFFCURVE",
"236 591 OFFCURVE",
"235 591 CURVE SMOOTH",
"218 591 OFFCURVE",
"213 581 OFFCURVE",
"210 551 CURVE SMOOTH",
"173 220 LINE",
"150 413 OFFCURVE",
"132 698 OFFCURVE",
"128 719 CURVE SMOOTH",
"124 742 OFFCURVE",
"124 760 OFFCURVE",
"104 760 CURVE SMOOTH",
"64 760 LINE",
"41 758 OFFCURVE",
"38 744 OFFCURVE",
"43 703 CURVE SMOOTH",
"47 673 OFFCURVE",
"105 78 OFFCURVE",
"115 33 CURVE SMOOTH",
"125 -12 OFFCURVE",
"134 -23 OFFCURVE",
"151 -22 CURVE SMOOTH",
"167 -21 OFFCURVE",
"185 -22 OFFCURVE",
"205 -22 CURVE SMOOTH",
"224 -22 OFFCURVE",
"234 16 OFFCURVE",
"237 50 CURVE SMOOTH",
"238 63 OFFCURVE",
"246 130 OFFCURVE",
"256 211 CURVE",
"266 130 OFFCURVE",
"274 63 OFFCURVE",
"275 50 CURVE SMOOTH",
"278 16 OFFCURVE",
"288 -22 OFFCURVE",
"307 -22 CURVE SMOOTH",
"327 -22 OFFCURVE",
"345 -21 OFFCURVE",
"361 -22 CURVE SMOOTH",
"378 -23 OFFCURVE",
"387 -12 OFFCURVE",
"397 33 CURVE SMOOTH",
"407 78 OFFCURVE",
"465 673 OFFCURVE",
"469 703 CURVE SMOOTH",
"474 744 OFFCURVE",
"471 760 OFFCURVE",
"448 760 CURVE SMOOTH"
);
}
);
userData = {
assembly = "SVTCA[0]\011/* SetFreedomAndProjectionVectorToAxis */
IUP[0]\011/* InterpolateUntPts */
IUP[1]\011/* InterpolateUntPts */";
};
width = 500;
}
);
note = uni0057;
unicode = 0057;
},
{
color = 5;
glyphname = X;
lastChange = "2019-12-11 06:40:48 +0000";
layers = (
{
layerId = "47F7128E-F1A6-4572-9BDC-88462FF34A66";
paths = (
{
closed = 1;
nodes = (
"80 753 LINE SMOOTH",
"56 753 OFFCURVE",
"46 738 OFFCURVE",
"54 715 CURVE SMOOTH",
"311 15 LINE SMOOTH",
"317 -3 OFFCURVE",
"330 -11 OFFCURVE",
"349 -11 CURVE SMOOTH",
"404 -11 LINE SMOOTH",
"428 -11 OFFCURVE",
"438 4 OFFCURVE",
"430 27 CURVE SMOOTH",
"175 727 LINE SMOOTH",
"169 745 OFFCURVE",
"156 753 OFFCURVE",
"137 753 CURVE SMOOTH"
);
},
{
closed = 1;
nodes = (
"358 753 OFFCURVE",
"345 745 OFFCURVE",
"339 727 CURVE SMOOTH",
"84 27 LINE SMOOTH",
"76 4 OFFCURVE",
"86 -11 OFFCURVE",
"110 -11 CURVE SMOOTH",
"165 -11 LINE SMOOTH",
"184 -11 OFFCURVE",
"196 -3 OFFCURVE",
"203 15 CURVE SMOOTH",
"460 715 LINE SMOOTH",
"468 738 OFFCURVE",
"458 753 OFFCURVE",
"434 753 CURVE SMOOTH",
"377 753 LINE SMOOTH"
);
}
);
userData = {
assembly = "SVTCA[0]\011/* SetFreedomAndProjectionVectorToAxis */
IUP[0]\011/* InterpolateUntPts */
IUP[1]\011/* InterpolateUntPts */";
};
width = 500;
}
);
note = uni0058;
unicode = 0058;
},
{
color = 5;
glyphname = Y;
lastChange = "2019-12-11 06:40:48 +0000";
layers = (
{
layerId = "47F7128E-F1A6-4572-9BDC-88462FF34A66";
paths = (
{
closed = 1;
nodes = (
"80 743 LINE SMOOTH",
"56 743 OFFCURVE",
"45 728 OFFCURVE",
"54 705 CURVE SMOOTH",
"204 312 LINE SMOOTH",
"211 295 OFFCURVE",
"219 286 OFFCURVE",
"233 286 CURVE SMOOTH",
"276 286 LINE SMOOTH",
"295 286 OFFCURVE",
"303 301 OFFCURVE",
"296 324 CURVE SMOOTH",
"175 717 LINE SMOOTH",
"169 735 OFFCURVE",
"156 743 OFFCURVE",
"137 743 CURVE SMOOTH"
);
},
{
closed = 1;
nodes = (
"363 743 OFFCURVE",
"350 735 OFFCURVE",
"344 717 CURVE SMOOTH",
"223 324 LINE SMOOTH",
"216 301 OFFCURVE",
"224 286 OFFCURVE",
"243 286 CURVE SMOOTH",
"286 286 LINE SMOOTH",
"300 286 OFFCURVE",
"308 295 OFFCURVE",
"315 312 CURVE SMOOTH",
"465 705 LINE SMOOTH",
"474 728 OFFCURVE",
"463 743 OFFCURVE",
"439 743 CURVE SMOOTH",
"382 743 LINE SMOOTH"
);
},
{
closed = 1;
nodes = (
"208 16 LINE SMOOTH",
"208 -8 OFFCURVE",
"220 -21 OFFCURVE",
"241 -21 CURVE SMOOTH",
"279 -21 LINE SMOOTH",
"300 -21 OFFCURVE",
"312 -8 OFFCURVE",
"312 16 CURVE SMOOTH",
"312 352 LINE SMOOTH",
"312 375 OFFCURVE",
"300 389 OFFCURVE",
"279 389 CURVE SMOOTH",
"241 389 LINE SMOOTH",
"220 389 OFFCURVE",
"208 375 OFFCURVE",
"208 352 CURVE SMOOTH"
);
}
);
userData = {
assembly = "SVTCA[0]\011/* SetFreedomAndProjectionVectorToAxis */
IUP[0]\011/* InterpolateUntPts */
IUP[1]\011/* InterpolateUntPts */";
};
width = 500;
}
);
note = uni0059;
unicode = 0059;
},
{
color = 5;
glyphname = Z;
lastChange = "2019-12-11 06:40:48 +0000";
layers = (
{
layerId = "47F7128E-F1A6-4572-9BDC-88462FF34A66";
paths = (
{
closed = 1;
nodes = (
"349 746 OFFCURVE",
"124 746 OFFCURVE",
"86 746 CURVE SMOOTH",
"48 746 OFFCURVE",
"50 737 OFFCURVE",
"50 720 CURVE SMOOTH",
"50 703 OFFCURVE",
"56 687 OFFCURVE",
"86 687 CURVE SMOOTH",
"116 687 OFFCURVE",
"256 683 OFFCURVE",
"275 683 CURVE SMOOTH",
"294 683 OFFCURVE",
"298 683 OFFCURVE",
"285 655 CURVE SMOOTH",
"272 627 OFFCURVE",
"47 46 OFFCURVE",
"35 23 CURVE SMOOTH",
"23 0 OFFCURVE",
"34 -25 OFFCURVE",
"62 -25 CURVE SMOOTH",
"90 -25 OFFCURVE",
"378 -24 OFFCURVE",
"408 -24 CURVE SMOOTH",
"438 -24 OFFCURVE",
"453 -17 OFFCURVE",
"453 9 CURVE SMOOTH",
"453 35 OFFCURVE",
"435 52 OFFCURVE",
"409 52 CURVE SMOOTH",
"383 52 OFFCURVE",
"220 52 OFFCURVE",
"193 52 CURVE SMOOTH",
"166 52 OFFCURVE",
"181 74 OFFCURVE",
"192 101 CURVE SMOOTH",
"208 140 OFFCURVE",
"419 652 OFFCURVE",
"435 688 CURVE SMOOTH",
"451 724 OFFCURVE",
"431 746 OFFCURVE",
"399 746 CURVE"
);
}
);
userData = {
assembly = "SVTCA[0]\011/* SetFreedomAndProjectionVectorToAxis */
IUP[0]\011/* InterpolateUntPts */
IUP[1]\011/* InterpolateUntPts */";
};
width = 500;
}
);
note = uni005A;
unicode = 005A;
},
{
color = 4;
glyphname = Zcaron;
lastChange = "2019-12-12 07:40:50 +0000";
layers = (
{
background = {
paths = (
{
closed = 1;
nodes = (
"113 -16 OFFCURVE",
"136 -22 QCURVE",
"156 -25 OFFCURVE",
"179 -25 QCURVE SMOOTH",
"222 -25 OFFCURVE",
"266 -22 QCURVE SMOOTH",
"287 -20 OFFCURVE",
"310 -19 QCURVE",
"332 -21 OFFCURVE",
"354 -21 QCURVE SMOOTH",
"378 -21 OFFCURVE",
"402 -21 QCURVE",
"422 -23 OFFCURVE",
"442 -17 QCURVE",
"471 7 OFFCURVE",
"447 37 QCURVE",
"433 49 OFFCURVE",
"414 49 QCURVE SMOOTH",
"392 49 OFFCURVE",
"370 49 QCURVE",
"350 46 OFFCURVE",
"329 44 QCURVE",
"309 46 OFFCURVE",
"288 46 QCURVE",
"267 42 OFFCURVE",
"245 39 QCURVE",
"224 39 OFFCURVE",
"203 40 QCURVE",
"181 32 OFFCURVE",
"175 52 QCURVE",
"180 71 OFFCURVE",
"188 91 QCURVE SMOOTH",
"208 139 OFFCURVE",
"229 187 QCURVE",
"245 236 OFFCURVE",
"264 287 QCURVE SMOOTH",
"274 312 OFFCURVE",
"286 337 QCURVE",
"298 356 OFFCURVE",
"308 378 QCURVE",
"310 388 OFFCURVE",
"314 397 QCURVE",
"320 404 OFFCURVE",
"320 415 QCURVE",
"326 435 OFFCURVE",
"337 454 QCURVE",
"346 478 OFFCURVE",
"356 502 QCURVE SMOOTH",
"363 522 OFFCURVE",
"373 542 QCURVE SMOOTH",
"384 564 OFFCURVE",
"393 589 QCURVE",
"404 611 OFFCURVE",
"415 636 QCURVE",
"439 671 OFFCURVE",
"438 714 QCURVE",
"417 749 OFFCURVE",
"374 749 QCURVE",
"352 752 OFFCURVE",
"328 753 QCURVE",
"304 750 OFFCURVE",
"279 747 QCURVE SMOOTH",
"254 745 OFFCURVE",
"229 747 QCURVE SMOOTH",
"218 749 OFFCURVE",
"206 747 QCURVE",
"200 745 OFFCURVE",
"196 743 QCURVE",
"192 744 OFFCURVE",
"189 747 QCURVE",
"187 747 OFFCURVE",
"184 747 QCURVE SMOOTH",
"171 747 OFFCURVE",
"159 750 QCURVE SMOOTH",
"136 756 OFFCURVE",
"113 751 QCURVE",
"100 750 OFFCURVE",
"88 747 QCURVE SMOOTH",
"79 744 OFFCURVE",
"71 744 QCURVE",
"52 741 OFFCURVE",
"51 722 QCURVE",
"63 682 OFFCURVE",
"108 687 QCURVE",
"121 683 OFFCURVE",
"135 682 QCURVE",
"146 683 OFFCURVE",
"156 685 QCURVE",
"180 683 OFFCURVE",
"204 682 QCURVE SMOOTH",
"257 682 LINE",
"276 686 OFFCURVE",
"288 670 QCURVE",
"289 649 OFFCURVE",
"278 635 QCURVE",
"270 612 OFFCURVE",
"263 590 QCURVE SMOOTH",
"243 539 OFFCURVE",
"222 490 QCURVE SMOOTH",
"180 391 OFFCURVE",
"143 290 QCURVE SMOOTH",
"124 239 OFFCURVE",
"105 188 QCURVE SMOOTH",
"95 162 OFFCURVE",
"84 139 QCURVE SMOOTH",
"75 115 OFFCURVE",
"67 94 QCURVE SMOOTH",
"57 69 OFFCURVE",
"43 46 QCURVE",
"29 28 OFFCURVE",
"30 7 QCURVE",
"36 -14 OFFCURVE",
"57 -21 QCURVE SMOOTH",
"77 -25 OFFCURVE",
"98 -31 QCURVE",
"98 -31 LINE"
);
},
{
closed = 1;
nodes = (
"215 814 OFFCURVE",
"215 817 QCURVE",
"222 816 OFFCURVE",
"227 819 QCURVE",
"252 814 OFFCURVE",
"298 833 OFFCURVE",
"332 871 OFFCURVE",
"352 885 QCURVE",
"391 903 OFFCURVE",
"427 927 QCURVE",
"440 934 OFFCURVE",
"438 947 QCURVE",
"429 957 OFFCURVE",
"405 964 OFFCURVE",
"395 968 QCURVE",
"395 967 LINE",
"372 969 OFFCURVE",
"350 972 QCURVE",
"325 969 OFFCURVE",
"296 933 OFFCURVE",
"278 920 QCURVE SMOOTH",
"267 911 OFFCURVE",
"238 914 OFFCURVE",
"223 938 OFFCURVE",
"204 957 OFFCURVE",
"190 961 QCURVE SMOOTH",
"172 968 OFFCURVE",
"153 967 QCURVE",
"144 969 OFFCURVE",
"133 969 QCURVE",
"133 968 LINE",
"119 968 OFFCURVE",
"105 969 QCURVE SMOOTH",
"102 969 OFFCURVE",
"98 967 QCURVE",
"93 968 OFFCURVE",
"79 964 OFFCURVE",
"81 951 OFFCURVE",
"89 941 OFFCURVE",
"92 938 QCURVE SMOOTH",
"109 916 OFFCURVE",
"131 898 QCURVE",
"144 884 OFFCURVE",
"167 852 OFFCURVE",
"193 821 OFFCURVE",
"212 813 QCURVE",
"212 813 LINE"
);
}
);
};
components = (
{
name = caroncomb;
},
{
name = Z;
}
);
layerId = "47F7128E-F1A6-4572-9BDC-88462FF34A66";
userData = {
assembly = "SVTCA[0]\011/* SetFreedomAndProjectionVectorToAxis */
IUP[0]\011/* InterpolateUntPts */
IUP[1]\011/* InterpolateUntPts */";
};
vertWidth = 1000;
width = 500;
}
);
leftMetricsKey = Z;
note = uni017D;
rightMetricsKey = Z;
unicode = 017D;
},
{
color = 7;
glyphname = A.full;
lastChange = "2019-12-13 05:10:30 +0000";
layers = (
{
layerId = "47F7128E-F1A6-4572-9BDC-88462FF34A66";
paths = (
{
closed = 1;
nodes = (
"497 756 LINE SMOOTH",
"484 756 OFFCURVE",
"479 745 OFFCURVE",
"474 724 CURVE SMOOTH",
"469 704 OFFCURVE",
"139 49 OFFCURVE",
"132 26 CURVE SMOOTH",
"124 0 OFFCURVE",
"125 -24 OFFCURVE",
"144 -24 CURVE SMOOTH",
"205 -24 LINE SMOOTH",
"224 -24 OFFCURVE",
"235 -6 OFFCURVE",
"240 12 CURVE SMOOTH",
"245 30 OFFCURVE",
"572 720 OFFCURVE",
"577 731 CURVE SMOOTH",
"582 742 OFFCURVE",
"575 756 OFFCURVE",
"562 756 CURVE SMOOTH"
);
},
{
closed = 1;
nodes = (
"494 756 OFFCURVE",
"488 742 OFFCURVE",
"492 731 CURVE SMOOTH",
"496 720 OFFCURVE",
"825 30 OFFCURVE",
"829 12 CURVE SMOOTH",
"833 -6 OFFCURVE",
"845 -24 OFFCURVE",
"864 -24 CURVE SMOOTH",
"925 -24 LINE SMOOTH",
"944 -24 OFFCURVE",
"945 0 OFFCURVE",
"937 26 CURVE SMOOTH",
"930 49 OFFCURVE",
"601 704 OFFCURVE",
"595 724 CURVE SMOOTH",
"589 745 OFFCURVE",
"585 756 OFFCURVE",
"572 756 CURVE SMOOTH",
"507 756 LINE SMOOTH"
);
},
{
closed = 1;
nodes = (
"256 188 OFFCURVE",
"275 176 OFFCURVE",
"299 176 CURVE SMOOTH",
"781 176 LINE SMOOTH",
"805 176 OFFCURVE",
"824 188 OFFCURVE",
"824 204 CURVE SMOOTH",
"824 220 OFFCURVE",
"805 231 OFFCURVE",
"781 231 CURVE SMOOTH",
"299 231 LINE SMOOTH",
"275 231 OFFCURVE",
"256 220 OFFCURVE",
"256 204 CURVE SMOOTH"
);
}
);
width = 1000;
}
);
unicode = FF21;
},
{
color = 7;
glyphname = B.full;
lastChange = "2019-12-13 05:10:30 +0000";
layers = (
{
layerId = "47F7128E-F1A6-4572-9BDC-88462FF34A66";
paths = (
{
closed = 1;
nodes = (
"180 8 LINE SMOOTH",
"180 -11 OFFCURVE",
"195 -26 OFFCURVE",
"214 -26 CURVE SMOOTH",
"263 -26 LINE SMOOTH",
"282 -26 OFFCURVE",
"298 -11 OFFCURVE",
"298 8 CURVE SMOOTH",
"298 721 LINE SMOOTH",
"298 740 OFFCURVE",
"282 755 OFFCURVE",
"263 755 CURVE SMOOTH",
"214 755 LINE SMOOTH",
"195 755 OFFCURVE",
"180 740 OFFCURVE",
"180 721 CURVE SMOOTH"
);
},
{
closed = 1;
nodes = (
"360 756 OFFCURVE",
"267 756 OFFCURVE",
"257 756 CURVE SMOOTH",
"247 756 OFFCURVE",
"238 744 OFFCURVE",
"238 728 CURVE SMOOTH",
"238 712 OFFCURVE",
"269 699 OFFCURVE",
"355 699 CURVE SMOOTH",
"751 699 OFFCURVE",
"763 646 OFFCURVE",
"763 571 CURVE SMOOTH",
"763 496 OFFCURVE",
"737 413 OFFCURVE",
"349 413 CURVE SMOOTH",
"271 413 OFFCURVE",
"246 401 OFFCURVE",
"246 382 CURVE SMOOTH",
"246 363 OFFCURVE",
"253 339 OFFCURVE",
"348 339 CURVE SMOOTH",
"753 339 OFFCURVE",
"763 227 OFFCURVE",
"763 180 CURVE SMOOTH",
"763 98 OFFCURVE",
"740 16 OFFCURVE",
"337 16 CURVE SMOOTH",
"217 16 OFFCURVE",
"213 8 OFFCURVE",
"213 0 CURVE SMOOTH",
"213 -8 OFFCURVE",
"216 -27 OFFCURVE",
"335 -27 CURVE SMOOTH",
"714 -27 OFFCURVE",
"878 -20 OFFCURVE",
"878 183 CURVE SMOOTH",
"878 386 OFFCURVE",
"394 391 OFFCURVE",
"349 391 CURVE SMOOTH",
"304 391 OFFCURVE",
"303 368 OFFCURVE",
"348 368 CURVE SMOOTH",
"393 368 OFFCURVE",
"881 347 OFFCURVE",
"881 557 CURVE SMOOTH",
"881 760 OFFCURVE",
"727 756 OFFCURVE",
"402 756 CURVE"
);
}
);
width = 1000;
}
);
unicode = FF22;
},
{
color = 7;
glyphname = C.full;
lastChange = "2019-12-13 05:10:30 +0000";
layers = (
{
layerId = "47F7128E-F1A6-4572-9BDC-88462FF34A66";
paths = (
{
closed = 1;
nodes = (
"709 -37 OFFCURVE",
"840 47 OFFCURVE",
"840 129 CURVE SMOOTH",
"840 165 OFFCURVE",
"829 172 OFFCURVE",
"796 172 CURVE SMOOTH",
"774 172 OFFCURVE",
"726 168 OFFCURVE",
"726 129 CURVE SMOOTH",
"726 88 OFFCURVE",
"651 12 OFFCURVE",
"545 12 CURVE SMOOTH",
"358 12 OFFCURVE",
"215 106 OFFCURVE",
"215 341 CURVE SMOOTH",
"215 537 OFFCURVE",
"390 709 OFFCURVE",
"524 709 CURVE SMOOTH",
"625 709 OFFCURVE",
"729 575 OFFCURVE",
"729 539 CURVE SMOOTH",
"729 492 OFFCURVE",
"753 482 OFFCURVE",
"799 482 CURVE SMOOTH",
"834 482 OFFCURVE",
"854 489 OFFCURVE",
"854 520 CURVE SMOOTH",
"854 580 OFFCURVE",
"737 765 OFFCURVE",
"525 765 CURVE SMOOTH",
"277 765 OFFCURVE",
"105 556 OFFCURVE",
"105 321 CURVE SMOOTH",
"105 -6 OFFCURVE",
"366 -37 OFFCURVE",
"538 -37 CURVE SMOOTH"
);
}
);
width = 1000;
}
);
unicode = FF23;
},
{
color = 7;
glyphname = D.full;
lastChange = "2019-12-13 05:10:30 +0000";
layers = (
{
layerId = "47F7128E-F1A6-4572-9BDC-88462FF34A66";
paths = (
{
closed = 1;
nodes = (
"618 14 OFFCURVE",
"286 14 CURVE",
"319 0 LINE",
"319 734 LINE",
"273 714 LINE",
"598 714 OFFCURVE",
"776 588 OFFCURVE",
"776 366 CURVE SMOOTH",
"776 119 OFFCURVE"
);
},
{
closed = 1;
nodes = (
"209 -25 OFFCURVE",
"261 -25 CURVE SMOOTH",
"816 -25 OFFCURVE",
"885 88 OFFCURVE",
"885 366 CURVE SMOOTH",
"885 611 OFFCURVE",
"722 757 OFFCURVE",
"245 757 CURVE SMOOTH",
"213 757 OFFCURVE",
"199 741 OFFCURVE",
"199 721 CURVE SMOOTH",
"199 560 OFFCURVE",
"199 37 OFFCURVE",
"199 27 CURVE SMOOTH",
"199 -9 OFFCURVE"
);
}
);
width = 1000;
}
);
unicode = FF24;
},
{
color = 7;
glyphname = E.full;
lastChange = "2019-12-13 05:10:30 +0000";
layers = (
{
layerId = "47F7128E-F1A6-4572-9BDC-88462FF34A66";
paths = (
{
closed = 1;
nodes = (
"244 754 LINE SMOOTH",
"225 754 OFFCURVE",
"221 749 OFFCURVE",
"221 726 CURVE SMOOTH",
"221 12 LINE SMOOTH",
"221 -11 OFFCURVE",
"228 -27 OFFCURVE",
"249 -27 CURVE SMOOTH",
"792 -27 LINE SMOOTH",
"809 -27 OFFCURVE",
"818 -13 OFFCURVE",
"818 5 CURVE SMOOTH",
"818 23 OFFCURVE",
"805 32 OFFCURVE",
"792 32 CURVE SMOOTH",
"324 32 LINE",
"348 11 LINE",
"348 727 LINE",
"317 694 LINE",
"792 694 LINE SMOOTH",
"823 694 OFFCURVE",
"837 694 OFFCURVE",
"837 718 CURVE SMOOTH",
"837 742 OFFCURVE",
"826 754 OFFCURVE",
"792 754 CURVE SMOOTH"
);
},
{
closed = 1;
nodes = (
"289 368 OFFCURVE",
"304 356 OFFCURVE",
"323 356 CURVE SMOOTH",
"790 356 LINE SMOOTH",
"809 356 OFFCURVE",
"824 368 OFFCURVE",
"824 384 CURVE SMOOTH",
"824 400 OFFCURVE",
"809 412 OFFCURVE",
"790 412 CURVE SMOOTH",
"323 412 LINE SMOOTH",
"304 412 OFFCURVE",
"289 400 OFFCURVE",
"289 384 CURVE SMOOTH"
);
}
);
width = 1000;
}
);
unicode = FF25;
},
{
color = 7;
glyphname = F.full;
lastChange = "2019-12-13 05:10:30 +0000";
layers = (
{
layerId = "47F7128E-F1A6-4572-9BDC-88462FF34A66";
paths = (
{
closed = 1;
nodes = (
"224 754 LINE SMOOTH",
"205 754 OFFCURVE",
"201 749 OFFCURVE",
"201 726 CURVE SMOOTH",
"201 10 LINE SMOOTH",
"201 -12 OFFCURVE",
"208 -27 OFFCURVE",
"229 -27 CURVE SMOOTH",
"284 -27 LINE SMOOTH",
"303 -27 OFFCURVE",
"318 -13 OFFCURVE",
"318 10 CURVE SMOOTH",
"318 727 LINE",
"287 694 LINE",
"802 694 LINE SMOOTH",
"833 694 OFFCURVE",
"847 694 OFFCURVE",
"847 718 CURVE SMOOTH",
"847 742 OFFCURVE",
"836 754 OFFCURVE",
"802 754 CURVE SMOOTH"
);
},
{
closed = 1;
nodes = (
"269 368 OFFCURVE",
"284 356 OFFCURVE",
"303 356 CURVE SMOOTH",
"780 356 LINE SMOOTH",
"799 356 OFFCURVE",
"814 368 OFFCURVE",
"814 384 CURVE SMOOTH",
"814 400 OFFCURVE",
"799 412 OFFCURVE",
"780 412 CURVE SMOOTH",
"303 412 LINE SMOOTH",
"284 412 OFFCURVE",
"269 400 OFFCURVE",
"269 384 CURVE SMOOTH"
);
}
);
width = 1000;
}
);
unicode = FF26;
},
{
color = 7;
glyphname = G.full;
lastChange = "2019-12-13 05:10:30 +0000";
layers = (
{
layerId = "47F7128E-F1A6-4572-9BDC-88462FF34A66";
paths = (
{
closed = 1;
nodes = (
"517 295 LINE SMOOTH",
"498 295 OFFCURVE",
"483 283 OFFCURVE",
"483 266 CURVE SMOOTH",
"483 249 OFFCURVE",
"498 236 OFFCURVE",
"517 236 CURVE SMOOTH",
"758 236 LINE",
"758 124 OFFCURVE",
"626 30 OFFCURVE",
"519 30 CURVE SMOOTH",
"353 30 OFFCURVE",
"235 194 OFFCURVE",
"235 347 CURVE SMOOTH",
"235 510 OFFCURVE",
"310 698 OFFCURVE",
"511 698 CURVE SMOOTH",
"658 698 OFFCURVE",
"726 577 OFFCURVE",
"749 526 CURVE SMOOTH",
"757 508 OFFCURVE",
"764 495 OFFCURVE",
"781 495 CURVE SMOOTH",
"828 495 LINE SMOOTH",
"848 495 OFFCURVE",
"869 511 OFFCURVE",
"862 532 CURVE SMOOTH",
"833 618 OFFCURVE",
"691 752 OFFCURVE",
"513 752 CURVE SMOOTH",
"302 752 OFFCURVE",
"131 647 OFFCURVE",
"131 347 CURVE SMOOTH",
"131 133 OFFCURVE",
"292 -25 OFFCURVE",
"516 -25 CURVE SMOOTH",
"671 -25 OFFCURVE",
"869 64 OFFCURVE",
"869 266 CURVE SMOOTH",
"869 286 OFFCURVE",
"858 295 OFFCURVE",
"834 295 CURVE SMOOTH"
);
}
);
width = 1000;
}
);
unicode = FF27;
},
{
color = 7;
glyphname = H.full;
lastChange = "2019-12-13 05:10:30 +0000";
layers = (
{
layerId = "47F7128E-F1A6-4572-9BDC-88462FF34A66";
paths = (
{
closed = 1;
nodes = (
"216 759 LINE SMOOTH",
"202 759 OFFCURVE",
"189 744 OFFCURVE",
"189 721 CURVE SMOOTH",
"189 21 LINE SMOOTH",
"189 0 OFFCURVE",
"190 -30 OFFCURVE",
"209 -30 CURVE SMOOTH",
"278 -30 LINE SMOOTH",
"292 -30 OFFCURVE",
"305 -15 OFFCURVE",
"305 17 CURVE SMOOTH",
"305 728 LINE SMOOTH",
"305 750 OFFCURVE",
"303 759 OFFCURVE",
"281 759 CURVE SMOOTH"
);
},
{
closed = 1;
nodes = (
"736 759 LINE SMOOTH",
"722 759 OFFCURVE",
"709 744 OFFCURVE",
"709 721 CURVE SMOOTH",
"709 21 LINE SMOOTH",
"709 0 OFFCURVE",
"710 -30 OFFCURVE",
"729 -30 CURVE SMOOTH",
"798 -30 LINE SMOOTH",
"812 -30 OFFCURVE",
"825 -13 OFFCURVE",
"825 17 CURVE SMOOTH",
"825 728 LINE SMOOTH",
"825 750 OFFCURVE",
"823 759 OFFCURVE",
"801 759 CURVE SMOOTH"
);
},
{
closed = 1;
nodes = (
"248 327 OFFCURVE",
"263 315 OFFCURVE",
"282 315 CURVE SMOOTH",
"728 315 LINE SMOOTH",
"747 315 OFFCURVE",
"762 327 OFFCURVE",
"762 343 CURVE SMOOTH",
"762 359 OFFCURVE",
"747 371 OFFCURVE",
"728 371 CURVE SMOOTH",
"282 371 LINE SMOOTH",
"263 371 OFFCURVE",
"248 359 OFFCURVE",
"248 343 CURVE SMOOTH"
);
}
);
width = 1000;
}
);
unicode = FF28;
},
{
color = 7;
glyphname = I.full;
lastChange = "2019-12-13 05:10:30 +0000";
layers = (
{
layerId = "47F7128E-F1A6-4572-9BDC-88462FF34A66";
paths = (
{
closed = 1;
nodes = (
"438 753 LINE SMOOTH",
"381 753 OFFCURVE",
"376 750 OFFCURVE",
"376 726 CURVE SMOOTH",
"376 705 OFFCURVE",
"380 697 OFFCURVE",
"396 697 CURVE SMOOTH",
"412 697 OFFCURVE",
"421 697 OFFCURVE",
"431 697 CURVE SMOOTH",
"441 697 OFFCURVE",
"448 688 OFFCURVE",
"448 656 CURVE SMOOTH",
"448 624 OFFCURVE",
"448 94 OFFCURVE",
"448 69 CURVE SMOOTH",
"448 44 OFFCURVE",
"443 28 OFFCURVE",
"431 28 CURVE SMOOTH",
"419 28 OFFCURVE",
"404 28 OFFCURVE",
"391 28 CURVE SMOOTH",
"378 28 OFFCURVE",
"365 23 OFFCURVE",
"365 6 CURVE SMOOTH",
"365 -11 OFFCURVE",
"373 -21 OFFCURVE",
"388 -21 CURVE SMOOTH",
"535 -21 LINE",
"535 753 LINE"
);
},
{
closed = 1;
nodes = (
"465 -21 LINE",
"612 -21 LINE SMOOTH",
"627 -21 OFFCURVE",
"635 -11 OFFCURVE",
"635 6 CURVE SMOOTH",
"635 23 OFFCURVE",
"622 28 OFFCURVE",
"609 28 CURVE SMOOTH",
"596 28 OFFCURVE",
"581 28 OFFCURVE",
"569 28 CURVE SMOOTH",
"557 28 OFFCURVE",
"552 44 OFFCURVE",
"552 69 CURVE SMOOTH",
"552 94 OFFCURVE",
"552 624 OFFCURVE",
"552 656 CURVE SMOOTH",
"552 688 OFFCURVE",
"559 697 OFFCURVE",
"569 697 CURVE SMOOTH",
"579 697 OFFCURVE",
"588 697 OFFCURVE",
"604 697 CURVE SMOOTH",
"620 697 OFFCURVE",
"624 705 OFFCURVE",
"624 726 CURVE SMOOTH",
"624 750 OFFCURVE",
"619 753 OFFCURVE",
"562 753 CURVE SMOOTH",
"465 753 LINE"
);
}
);
width = 1000;
}
);
unicode = FF29;
},
{
color = 7;
glyphname = J.full;
lastChange = "2019-12-13 05:10:30 +0000";
layers = (
{
layerId = "47F7128E-F1A6-4572-9BDC-88462FF34A66";
paths = (
{
closed = 1;
nodes = (
"316 -28 OFFCURVE",
"490 -28 CURVE SMOOTH",
"637 -28 OFFCURVE",
"805 -7 OFFCURVE",
"805 203 CURVE SMOOTH",
"805 302 OFFCURVE",
"805 541 OFFCURVE",
"805 673 CURVE SMOOTH",
"805 723 OFFCURVE",
"797 746 OFFCURVE",
"779 746 CURVE SMOOTH",
"767 746 OFFCURVE",
"751 746 OFFCURVE",
"728 746 CURVE SMOOTH",
"701 746 OFFCURVE",
"686 746 OFFCURVE",
"686 711 CURVE SMOOTH",
"686 602 OFFCURVE",
"686 433 OFFCURVE",
"686 338 CURVE SMOOTH",
"686 98 OFFCURVE",
"630 24 OFFCURVE",
"465 24 CURVE SMOOTH",
"361 24 OFFCURVE",
"298 94 OFFCURVE",
"298 171 CURVE SMOOTH",
"298 217 OFFCURVE",
"287 232 OFFCURVE",
"236 225 CURVE SMOOTH",
"197 218 OFFCURVE",
"187 209 OFFCURVE",
"187 181 CURVE SMOOTH",
"187 39 OFFCURVE"
);
}
);
width = 1000;
}
);
unicode = FF2A;
},
{
color = 7;
glyphname = K.full;
lastChange = "2019-12-13 05:10:30 +0000";
layers = (
{
layerId = "47F7128E-F1A6-4572-9BDC-88462FF34A66";
paths = (
{
closed = 1;
nodes = (
"189 9 LINE SMOOTH",
"189 -10 OFFCURVE",
"203 -25 OFFCURVE",
"220 -25 CURVE SMOOTH",
"265 -25 LINE SMOOTH",
"283 -25 OFFCURVE",
"297 -10 OFFCURVE",
"297 9 CURVE SMOOTH",
"297 721 LINE SMOOTH",
"297 740 OFFCURVE",
"283 755 OFFCURVE",
"265 755 CURVE SMOOTH",
"220 755 LINE SMOOTH",
"203 755 OFFCURVE",
"189 740 OFFCURVE",
"189 721 CURVE SMOOTH"
);
},
{
closed = 1;
nodes = (
"813 685 OFFCURVE",
"765 685 OFFCURVE",
"747 685 CURVE SMOOTH",
"739 685 OFFCURVE",
"700 677 OFFCURVE",
"672 658 CURVE SMOOTH",
"654 646 OFFCURVE",
"308 415 OFFCURVE",
"284 399 CURVE",
"294 302 LINE",
"509 443 OFFCURVE",
"777 623 OFFCURVE",
"805 642 CURVE SMOOTH",
"833 661 OFFCURVE",
"866 685 OFFCURVE",
"840 685 CURVE"
);
},
{
closed = 1;
nodes = (
"858 -28 OFFCURVE",
"837 -3 OFFCURVE",
"819 17 CURVE SMOOTH",
"800 38 OFFCURVE",
"559 288 OFFCURVE",
"416 437 CURVE",
"334 390 LINE",
"350 373 OFFCURVE",
"680 25 OFFCURVE",
"692 11 CURVE SMOOTH",
"720 -22 OFFCURVE",
"731 -28 OFFCURVE",
"739 -28 CURVE SMOOTH",
"757 -28 OFFCURVE",
"805 -28 OFFCURVE",
"832 -28 CURVE"
);
}
);
width = 1000;
}
);
unicode = FF2B;
},
{
color = 7;
glyphname = L.full;
lastChange = "2019-12-13 05:10:30 +0000";
layers = (
{
layerId = "47F7128E-F1A6-4572-9BDC-88462FF34A66";
paths = (
{
closed = 1;
nodes = (
"301 753 OFFCURVE",
"265 753 OFFCURVE",
"245 753 CURVE SMOOTH",
"229 753 OFFCURVE",
"222 739 OFFCURVE",
"222 709 CURVE SMOOTH",
"222 683 OFFCURVE",
"222 60 OFFCURVE",
"222 30 CURVE SMOOTH",
"222 -3 OFFCURVE",
"234 -18 OFFCURVE",
"260 -18 CURVE SMOOTH",
"283 -18 OFFCURVE",
"785 -18 OFFCURVE",
"810 -18 CURVE SMOOTH",
"840 -18 OFFCURVE",
"854 -13 OFFCURVE",
"854 -1 CURVE SMOOTH",
"854 20 OFFCURVE",
"841 30 OFFCURVE",
"812 30 CURVE SMOOTH",
"781 30 OFFCURVE",
"402 30 OFFCURVE",
"374 30 CURVE SMOOTH",
"349 30 OFFCURVE",
"338 45 OFFCURVE",
"338 78 CURVE SMOOTH",
"338 109 OFFCURVE",
"338 682 OFFCURVE",
"338 712 CURVE SMOOTH",
"338 740 OFFCURVE",
"333 753 OFFCURVE",
"323 753 CURVE"
);
}
);
width = 1000;
}
);
unicode = FF2C;
},
{
color = 7;
glyphname = M.full;
lastChange = "2019-12-13 05:10:30 +0000";
layers = (
{
layerId = "47F7128E-F1A6-4572-9BDC-88462FF34A66";
paths = (
{
closed = 1;
nodes = (
"212 746 OFFCURVE",
"185 746 OFFCURVE",
"168 746 CURVE SMOOTH",
"147 746 OFFCURVE",
"138 735 OFFCURVE",
"138 710 CURVE SMOOTH",
"138 635 OFFCURVE",
"138 46 OFFCURVE",
"138 19 CURVE SMOOTH",
"138 -9 OFFCURVE",
"146 -20 OFFCURVE",
"162 -20 CURVE SMOOTH",
"180 -20 OFFCURVE",
"193 -20 OFFCURVE",
"208 -20 CURVE SMOOTH",
"223 -20 OFFCURVE",
"243 -3 OFFCURVE",
"243 24 CURVE SMOOTH",
"243 51 OFFCURVE",
"243 495 OFFCURVE",
"243 525 CURVE SMOOTH",
"243 555 OFFCURVE",
"261 556 OFFCURVE",
"305 467 CURVE SMOOTH",
"315 447 OFFCURVE",
"415 263 OFFCURVE",
"431 230 CURVE SMOOTH",
"441 210 OFFCURVE",
"453 191 OFFCURVE",
"464 191 CURVE SMOOTH",
"474 191 OFFCURVE",
"527 191 OFFCURVE",
"536 191 CURVE SMOOTH",
"545 191 OFFCURVE",
"550 210 OFFCURVE",
"529 252 CURVE SMOOTH",
"509 292 OFFCURVE",
"311 659 OFFCURVE",
"288 695 CURVE SMOOTH",
"268 726 OFFCURVE",
"252 746 OFFCURVE",
"237 746 CURVE"
);
},
{
closed = 1;
nodes = (
"747 746 OFFCURVE",
"731 726 OFFCURVE",
"711 695 CURVE SMOOTH",
"688 659 OFFCURVE",
"490 292 OFFCURVE",
"470 252 CURVE SMOOTH",
"449 210 OFFCURVE",
"454 191 OFFCURVE",
"463 191 CURVE SMOOTH",
"472 191 OFFCURVE",
"525 191 OFFCURVE",
"535 191 CURVE SMOOTH",
"546 191 OFFCURVE",
"558 210 OFFCURVE",
"568 230 CURVE SMOOTH",
"584 263 OFFCURVE",
"684 447 OFFCURVE",
"694 467 CURVE SMOOTH",
"738 556 OFFCURVE",
"756 555 OFFCURVE",
"756 525 CURVE SMOOTH",
"756 495 OFFCURVE",
"756 51 OFFCURVE",
"756 24 CURVE SMOOTH",
"756 -3 OFFCURVE",
"776 -20 OFFCURVE",
"791 -20 CURVE SMOOTH",
"806 -20 OFFCURVE",
"819 -20 OFFCURVE",
"837 -20 CURVE SMOOTH",
"853 -20 OFFCURVE",
"861 -9 OFFCURVE",
"861 19 CURVE SMOOTH",
"861 46 OFFCURVE",
"861 635 OFFCURVE",
"861 710 CURVE SMOOTH",
"861 735 OFFCURVE",
"852 746 OFFCURVE",
"831 746 CURVE SMOOTH",
"814 746 OFFCURVE",
"787 746 OFFCURVE",
"762 746 CURVE"
);
}
);
width = 1000;
}
);
unicode = FF2D;
},
{
color = 7;
glyphname = N.full;
lastChange = "2019-12-13 05:10:30 +0000";
layers = (
{
layerId = "47F7128E-F1A6-4572-9BDC-88462FF34A66";
paths = (
{
closed = 1;
nodes = (
"261 755 OFFCURVE",
"198 755 OFFCURVE",
"181 755 CURVE SMOOTH",
"164 755 OFFCURVE",
"161 723 OFFCURVE",
"161 703 CURVE SMOOTH",
"161 683 OFFCURVE",
"161 30 OFFCURVE",
"161 15 CURVE SMOOTH",
"161 0 OFFCURVE",
"167 -17 OFFCURVE",
"176 -17 CURVE SMOOTH",
"185 -17 OFFCURVE",
"242 -17 OFFCURVE",
"258 -17 CURVE SMOOTH",
"274 -17 OFFCURVE",
"282 -2 OFFCURVE",
"282 21 CURVE SMOOTH",
"282 44 OFFCURVE",
"282 530 OFFCURVE",
"282 555 CURVE SMOOTH",
"282 580 OFFCURVE",
"291 585 OFFCURVE",
"326 536 CURVE SMOOTH",
"361 486 OFFCURVE",
"695 21 OFFCURVE",
"710 0 CURVE SMOOTH",
"717 -10 OFFCURVE",
"731 -25 OFFCURVE",
"743 -25 CURVE SMOOTH",
"755 -25 OFFCURVE",
"806 -25 OFFCURVE",
"819 -25 CURVE SMOOTH",
"832 -25 OFFCURVE",
"837 -18 OFFCURVE",
"837 2 CURVE SMOOTH",
"837 22 OFFCURVE",
"837 692 OFFCURVE",
"837 713 CURVE SMOOTH",
"837 734 OFFCURVE",
"832 748 OFFCURVE",
"812 748 CURVE SMOOTH",
"792 748 OFFCURVE",
"756 748 OFFCURVE",
"740 748 CURVE SMOOTH",
"724 748 OFFCURVE",
"714 735 OFFCURVE",
"714 713 CURVE SMOOTH",
"714 691 OFFCURVE",
"718 201 OFFCURVE",
"718 177 CURVE SMOOTH",
"718 153 OFFCURVE",
"708 153 OFFCURVE",
"685 184 CURVE SMOOTH",
"627 261 OFFCURVE",
"353 691 OFFCURVE",
"337 713 CURVE SMOOTH",
"322 733 OFFCURVE",
"302 755 OFFCURVE",
"288 755 CURVE"
);
}
);
width = 1000;
}
);
unicode = FF2E;
},
{
color = 7;
glyphname = O.full;
lastChange = "2019-12-13 05:10:30 +0000";
layers = (
{
layerId = "47F7128E-F1A6-4572-9BDC-88462FF34A66";
paths = (
{
closed = 1;
nodes = (
"360 46 OFFCURVE",
"205 149 OFFCURVE",
"205 347 CURVE SMOOTH",
"205 514 OFFCURVE",
"325 688 OFFCURVE",
"489 688 CURVE SMOOTH",
"691 688 OFFCURVE",
"820 505 OFFCURVE",
"820 347 CURVE SMOOTH",
"820 130 OFFCURVE",
"648 46 OFFCURVE",
"495 46 CURVE SMOOTH"
);
},
{
closed = 1;
nodes = (
"766 -25 OFFCURVE",
"919 63 OFFCURVE",
"919 347 CURVE SMOOTH",
"919 595 OFFCURVE",
"730 752 OFFCURVE",
"483 752 CURVE SMOOTH",
"213 752 OFFCURVE",
"101 518 OFFCURVE",
"101 347 CURVE SMOOTH",
"101 121 OFFCURVE",
"265 -25 OFFCURVE",
"437 -25 CURVE SMOOTH"
);
}
);
width = 1000;
}
);
unicode = FF2F;
},
{
color = 7;
glyphname = P.full;
lastChange = "2019-12-13 05:10:30 +0000";
layers = (
{
layerId = "47F7128E-F1A6-4572-9BDC-88462FF34A66";
paths = (
{
closed = 1;
nodes = (
"284 697 LINE",
"297 697 OFFCURVE",
"453 697 OFFCURVE",
"497 697 CURVE SMOOTH",
"682 697 OFFCURVE",
"778 659 OFFCURVE",
"778 525 CURVE SMOOTH",
"778 403 OFFCURVE",
"695 340 OFFCURVE",
"494 340 CURVE SMOOTH",
"278 340 LINE",
"278 292 LINE",
"303 292 OFFCURVE",
"455 292 OFFCURVE",
"494 292 CURVE SMOOTH",
"712 292 OFFCURVE",
"898 299 OFFCURVE",
"898 529 CURVE SMOOTH",
"898 710 OFFCURVE",
"762 743 OFFCURVE",
"496 743 CURVE SMOOTH",
"278 743 LINE",
"239 743 LINE SMOOTH",
"220 743 OFFCURVE",
"205 727 OFFCURVE",
"205 708 CURVE SMOOTH",
"205 4 LINE SMOOTH",
"205 -15 OFFCURVE",
"220 -30 OFFCURVE",
"239 -30 CURVE SMOOTH",
"278 -30 LINE SMOOTH",
"297 -30 OFFCURVE",
"312 -15 OFFCURVE",
"312 4 CURVE SMOOTH",
"312 712 LINE"
);
}
);
width = 1000;
}
);
unicode = FF30;
},
{
color = 7;
glyphname = Q.full;
lastChange = "2019-12-13 05:10:30 +0000";
layers = (
{
components = (
{
name = O.full;
}
);
layerId = "47F7128E-F1A6-4572-9BDC-88462FF34A66";
paths = (
{
closed = 1;
nodes = (
"576 265 OFFCURVE",
"550 265 OFFCURVE",
"534 265 CURVE SMOOTH",
"519 265 OFFCURVE",
"516 234 OFFCURVE",
"532 216 CURVE SMOOTH",
"547 199 OFFCURVE",
"761 -55 OFFCURVE",
"777 -71 CURVE SMOOTH",
"793 -87 OFFCURVE",
"800 -95 OFFCURVE",
"815 -95 CURVE SMOOTH",
"831 -95 OFFCURVE",
"858 -95 OFFCURVE",
"870 -95 CURVE SMOOTH",
"882 -95 OFFCURVE",
"872 -57 OFFCURVE",
"853 -38 CURVE SMOOTH",
"834 -19 OFFCURVE",
"646 219 OFFCURVE",
"632 238 CURVE SMOOTH",
"618 257 OFFCURVE",
"612 265 OFFCURVE",
"594 265 CURVE"
);
}
);
width = 1000;
}
);
unicode = FF31;
},
{
color = 7;
glyphname = R.full;
lastChange = "2019-12-13 05:10:30 +0000";
layers = (
{
components = (
{
name = P.full;
}
);
layerId = "47F7128E-F1A6-4572-9BDC-88462FF34A66";
paths = (
{
closed = 1;
nodes = (
"607 330 OFFCURVE",
"581 330 OFFCURVE",
"565 330 CURVE SMOOTH",
"550 330 OFFCURVE",
"542 300 OFFCURVE",
"554 283 CURVE SMOOTH",
"566 266 OFFCURVE",
"725 35 OFFCURVE",
"748 4 CURVE SMOOTH",
"760 -12 OFFCURVE",
"767 -19 OFFCURVE",
"783 -19 CURVE SMOOTH",
"798 -19 OFFCURVE",
"825 -19 OFFCURVE",
"838 -19 CURVE SMOOTH",
"849 -19 OFFCURVE",
"848 9 OFFCURVE",
"831 35 CURVE SMOOTH",
"814 61 OFFCURVE",
"668 286 OFFCURVE",
"659 304 CURVE SMOOTH",
"650 322 OFFCURVE",
"643 330 OFFCURVE",
"625 330 CURVE"
);
}
);
width = 1000;
}
);
unicode = FF32;
},
{
color = 7;
glyphname = S.full;
lastChange = "2019-12-13 05:10:30 +0000";
layers = (
{
layerId = "47F7128E-F1A6-4572-9BDC-88462FF34A66";
paths = (
{
closed = 1;
nodes = (
"245 756 OFFCURVE",
"198 621 OFFCURVE",
"198 552 CURVE SMOOTH",
"198 444 OFFCURVE",
"233 382 OFFCURVE",
"530 340 CURVE SMOOTH",
"677 319 OFFCURVE",
"749 247 OFFCURVE",
"749 183 CURVE SMOOTH",
"749 89 OFFCURVE",
"650 16 OFFCURVE",
"541 16 CURVE SMOOTH",
"431 16 OFFCURVE",
"314 76 OFFCURVE",
"314 190 CURVE SMOOTH",
"314 222 OFFCURVE",
"298 222 OFFCURVE",
"269 219 CURVE SMOOTH",
"250 217 OFFCURVE",
"227 213 OFFCURVE",
"210 211 CURVE SMOOTH",
"195 209 OFFCURVE",
"188 200 OFFCURVE",
"188 179 CURVE SMOOTH",
"188 50 OFFCURVE",
"301 -31 OFFCURVE",
"538 -31 CURVE SMOOTH",
"727 -31 OFFCURVE",
"852 8 OFFCURVE",
"852 188 CURVE SMOOTH",
"852 331 OFFCURVE",
"668 367 OFFCURVE",
"551 384 CURVE SMOOTH",
"403 406 OFFCURVE",
"310 473 OFFCURVE",
"310 556 CURVE SMOOTH",
"310 665 OFFCURVE",
"429 697 OFFCURVE",
"519 697 CURVE SMOOTH",
"580 697 OFFCURVE",
"618 678 OFFCURVE",
"637 666 CURVE SMOOTH",
"657 654 OFFCURVE",
"701 611 OFFCURVE",
"735 607 CURVE SMOOTH",
"751 605 OFFCURVE",
"784 601 OFFCURVE",
"810 601 CURVE SMOOTH",
"833 601 OFFCURVE",
"839 614 OFFCURVE",
"839 625 CURVE SMOOTH",
"839 636 OFFCURVE",
"689 756 OFFCURVE",
"514 756 CURVE"
);
}
);
width = 1000;
}
);
unicode = FF33;
},
{
color = 7;
glyphname = T.full;
lastChange = "2019-12-13 05:10:30 +0000";
layers = (
{
layerId = "47F7128E-F1A6-4572-9BDC-88462FF34A66";
paths = (
{
closed = 1;
nodes = (
"135 703 OFFCURVE",
"150 688 OFFCURVE",
"169 688 CURVE SMOOTH",
"848 688 LINE SMOOTH",
"867 688 OFFCURVE",
"882 703 OFFCURVE",
"882 722 CURVE SMOOTH",
"882 741 OFFCURVE",
"867 755 OFFCURVE",
"848 755 CURVE SMOOTH",
"169 755 LINE SMOOTH",
"150 755 OFFCURVE",
"135 741 OFFCURVE",
"135 722 CURVE SMOOTH"
);
},
{
closed = 1;
nodes = (
"453 14 LINE SMOOTH",
"453 -5 OFFCURVE",
"468 -20 OFFCURVE",
"487 -20 CURVE SMOOTH",
"530 -20 LINE SMOOTH",
"549 -20 OFFCURVE",
"564 -5 OFFCURVE",
"564 14 CURVE SMOOTH",
"564 695 LINE SMOOTH",
"564 714 OFFCURVE",
"549 729 OFFCURVE",
"530 729 CURVE SMOOTH",
"487 729 LINE SMOOTH",
"468 729 OFFCURVE",
"453 714 OFFCURVE",
"453 695 CURVE SMOOTH"
);
}
);
width = 1000;
}
);
unicode = FF34;
},
{
color = 7;
glyphname = U.full;
lastChange = "2019-12-13 05:10:30 +0000";
layers = (
{
layerId = "47F7128E-F1A6-4572-9BDC-88462FF34A66";
paths = (
{
closed = 1;
nodes = (
"765 745 LINE SMOOTH",
"747 745 OFFCURVE",
"724 742 OFFCURVE",
"724 719 CURVE SMOOTH",
"724 131 LINE SMOOTH",
"724 40 OFFCURVE",
"585 36 OFFCURVE",
"544 36 CURVE SMOOTH",
"497 36 OFFCURVE",
"322 55 OFFCURVE",
"322 142 CURVE SMOOTH",
"322 719 LINE SMOOTH",
"322 742 OFFCURVE",
"299 745 OFFCURVE",
"281 745 CURVE SMOOTH",
"238 745 LINE SMOOTH",
"227 745 OFFCURVE",
"207 739 OFFCURVE",
"207 714 CURVE SMOOTH",
"207 153 LINE SMOOTH",
"207 -7 OFFCURVE",
"420 -23 OFFCURVE",
"544 -23 CURVE SMOOTH",
"672 -23 OFFCURVE",
"839 2 OFFCURVE",
"839 135 CURVE SMOOTH",
"839 714 LINE SMOOTH",
"839 739 OFFCURVE",
"819 745 OFFCURVE",
"808 745 CURVE SMOOTH"
);
}
);
width = 1000;
}
);
unicode = FF35;
},
{
color = 7;
glyphname = V.full;
lastChange = "2019-12-13 05:10:30 +0000";
layers = (
{
layerId = "47F7128E-F1A6-4572-9BDC-88462FF34A66";
paths = (
{
closed = 1;
nodes = (
"189 760 OFFCURVE",
"188 744 OFFCURVE",
"203 703 CURVE SMOOTH",
"214 673 OFFCURVE",
"447 78 OFFCURVE",
"470 33 CURVE SMOOTH",
"493 -12 OFFCURVE",
"506 -22 OFFCURVE",
"528 -22 CURVE SMOOTH",
"550 -22 OFFCURVE",
"556 -22 OFFCURVE",
"585 -22 CURVE SMOOTH",
"612 -22 OFFCURVE",
"631 16 OFFCURVE",
"641 50 CURVE SMOOTH",
"651 84 OFFCURVE",
"857 663 OFFCURVE",
"873 710 CURVE SMOOTH",
"889 757 OFFCURVE",
"876 760 OFFCURVE",
"856 760 CURVE SMOOTH",
"836 760 OFFCURVE",
"829 760 OFFCURVE",
"811 760 CURVE SMOOTH",
"782 760 OFFCURVE",
"768 749 OFFCURVE",
"758 720 CURVE SMOOTH",
"528 84 LINE",
"564 84 LINE",
"315 719 LINE SMOOTH",
"304 747 OFFCURVE",
"292 760 OFFCURVE",
"275 760 CURVE SMOOTH",
"220 760 LINE SMOOTH"
);
}
);
width = 1000;
}
);
unicode = FF36;
},
{
color = 7;
glyphname = W.full;
lastChange = "2019-12-13 05:10:30 +0000";
layers = (
{
layerId = "47F7128E-F1A6-4572-9BDC-88462FF34A66";
paths = (
{
closed = 1;
nodes = (
"535 554 LINE",
"536 580 OFFCURVE",
"535 594 OFFCURVE",
"516 594 CURVE SMOOTH",
"488 594 OFFCURVE",
"476 594 OFFCURVE",
"474 594 CURVE SMOOTH",
"458 594 OFFCURVE",
"453 584 OFFCURVE",
"443 554 CURVE SMOOTH",
"293 100 LINE",
"318 100 LINE",
"288 292 OFFCURVE",
"211 697 OFFCURVE",
"206 719 CURVE SMOOTH",
"201 742 OFFCURVE",
"199 760 OFFCURVE",
"179 760 CURVE SMOOTH",
"119 760 LINE",
"96 758 OFFCURVE",
"94 744 OFFCURVE",
"102 703 CURVE SMOOTH",
"108 673 OFFCURVE",
"207 78 OFFCURVE",
"220 33 CURVE SMOOTH",
"233 -12 OFFCURVE",
"243 -23 OFFCURVE",
"260 -22 CURVE SMOOTH",
"276 -21 OFFCURVE",
"318 -19 OFFCURVE",
"338 -19 CURVE SMOOTH",
"357 -19 OFFCURVE",
"372 20 OFFCURVE",
"382 53 CURVE SMOOTH",
"386 66 OFFCURVE",
"406 133 OFFCURVE",
"430 214 CURVE"
);
},
{
closed = 1;
nodes = (
"595 133 OFFCURVE",
"615 66 OFFCURVE",
"619 53 CURVE SMOOTH",
"629 20 OFFCURVE",
"644 -19 OFFCURVE",
"663 -19 CURVE SMOOTH",
"683 -19 OFFCURVE",
"725 -21 OFFCURVE",
"741 -22 CURVE SMOOTH",
"758 -23 OFFCURVE",
"768 -12 OFFCURVE",
"781 33 CURVE SMOOTH",
"794 78 OFFCURVE",
"893 673 OFFCURVE",
"899 703 CURVE SMOOTH",
"907 744 OFFCURVE",
"905 758 OFFCURVE",
"882 760 CURVE",
"822 760 LINE SMOOTH",
"802 760 OFFCURVE",
"801 742 OFFCURVE",
"795 719 CURVE SMOOTH",
"789 697 OFFCURVE",
"713 292 OFFCURVE",
"683 100 CURVE",
"708 100 LINE",
"558 554 LINE SMOOTH",
"548 584 OFFCURVE",
"543 594 OFFCURVE",
"527 594 CURVE SMOOTH",
"525 594 OFFCURVE",
"513 594 OFFCURVE",
"485 594 CURVE SMOOTH",
"466 594 OFFCURVE",
"465 580 OFFCURVE",
"466 554 CURVE",
"571 214 LINE"
);
}
);
width = 1000;
}
);
unicode = FF37;
},
{
color = 7;
glyphname = X.full;
lastChange = "2019-12-13 05:10:30 +0000";
layers = (
{
layerId = "47F7128E-F1A6-4572-9BDC-88462FF34A66";
paths = (
{
closed = 1;
nodes = (
"182 753 LINE SMOOTH",
"158 753 OFFCURVE",
"154 738 OFFCURVE",
"171 715 CURVE SMOOTH",
"709 15 LINE SMOOTH",
"723 -3 OFFCURVE",
"738 -11 OFFCURVE",
"757 -11 CURVE SMOOTH",
"812 -11 LINE SMOOTH",
"836 -11 OFFCURVE",
"840 4 OFFCURVE",
"823 27 CURVE SMOOTH",
"287 727 LINE SMOOTH",
"274 745 OFFCURVE",
"258 753 OFFCURVE",
"239 753 CURVE SMOOTH"
);
},
{
closed = 1;
nodes = (
"736 753 OFFCURVE",
"720 745 OFFCURVE",
"707 727 CURVE SMOOTH",
"171 27 LINE SMOOTH",
"154 4 OFFCURVE",
"158 -11 OFFCURVE",
"182 -11 CURVE SMOOTH",
"237 -11 LINE SMOOTH",
"256 -11 OFFCURVE",
"271 -3 OFFCURVE",
"285 15 CURVE SMOOTH",
"823 715 LINE SMOOTH",
"840 738 OFFCURVE",
"836 753 OFFCURVE",
"812 753 CURVE SMOOTH",
"755 753 LINE SMOOTH"
);
}
);
width = 1000;
}
);
unicode = FF38;
},
{
color = 7;
glyphname = Y.full;
lastChange = "2019-12-13 05:10:30 +0000";
layers = (
{
layerId = "47F7128E-F1A6-4572-9BDC-88462FF34A66";
paths = (
{
closed = 1;
nodes = (
"191 760 LINE SMOOTH",
"167 760 OFFCURVE",
"162 745 OFFCURVE",
"179 722 CURVE SMOOTH",
"480 329 LINE SMOOTH",
"493 312 OFFCURVE",
"505 303 OFFCURVE",
"519 303 CURVE SMOOTH",
"562 303 LINE SMOOTH",
"581 303 OFFCURVE",
"583 318 OFFCURVE",
"568 341 CURVE SMOOTH",
"295 734 LINE SMOOTH",
"283 752 OFFCURVE",
"267 760 OFFCURVE",
"248 760 CURVE SMOOTH"
);
},
{
closed = 1;
nodes = (
"478 16 LINE SMOOTH",
"478 -8 OFFCURVE",
"490 -21 OFFCURVE",
"511 -21 CURVE SMOOTH",
"549 -21 LINE SMOOTH",
"570 -21 OFFCURVE",
"582 -8 OFFCURVE",
"582 16 CURVE SMOOTH",
"582 352 LINE SMOOTH",
"582 375 OFFCURVE",
"570 389 OFFCURVE",
"549 389 CURVE SMOOTH",
"511 389 LINE SMOOTH",
"490 389 OFFCURVE",
"478 375 OFFCURVE",
"478 352 CURVE SMOOTH"
);
},
{
closed = 1;
nodes = (
"789 760 OFFCURVE",
"773 752 OFFCURVE",
"761 734 CURVE SMOOTH",
"488 341 LINE SMOOTH",
"472 318 OFFCURVE",
"475 303 OFFCURVE",
"494 303 CURVE SMOOTH",
"537 303 LINE SMOOTH",
"551 303 OFFCURVE",
"563 312 OFFCURVE",
"576 329 CURVE SMOOTH",
"877 722 LINE SMOOTH",
"894 745 OFFCURVE",
"889 760 OFFCURVE",
"865 760 CURVE SMOOTH",
"808 760 LINE SMOOTH"
);
}
);
width = 1000;
}
);
unicode = FF39;
},
{
color = 7;
glyphname = Z.full;
lastChange = "2019-12-13 05:10:30 +0000";
layers = (
{
layerId = "47F7128E-F1A6-4572-9BDC-88462FF34A66";
paths = (
{
closed = 1;
nodes = (
"829 746 OFFCURVE",
"247 746 OFFCURVE",
"209 746 CURVE SMOOTH",
"183 746 OFFCURVE",
"173 737 OFFCURVE",
"173 720 CURVE SMOOTH",
"173 703 OFFCURVE",
"179 687 OFFCURVE",
"209 687 CURVE SMOOTH",
"239 687 OFFCURVE",
"707 683 OFFCURVE",
"726 683 CURVE SMOOTH",
"745 683 OFFCURVE",
"749 683 OFFCURVE",
"724 655 CURVE SMOOTH",
"698 627 OFFCURVE",
"209 46 OFFCURVE",
"187 23 CURVE SMOOTH",
"164 0 OFFCURVE",
"164 -25 OFFCURVE",
"192 -25 CURVE SMOOTH",
"220 -25 OFFCURVE",
"764 -24 OFFCURVE",
"794 -24 CURVE SMOOTH",
"824 -24 OFFCURVE",
"840 -17 OFFCURVE",
"840 9 CURVE SMOOTH",
"840 35 OFFCURVE",
"824 52 OFFCURVE",
"798 52 CURVE SMOOTH",
"772 52 OFFCURVE",
"385 52 OFFCURVE",
"358 52 CURVE SMOOTH",
"331 52 OFFCURVE",
"356 74 OFFCURVE",
"379 101 CURVE SMOOTH",
"413 140 OFFCURVE",
"856 652 OFFCURVE",
"889 688 CURVE SMOOTH",
"921 724 OFFCURVE",
"911 746 OFFCURVE",
"879 746 CURVE"
);
}
);
width = 1000;
}
);
unicode = FF3A;
},
{
color = 5;
glyphname = a;
lastChange = "2019-12-11 06:40:48 +0000";
layers = (
{
layerId = "47F7128E-F1A6-4572-9BDC-88462FF34A66";
paths = (
{
closed = 1;
nodes = (
"100 538 OFFCURVE",
"21 396 OFFCURVE",
"21 250 CURVE SMOOTH",
"21 104 OFFCURVE",
"40 -26 OFFCURVE",
"148 -26 CURVE SMOOTH",
"218 -26 OFFCURVE",
"275 23 OFFCURVE",
"287 35 CURVE SMOOTH",
"299 47 OFFCURVE",
"304 49 OFFCURVE",
"311 32 CURVE SMOOTH",
"318 15 OFFCURVE",
"322 3 OFFCURVE",
"326 -5 CURVE SMOOTH",
"330 -13 OFFCURVE",
"340 -28 OFFCURVE",
"353 -28 CURVE SMOOTH",
"366 -28 OFFCURVE",
"409 -28 OFFCURVE",
"426 -28 CURVE SMOOTH",
"443 -28 OFFCURVE",
"444 -5 OFFCURVE",
"437 18 CURVE SMOOTH",
"430 41 OFFCURVE",
"408 131 OFFCURVE",
"408 195 CURVE SMOOTH",
"408 259 OFFCURVE",
"414 300 OFFCURVE",
"418 318 CURVE SMOOTH",
"422 336 OFFCURVE",
"416 369 OFFCURVE",
"408 391 CURVE SMOOTH",
"391 438 OFFCURVE",
"337 538 OFFCURVE",
"218 538 CURVE"
);
},
{
closed = 1;
nodes = (
"244 471 OFFCURVE",
"293 438 OFFCURVE",
"293 355 CURVE SMOOTH",
"293 239 OFFCURVE",
"244 50 OFFCURVE",
"200 50 CURVE SMOOTH",
"156 50 OFFCURVE",
"135 124 OFFCURVE",
"135 245 CURVE SMOOTH",
"135 366 OFFCURVE",
"168 471 OFFCURVE",
"217 471 CURVE"
);
}
);
userData = {
assembly = "SVTCA[0]\011/* SetFreedomAndProjectionVectorToAxis */
IUP[0]\011/* InterpolateUntPts */
IUP[1]\011/* InterpolateUntPts */";
};
width = 474;
}
);
note = uni0061;
unicode = 0061;
},
{
color = 5;
glyphname = ae;
lastChange = "2019-12-11 06:40:48 +0000";
layers = (
{
components = (
{
name = e;
transform = "{1, 0, 0, 1, 271, 0}";
}
);
layerId = "47F7128E-F1A6-4572-9BDC-88462FF34A66";
paths = (
{
closed = 1;
nodes = (
"423 439 LINE",
"423 477 OFFCURVE",
"363 538 OFFCURVE",
"218 538 CURVE",
"100 538 OFFCURVE",
"21 416 OFFCURVE",
"21 270 CURVE SMOOTH",
"21 124 OFFCURVE",
"66 -16 OFFCURVE",
"188 -16 CURVE SMOOTH",
"324 -16 OFFCURVE",
"412 169 OFFCURVE",
"412 356 CURVE",
"308 332 LINE",
"308 169 OFFCURVE",
"234 75 OFFCURVE",
"191 75 CURVE SMOOTH",
"147 75 OFFCURVE",
"135 144 OFFCURVE",
"135 265 CURVE SMOOTH",
"135 386 OFFCURVE",
"168 471 OFFCURVE",
"217 471 CURVE",
"281 471 OFFCURVE",
"324 401 OFFCURVE",
"324 371 CURVE"
);
}
);
width = 771;
}
);
leftMetricsKey = a;
rightMetricsKey = e;
unicode = 00E6;
},
{
color = 5;
glyphname = b;
lastChange = "2019-12-11 06:40:48 +0000";
layers = (
{
layerId = "47F7128E-F1A6-4572-9BDC-88462FF34A66";
paths = (
{
closed = 1;
nodes = (
"45 11 LINE SMOOTH",
"45 -8 OFFCURVE",
"60 -23 OFFCURVE",
"79 -23 CURVE SMOOTH",
"124 -23 LINE SMOOTH",
"143 -23 OFFCURVE",
"158 -8 OFFCURVE",
"158 11 CURVE SMOOTH",
"158 728 LINE SMOOTH",
"158 747 OFFCURVE",
"143 762 OFFCURVE",
"124 762 CURVE SMOOTH",
"79 762 LINE SMOOTH",
"60 762 OFFCURVE",
"45 747 OFFCURVE",
"45 728 CURVE SMOOTH"
);
},
{
closed = 1;
nodes = (
"209 505 OFFCURVE",
"93 493 OFFCURVE",
"93 280 CURVE SMOOTH",
"93 112 OFFCURVE",
"120 -9 OFFCURVE",
"260 -9 CURVE SMOOTH",
"403 -9 OFFCURVE",
"448 80 OFFCURVE",
"448 260 CURVE SMOOTH",
"448 440 OFFCURVE",
"364 505 OFFCURVE",
"268 505 CURVE SMOOTH"
);
},
{
closed = 1;
nodes = (
"320 449 OFFCURVE",
"340 365 OFFCURVE",
"340 247 CURVE SMOOTH",
"340 129 OFFCURVE",
"308 46 OFFCURVE",
"269 46 CURVE SMOOTH",
"230 46 OFFCURVE",
"154 114 OFFCURVE",
"154 244 CURVE SMOOTH",
"154 374 OFFCURVE",
"238 449 OFFCURVE",
"268 449 CURVE"
);
}
);
userData = {
assembly = "SVTCA[0]\011/* SetFreedomAndProjectionVectorToAxis */
IUP[0]\011/* InterpolateUntPts */
IUP[1]\011/* InterpolateUntPts */";
};
width = 481;
}
);
note = uni0062;
unicode = 0062;
},
{
color = 5;
glyphname = c;
lastChange = "2019-12-11 06:40:48 +0000";
layers = (
{
layerId = "47F7128E-F1A6-4572-9BDC-88462FF34A66";
paths = (
{
closed = 1;
nodes = (
"136 526 OFFCURVE",
"41 462 OFFCURVE",
"41 249 CURVE SMOOTH",
"41 36 OFFCURVE",
"146 -27 OFFCURVE",
"230 -27 CURVE SMOOTH",
"356 -27 OFFCURVE",
"461 21 OFFCURVE",
"461 133 CURVE SMOOTH",
"461 182 OFFCURVE",
"441 193 OFFCURVE",
"428 193 CURVE SMOOTH",
"415 193 OFFCURVE",
"388 193 OFFCURVE",
"372 193 CURVE SMOOTH",
"356 193 OFFCURVE",
"338 185 OFFCURVE",
"338 160 CURVE SMOOTH",
"338 82 OFFCURVE",
"321 38 OFFCURVE",
"271 38 CURVE SMOOTH",
"221 38 OFFCURVE",
"148 101 OFFCURVE",
"148 258 CURVE SMOOTH",
"148 415 OFFCURVE",
"209 472 OFFCURVE",
"264 472 CURVE SMOOTH",
"304 472 OFFCURVE",
"334 415 OFFCURVE",
"334 371 CURVE SMOOTH",
"334 340 OFFCURVE",
"364 330 OFFCURVE",
"374 330 CURVE SMOOTH",
"384 330 OFFCURVE",
"417 330 OFFCURVE",
"428 330 CURVE SMOOTH",
"439 330 OFFCURVE",
"453 345 OFFCURVE",
"453 378 CURVE SMOOTH",
"453 409 OFFCURVE",
"406 526 OFFCURVE",
"255 526 CURVE"
);
}
);
userData = {
assembly = "SVTCA[0]\011/* SetFreedomAndProjectionVectorToAxis */
IUP[0]\011/* InterpolateUntPts */
IUP[1]\011/* InterpolateUntPts */";
};
width = 500;
}
);
note = uni0063;
unicode = 0063;
},
{
color = 5;
glyphname = d;
lastChange = "2019-12-11 06:40:48 +0000";
layers = (
{
layerId = "47F7128E-F1A6-4572-9BDC-88462FF34A66";
paths = (
{
closed = 1;
nodes = (
"436 751 OFFCURVE",
"421 766 OFFCURVE",
"402 766 CURVE SMOOTH",
"357 766 LINE SMOOTH",
"338 766 OFFCURVE",
"323 751 OFFCURVE",
"323 732 CURVE SMOOTH",
"323 15 LINE SMOOTH",
"323 -4 OFFCURVE",
"338 -19 OFFCURVE",
"357 -19 CURVE SMOOTH",
"402 -19 LINE SMOOTH",
"421 -19 OFFCURVE",
"436 -4 OFFCURVE",
"436 15 CURVE SMOOTH",
"436 732 LINE SMOOTH"
);
},
{
closed = 1;
nodes = (
"135 525 OFFCURVE",
"33 444 OFFCURVE",
"33 264 CURVE SMOOTH",
"33 84 OFFCURVE",
"90 -18 OFFCURVE",
"221 -18 CURVE SMOOTH",
"361 -18 OFFCURVE",
"408 116 OFFCURVE",
"408 284 CURVE SMOOTH",
"408 497 OFFCURVE",
"320 525 OFFCURVE",
"231 525 CURVE SMOOTH"
);
},
{
closed = 1;
nodes = (
"271 469 OFFCURVE",
"327 378 OFFCURVE",
"327 248 CURVE SMOOTH",
"327 118 OFFCURVE",
"261 37 OFFCURVE",
"222 37 CURVE SMOOTH",
"183 37 OFFCURVE",
"141 133 OFFCURVE",
"141 251 CURVE SMOOTH",
"141 369 OFFCURVE",
"189 469 OFFCURVE",
"241 469 CURVE"
);
}
);
userData = {
assembly = "SVTCA[0]\011/* SetFreedomAndProjectionVectorToAxis */
IUP[0]\011/* InterpolateUntPts */
IUP[1]\011/* InterpolateUntPts */";
};
width = 490;
}
);
note = uni0064;
unicode = 0064;
},
{
color = 5;
glyphname = eth;
lastChange = "2019-12-11 06:40:48 +0000";
layers = (
{
layerId = "47F7128E-F1A6-4572-9BDC-88462FF34A66";
paths = (
{
closed = 1;
nodes = (
"166 756 OFFCURVE",
"140 756 OFFCURVE",
"121 756 CURVE SMOOTH",
"102 756 OFFCURVE",
"78 755 OFFCURVE",
"78 740 CURVE SMOOTH",
"78 714 OFFCURVE",
"91 713 OFFCURVE",
"116 713 CURVE SMOOTH",
"211 713 OFFCURVE",
"337 516 OFFCURVE",
"337 295 CURVE SMOOTH",
"337 104 OFFCURVE",
"292 56 OFFCURVE",
"256 56 CURVE SMOOTH",
"220 56 OFFCURVE",
"176 103 OFFCURVE",
"176 183 CURVE SMOOTH",
"176 263 OFFCURVE",
"170 399 OFFCURVE",
"270 399 CURVE SMOOTH",
"352 399 OFFCURVE",
"367 338 OFFCURVE",
"367 194 CURVE",
"436 194 LINE",
"436 340 OFFCURVE",
"366 462 OFFCURVE",
"272 462 CURVE SMOOTH",
"107 462 OFFCURVE",
"54 349 OFFCURVE",
"54 183 CURVE SMOOTH",
"54 39 OFFCURVE",
"122 -7 OFFCURVE",
"258 -7 CURVE SMOOTH",
"420 -7 OFFCURVE",
"471 56 OFFCURVE",
"471 197 CURVE SMOOTH",
"471 640 OFFCURVE",
"334 756 OFFCURVE",
"199 756 CURVE"
);
},
{
closed = 1;
nodes = (
"431 739 OFFCURVE",
"401 739 OFFCURVE",
"387 739 CURVE SMOOTH",
"373 739 OFFCURVE",
"352 733 OFFCURVE",
"337 722 CURVE SMOOTH",
"322 711 OFFCURVE",
"84 544 OFFCURVE",
"70 534 CURVE SMOOTH",
"56 524 OFFCURVE",
"55 493 OFFCURVE",
"69 493 CURVE SMOOTH",
"83 493 OFFCURVE",
"102 493 OFFCURVE",
"110 493 CURVE SMOOTH",
"118 493 OFFCURVE",
"140 502 OFFCURVE",
"155 514 CURVE SMOOTH",
"170 526 OFFCURVE",
"426 682 OFFCURVE",
"449 697 CURVE SMOOTH",
"472 712 OFFCURVE",
"474 739 OFFCURVE",
"453 739 CURVE"
);
}
);
width = 500;
}
);
unicode = 00F0;
},
{
color = 5;
glyphname = e;
lastChange = "2019-12-11 06:40:48 +0000";
layers = (
{
layerId = "47F7128E-F1A6-4572-9BDC-88462FF34A66";
paths = (
{
closed = 1;
nodes = (
"130 532 OFFCURVE",
"23 449 OFFCURVE",
"23 253 CURVE SMOOTH",
"23 57 OFFCURVE",
"63 -29 OFFCURVE",
"256 -29 CURVE SMOOTH",
"449 -29 OFFCURVE",
"454 52 OFFCURVE",
"454 95 CURVE SMOOTH",
"454 112 OFFCURVE",
"448 130 OFFCURVE",
"433 130 CURVE SMOOTH",
"418 130 OFFCURVE",
"378 130 OFFCURVE",
"364 130 CURVE SMOOTH",
"350 130 OFFCURVE",
"333 113 OFFCURVE",
"333 100 CURVE SMOOTH",
"333 87 OFFCURVE",
"305 25 OFFCURVE",
"259 25 CURVE SMOOTH",
"213 25 OFFCURVE",
"145 89 OFFCURVE",
"145 237 CURVE SMOOTH",
"145 385 OFFCURVE",
"204 466 OFFCURVE",
"244 466 CURVE SMOOTH",
"284 466 OFFCURVE",
"328 343 OFFCURVE",
"328 291 CURVE",
"349 314 LINE",
"130 314 LINE",
"130 256 LINE",
"225.99 256 OFFCURVE",
"396 256 OFFCURVE",
"418 256 CURVE SMOOTH",
"440 256 OFFCURVE",
"458 266 OFFCURVE",
"458 305 CURVE SMOOTH",
"458 388 OFFCURVE",
"361 532 OFFCURVE",
"244 532 CURVE"
);
}
);
userData = {
assembly = "SVTCA[0]\011/* SetFreedomAndProjectionVectorToAxis */
IUP[0]\011/* InterpolateUntPts */
IUP[1]\011/* InterpolateUntPts */";
};
width = 500;
}
);
note = uni0065;
unicode = 0065;
},
{
color = 5;
glyphname = f;
lastChange = "2019-12-11 06:40:48 +0000";
layers = (
{
layerId = "47F7128E-F1A6-4572-9BDC-88462FF34A66";
paths = (
{
closed = 1;
nodes = (
"21 466 OFFCURVE",
"36 455 OFFCURVE",
"55 455 CURVE SMOOTH",
"403 455 LINE SMOOTH",
"422 455 OFFCURVE",
"437 467 OFFCURVE",
"437 482 CURVE SMOOTH",
"437 497 OFFCURVE",
"422 509 OFFCURVE",
"403 509 CURVE SMOOTH",
"55 509 LINE SMOOTH",
"36 509 OFFCURVE",
"21 497 OFFCURVE",
"21 482 CURVE SMOOTH"
);
},
{
closed = 1;
nodes = (
"160 755 OFFCURVE",
"128 712 OFFCURVE",
"128 638 CURVE SMOOTH",
"128 564 OFFCURVE",
"128 41 OFFCURVE",
"128 14 CURVE SMOOTH",
"128 -13 OFFCURVE",
"143 -26 OFFCURVE",
"160 -26 CURVE SMOOTH",
"177 -26 OFFCURVE",
"201 -26 OFFCURVE",
"218 -26 CURVE SMOOTH",
"235 -26 OFFCURVE",
"241 -11 OFFCURVE",
"241 15 CURVE SMOOTH",
"241 41 OFFCURVE",
"241 619 OFFCURVE",
"241 641 CURVE SMOOTH",
"241 663 OFFCURVE",
"250 681 OFFCURVE",
"264 681 CURVE SMOOTH",
"278 681 OFFCURVE",
"300 642 OFFCURVE",
"308 622 CURVE SMOOTH",
"316 602 OFFCURVE",
"328 591 OFFCURVE",
"343 591 CURVE",
"358 591 OFFCURVE",
"387 591 OFFCURVE",
"394 591 CURVE SMOOTH",
"401 591 OFFCURVE",
"410 606 OFFCURVE",
"410 626 CURVE SMOOTH",
"410 674 OFFCURVE",
"333 755 OFFCURVE",
"252 755 CURVE"
);
}
);
userData = {
assembly = "SVTCA[0]\011/* SetFreedomAndProjectionVectorToAxis */
IUP[0]\011/* InterpolateUntPts */
IUP[1]\011/* InterpolateUntPts */";
};
width = 458;
}
);
note = uni0066;
unicode = 0066;
},
{
color = 5;
glyphname = g;
lastChange = "2019-12-11 06:40:48 +0000";
layers = (
{
layerId = "47F7128E-F1A6-4572-9BDC-88462FF34A66";
paths = (
{
closed = 1;
nodes = (
"133 525 OFFCURVE",
"43 467 OFFCURVE",
"43 306 CURVE SMOOTH",
"43 145 OFFCURVE",
"104 66 OFFCURVE",
"243 66 CURVE SMOOTH",
"393 66 OFFCURVE",
"443 174 OFFCURVE",
"443 324 CURVE SMOOTH",
"443 514 OFFCURVE",
"330 525 OFFCURVE",
"235 525 CURVE SMOOTH"
);
},
{
closed = 1;
nodes = (
"278 467 OFFCURVE",
"357 403 OFFCURVE",
"357 293 CURVE SMOOTH",
"357 183 OFFCURVE",
"286 124 OFFCURVE",
"245 124 CURVE SMOOTH",
"203 124 OFFCURVE",
"158 194 OFFCURVE",
"158 296 CURVE SMOOTH",
"158 396 OFFCURVE",
"190 467 OFFCURVE",
"246 467 CURVE"
);
},
{
closed = 1;
nodes = (
"427 534 CURVE SMOOTH",
"402 534 OFFCURVE",
"380 534 OFFCURVE",
"366 534 CURVE SMOOTH",
"352 534 OFFCURVE",
"336 525 OFFCURVE",
"336 492 CURVE SMOOTH",
"336 459 OFFCURVE",
"336 78 OFFCURVE",
"336 39 CURVE SMOOTH",
"336 0 OFFCURVE",
"300 -52 OFFCURVE",
"272 -52 CURVE SMOOTH",
"244 -52 OFFCURVE",
"200 -18 OFFCURVE",
"188 -4 CURVE SMOOTH",
"176 10 OFFCURVE",
"152 12 OFFCURVE",
"138 7 CURVE SMOOTH",
"125 2 OFFCURVE",
"98 -9 OFFCURVE",
"81 -15 CURVE SMOOTH",
"70 -19 OFFCURVE",
"75 -40 OFFCURVE",
"87 -52 CURVE SMOOTH",
"101 -65 OFFCURVE",
"152 -111 OFFCURVE",
"256 -111 CURVE SMOOTH",
"374 -111 OFFCURVE",
"449 -53 OFFCURVE",
"449 58 CURVE SMOOTH",
"449 169 OFFCURVE",
"449 466 OFFCURVE",
"449 492 CURVE SMOOTH",
"449 523 OFFCURVE",
"447 534 OFFCURVE"
);
}
);
userData = {
assembly = "SVTCA[0]\011/* SetFreedomAndProjectionVectorToAxis */
IUP[0]\011/* InterpolateUntPts */
IUP[1]\011/* InterpolateUntPts */";
};
width = 500;
}
);
note = uni0067;
unicode = 0067;
},
{
color = 5;
glyphname = h;
lastChange = "2019-12-11 06:40:48 +0000";
layers = (
{
layerId = "47F7128E-F1A6-4572-9BDC-88462FF34A66";
paths = (
{
closed = 1;
nodes = (
"60 9 LINE SMOOTH",
"60 -10 OFFCURVE",
"75 -25 OFFCURVE",
"94 -25 CURVE SMOOTH",
"157 -25 LINE SMOOTH",
"176 -25 OFFCURVE",
"191 -10 OFFCURVE",
"191 9 CURVE SMOOTH",
"191 726 LINE SMOOTH",
"191 745 OFFCURVE",
"176 760 OFFCURVE",
"157 760 CURVE SMOOTH",
"94 760 LINE SMOOTH",
"75 760 OFFCURVE",
"60 745 OFFCURVE",
"60 726 CURVE SMOOTH"
);
},
{
closed = 1;
nodes = (
"148 504 OFFCURVE",
"80 399 OFFCURVE",
"80 250 CURVE",
"185 157 LINE",
"185 265 OFFCURVE",
"212 435 OFFCURVE",
"282 435 CURVE SMOOTH",
"324 435 OFFCURVE",
"332 298 OFFCURVE",
"332 30 CURVE SMOOTH",
"332 -14 OFFCURVE",
"339 -31 OFFCURVE",
"356 -31 CURVE SMOOTH",
"373 -31 OFFCURVE",
"419 -31 OFFCURVE",
"431 -31 CURVE SMOOTH",
"443 -31 OFFCURVE",
"453 -25 OFFCURVE",
"453 0 CURVE SMOOTH",
"453 25 OFFCURVE",
"453 179 OFFCURVE",
"453 241 CURVE SMOOTH",
"453 430 OFFCURVE",
"371 504 OFFCURVE",
"287 504 CURVE"
);
}
);
userData = {
assembly = "SVTCA[0]\011/* SetFreedomAndProjectionVectorToAxis */
IUP[0]\011/* InterpolateUntPts */
IUP[1]\011/* InterpolateUntPts */";
};
width = 500;
}
);
note = uni0068;
unicode = 0068;
},
{
color = 5;
glyphname = i;
lastChange = "2019-12-11 06:40:48 +0000";
layers = (
{
layerId = "47F7128E-F1A6-4572-9BDC-88462FF34A66";
paths = (
{
closed = 1;
nodes = (
"85 666 LINE SMOOTH",
"85 647 OFFCURVE",
"100 632 OFFCURVE",
"119 632 CURVE SMOOTH",
"185 632 LINE SMOOTH",
"204 632 OFFCURVE",
"219 647 OFFCURVE",
"219 666 CURVE SMOOTH",
"219 727 LINE SMOOTH",
"219 746 OFFCURVE",
"204 761 OFFCURVE",
"185 761 CURVE SMOOTH",
"119 761 LINE SMOOTH",
"100 761 OFFCURVE",
"85 746 OFFCURVE",
"85 727 CURVE SMOOTH"
);
},
{
closed = 1;
nodes = (
"92 12 LINE SMOOTH",
"92 -7 OFFCURVE",
"107 -22 OFFCURVE",
"126 -22 CURVE SMOOTH",
"179 -22 LINE SMOOTH",
"198 -22 OFFCURVE",
"213 -7 OFFCURVE",
"213 12 CURVE SMOOTH",
"213 487 LINE SMOOTH",
"213 506 OFFCURVE",
"198 521 OFFCURVE",
"179 521 CURVE SMOOTH",
"126 521 LINE SMOOTH",
"107 521 OFFCURVE",
"92 506 OFFCURVE",
"92 487 CURVE SMOOTH"
);
}
);
userData = {
assembly = "NPUSHB[ ]\011/* 9 values pushed */
58 124 43 42 41 36 4 35 17 
CALL[ ]\011/* CallFunction */
SVTCA[0]\011/* SetFreedomAndProjectionVectorToAxis */
IUP[0]\011/* InterpolateUntPts */
IUP[1]\011/* InterpolateUntPts */";
};
width = 322;
}
);
note = uni0069;
unicode = 0069;
},
{
color = 5;
glyphname = idotless;
lastChange = "2019-12-11 06:40:48 +0000";
layers = (
{
layerId = "47F7128E-F1A6-4572-9BDC-88462FF34A66";
paths = (
{
closed = 1;
nodes = (
"96 7 LINE SMOOTH",
"96 -12 OFFCURVE",
"111 -27 OFFCURVE",
"130 -27 CURVE SMOOTH",
"184 -27 LINE SMOOTH",
"203 -27 OFFCURVE",
"218 -12 OFFCURVE",
"218 7 CURVE SMOOTH",
"218 495 LINE SMOOTH",
"218 514 OFFCURVE",
"203 529 OFFCURVE",
"184 529 CURVE SMOOTH",
"130 529 LINE SMOOTH",
"111 529 OFFCURVE",
"96 514 OFFCURVE",
"96 495 CURVE SMOOTH"
);
}
);
width = 315;
}
);
unicode = 0131;
},
{
color = 5;
glyphname = j;
lastChange = "2019-12-11 06:40:48 +0000";
layers = (
{
layerId = "47F7128E-F1A6-4572-9BDC-88462FF34A66";
paths = (
{
closed = 1;
nodes = (
"221 656 LINE SMOOTH",
"221 637 OFFCURVE",
"236 622 OFFCURVE",
"255 622 CURVE SMOOTH",
"324 622 LINE SMOOTH",
"343 622 OFFCURVE",
"358 637 OFFCURVE",
"358 656 CURVE SMOOTH",
"358 708 LINE SMOOTH",
"358 727 OFFCURVE",
"343 742 OFFCURVE",
"324 742 CURVE SMOOTH",
"255 742 LINE SMOOTH",
"236 742 OFFCURVE",
"221 727 OFFCURVE",
"221 708 CURVE SMOOTH"
);
},
{
closed = 1;
nodes = (
"298 521 OFFCURVE",
"271 521 OFFCURVE",
"260 521 CURVE SMOOTH",
"249 521 OFFCURVE",
"240 512 OFFCURVE",
"240 492 CURVE SMOOTH",
"240 472 OFFCURVE",
"240 84 OFFCURVE",
"240 17 CURVE SMOOTH",
"240 -50 OFFCURVE",
"212 -62 OFFCURVE",
"183 -62 CURVE SMOOTH",
"155 -62 OFFCURVE",
"116 -32 OFFCURVE",
"116 49 CURVE SMOOTH",
"116 69 OFFCURVE",
"113 87 OFFCURVE",
"93 87 CURVE SMOOTH",
"73 87 OFFCURVE",
"39 87 OFFCURVE",
"24 87 CURVE SMOOTH",
"9 87 OFFCURVE",
"9 55 OFFCURVE",
"9 13 CURVE SMOOTH",
"9 -29 OFFCURVE",
"73 -116 OFFCURVE",
"191 -116 CURVE SMOOTH",
"309 -116 OFFCURVE",
"345 -76 OFFCURVE",
"345 5 CURVE SMOOTH",
"345 86 OFFCURVE",
"345 486 OFFCURVE",
"345 507 CURVE SMOOTH",
"345 518 OFFCURVE",
"338 521 OFFCURVE",
"326 521 CURVE"
);
}
);
userData = {
assembly = "PUSHB[ ]\011/* 4 values pushed */
54 120 38 0 
CALL[ ]\011/* CallFunction */
SVTCA[0]\011/* SetFreedomAndProjectionVectorToAxis */
IUP[0]\011/* InterpolateUntPts */
IUP[1]\011/* InterpolateUntPts */";
};
width = 459;
}
);
note = uni006A;
unicode = 006A;
},
{
color = 5;
glyphname = k;
lastChange = "2019-12-11 06:40:48 +0000";
layers = (
{
layerId = "47F7128E-F1A6-4572-9BDC-88462FF34A66";
paths = (
{
closed = 1;
nodes = (
"49 9 LINE SMOOTH",
"49 -10 OFFCURVE",
"63 -25 OFFCURVE",
"80 -25 CURVE SMOOTH",
"125 -25 LINE SMOOTH",
"143 -25 OFFCURVE",
"157 -10 OFFCURVE",
"157 9 CURVE SMOOTH",
"157 721 LINE SMOOTH",
"157 740 OFFCURVE",
"143 755 OFFCURVE",
"125 755 CURVE SMOOTH",
"80 755 LINE SMOOTH",
"63 755 OFFCURVE",
"49 740 OFFCURVE",
"49 721 CURVE SMOOTH"
);
},
{
closed = 1;
nodes = (
"428 505 OFFCURVE",
"380 505 OFFCURVE",
"362 505 CURVE SMOOTH",
"354 505 OFFCURVE",
"347 498 OFFCURVE",
"326 468 CURVE SMOOTH",
"317 455 OFFCURVE",
"153 235 OFFCURVE",
"141 219 CURVE",
"141 49 LINE",
"245 190 OFFCURVE",
"441 443 OFFCURVE",
"454 462 CURVE SMOOTH",
"467 481 OFFCURVE",
"481 505 OFFCURVE",
"455 505 CURVE"
);
},
{
closed = 1;
nodes = (
"476 -22 OFFCURVE",
"462 -3 OFFCURVE",
"448 13 CURVE SMOOTH",
"434 29 OFFCURVE",
"293 152 OFFCURVE",
"186 267 CURVE",
"186 128 LINE",
"198 115 OFFCURVE",
"287 39 OFFCURVE",
"313 8 CURVE SMOOTH",
"334 -17 OFFCURVE",
"345 -22 OFFCURVE",
"353 -22 CURVE SMOOTH",
"372 -22 OFFCURVE",
"421 -22 OFFCURVE",
"449 -22 CURVE"
);
}
);
userData = {
assembly = "SVTCA[0]\011/* SetFreedomAndProjectionVectorToAxis */
IUP[0]\011/* InterpolateUntPts */
IUP[1]\011/* InterpolateUntPts */";
};
width = 500;
}
);
note = uni006B;
unicode = 006B;
},
{
color = 5;
glyphname = l;
lastChange = "2019-12-11 06:40:48 +0000";
layers = (
{
layerId = "47F7128E-F1A6-4572-9BDC-88462FF34A66";
paths = (
{
closed = 1;
nodes = (
"99 15 LINE SMOOTH",
"99 -4 OFFCURVE",
"116 -19 OFFCURVE",
"137 -19 CURVE SMOOTH",
"177 -19 LINE SMOOTH",
"198 -19 OFFCURVE",
"215 -4 OFFCURVE",
"215 15 CURVE SMOOTH",
"215 726 LINE SMOOTH",
"215 745 OFFCURVE",
"198 760 OFFCURVE",
"177 760 CURVE SMOOTH",
"137 760 LINE SMOOTH",
"116 760 OFFCURVE",
"99 745 OFFCURVE",
"99 726 CURVE SMOOTH"
);
}
);
userData = {
assembly = "PUSHB[ ]\011/* 7 values pushed */
40 39 38 37 104 11 3 
CALL[ ]\011/* CallFunction */
SVTCA[0]\011/* SetFreedomAndProjectionVectorToAxis */
IUP[0]\011/* InterpolateUntPts */
IUP[1]\011/* InterpolateUntPts */";
};
width = 314;
}
);
note = uni006C;
unicode = 006C;
},
{
color = 5;
glyphname = m;
lastChange = "2019-12-11 06:40:48 +0000";
layers = (
{
layerId = "47F7128E-F1A6-4572-9BDC-88462FF34A66";
paths = (
{
closed = 1;
nodes = (
"30 9 LINE SMOOTH",
"30 -10 OFFCURVE",
"45 -25 OFFCURVE",
"64 -25 CURVE SMOOTH",
"127 -25 LINE SMOOTH",
"146 -25 OFFCURVE",
"161 -10 OFFCURVE",
"161 9 CURVE SMOOTH",
"161 499 LINE SMOOTH",
"161 518 OFFCURVE",
"146 533 OFFCURVE",
"127 533 CURVE SMOOTH",
"64 533 LINE SMOOTH",
"45 533 OFFCURVE",
"30 518 OFFCURVE",
"30 499 CURVE SMOOTH"
);
},
{
closed = 1;
nodes = (
"78 504 OFFCURVE",
"50 399 OFFCURVE",
"50 250 CURVE",
"155 157 LINE",
"155 364 OFFCURVE",
"167 435 OFFCURVE",
"202 435 CURVE SMOOTH",
"223 435 OFFCURVE",
"232 319 OFFCURVE",
"232 30 CURVE SMOOTH",
"232 -14 OFFCURVE",
"239 -31 OFFCURVE",
"256 -31 CURVE SMOOTH",
"273 -31 OFFCURVE",
"319 -31 OFFCURVE",
"331 -31 CURVE SMOOTH",
"343 -31 OFFCURVE",
"353 -25 OFFCURVE",
"353 0 CURVE SMOOTH",
"353 25 OFFCURVE",
"353 179 OFFCURVE",
"353 241 CURVE SMOOTH",
"353 430 OFFCURVE",
"301 504 OFFCURVE",
"217 504 CURVE"
);
},
{
closed = 1;
nodes = (
"289 504 OFFCURVE",
"242 399 OFFCURVE",
"242 250 CURVE",
"347 157 LINE",
"347 364 OFFCURVE",
"378 435 OFFCURVE",
"413 435 CURVE SMOOTH",
"434 435 OFFCURVE",
"443 319 OFFCURVE",
"443 30 CURVE SMOOTH",
"443 -14 OFFCURVE",
"450 -31 OFFCURVE",
"467 -31 CURVE SMOOTH",
"484 -31 OFFCURVE",
"530 -31 OFFCURVE",
"542 -31 CURVE SMOOTH",
"554 -31 OFFCURVE",
"564 -25 OFFCURVE",
"564 0 CURVE SMOOTH",
"564 25 OFFCURVE",
"564 179 OFFCURVE",
"564 241 CURVE SMOOTH",
"564 430 OFFCURVE",
"512 504 OFFCURVE",
"428 504 CURVE"
);
}
);
userData = {
assembly = "SVTCA[0]\011/* SetFreedomAndProjectionVectorToAxis */
IUP[0]\011/* InterpolateUntPts */
IUP[1]\011/* InterpolateUntPts */";
};
width = 605;
}
);
note = uni006D;
unicode = 006D;
},
{
color = 5;
glyphname = n;
lastChange = "2019-12-11 06:40:48 +0000";
layers = (
{
layerId = "47F7128E-F1A6-4572-9BDC-88462FF34A66";
paths = (
{
closed = 1;
nodes = (
"33 9 LINE SMOOTH",
"33 -10 OFFCURVE",
"48 -25 OFFCURVE",
"67 -25 CURVE SMOOTH",
"130 -25 LINE SMOOTH",
"149 -25 OFFCURVE",
"164 -10 OFFCURVE",
"164 9 CURVE SMOOTH",
"164 499 LINE SMOOTH",
"164 518 OFFCURVE",
"149 533 OFFCURVE",
"130 533 CURVE SMOOTH",
"67 533 LINE SMOOTH",
"48 533 OFFCURVE",
"33 518 OFFCURVE",
"33 499 CURVE SMOOTH"
);
},
{
closed = 1;
nodes = (
"98 504 OFFCURVE",
"53 399 OFFCURVE",
"53 250 CURVE",
"158 157 LINE",
"158 364 OFFCURVE",
"207 435 OFFCURVE",
"265 435 CURVE SMOOTH",
"334 435 OFFCURVE",
"335 319 OFFCURVE",
"335 30 CURVE SMOOTH",
"335 -14 OFFCURVE",
"342 -31 OFFCURVE",
"359 -31 CURVE SMOOTH",
"376 -31 OFFCURVE",
"422 -31 OFFCURVE",
"434 -31 CURVE SMOOTH",
"446 -31 OFFCURVE",
"456 -25 OFFCURVE",
"456 0 CURVE SMOOTH",
"456 25 OFFCURVE",
"456 179 OFFCURVE",
"456 241 CURVE SMOOTH",
"456 430 OFFCURVE",
"379 504 OFFCURVE",
"280 504 CURVE"
);
}
);
userData = {
assembly = "SVTCA[0]\011/* SetFreedomAndProjectionVectorToAxis */
IUP[0]\011/* InterpolateUntPts */
IUP[1]\011/* InterpolateUntPts */";
};
width = 489;
}
);
note = uni006E;
unicode = 006E;
},
{
color = 5;
glyphname = o;
lastChange = "2019-12-11 06:40:48 +0000";
layers = (
{
layerId = "47F7128E-F1A6-4572-9BDC-88462FF34A66";
paths = (
{
closed = 1;
nodes = (
"123 529 OFFCURVE",
"38 425 OFFCURVE",
"38 260 CURVE SMOOTH",
"38 95 OFFCURVE",
"78 -33 OFFCURVE",
"248 -33 CURVE SMOOTH",
"418 -33 OFFCURVE",
"460 105 OFFCURVE",
"460 243 CURVE SMOOTH",
"460 381 OFFCURVE",
"389 529 OFFCURVE",
"260 529 CURVE"
);
},
{
closed = 1;
nodes = (
"309 450 OFFCURVE",
"348 331 OFFCURVE",
"348 261 CURVE SMOOTH",
"348 191 OFFCURVE",
"327 37 OFFCURVE",
"264 37 CURVE SMOOTH",
"201 37 OFFCURVE",
"157 129 OFFCURVE",
"157 250 CURVE SMOOTH",
"157 371 OFFCURVE",
"216 450 OFFCURVE",
"262 450 CURVE"
);
}
);
userData = {
assembly = "SVTCA[0]\011/* SetFreedomAndProjectionVectorToAxis */
PUSHB[ ]\011/* 4 values pushed */
50 81 57 0 
CALL[ ]\011/* CallFunction */
IUP[0]\011/* InterpolateUntPts */
IUP[1]\011/* InterpolateUntPts */";
};
width = 500;
}
);
note = uni006F;
unicode = 006F;
},
{
color = 5;
glyphname = oslash;
lastChange = "2019-12-11 06:40:48 +0000";
layers = (
{
components = (
{
name = o;
}
);
layerId = "47F7128E-F1A6-4572-9BDC-88462FF34A66";
paths = (
{
closed = 1;
nodes = (
"388 629 OFFCURVE",
"361 629 OFFCURVE",
"349 629 CURVE SMOOTH",
"337 629 OFFCURVE",
"317 613 OFFCURVE",
"311 593 CURVE SMOOTH",
"305 573 OFFCURVE",
"101 -42 OFFCURVE",
"96 -56 CURVE SMOOTH",
"91 -70 OFFCURVE",
"88 -105 OFFCURVE",
"105 -105 CURVE SMOOTH",
"122 -105 OFFCURVE",
"143 -105 OFFCURVE",
"153 -105 CURVE SMOOTH",
"163 -105 OFFCURVE",
"180 -94 OFFCURVE",
"192 -67 CURVE SMOOTH",
"204 -40 OFFCURVE",
"406 545 OFFCURVE",
"415 567 CURVE SMOOTH",
"424 589 OFFCURVE",
"432 629 OFFCURVE",
"413 629 CURVE"
);
}
);
width = 500;
}
);
leftMetricsKey = o;
rightMetricsKey = o;
unicode = 00F8;
},
{
color = 5;
glyphname = p;
lastChange = "2019-12-11 06:40:48 +0000";
layers = (
{
layerId = "47F7128E-F1A6-4572-9BDC-88462FF34A66";
paths = (
{
closed = 1;
nodes = (
"123 509 OFFCURVE",
"68 425 OFFCURVE",
"68 260 CURVE SMOOTH",
"68 95 OFFCURVE",
"149 37 OFFCURVE",
"248 37 CURVE SMOOTH",
"418 37 OFFCURVE",
"460 105 OFFCURVE",
"460 243 CURVE SMOOTH",
"460 381 OFFCURVE",
"389 509 OFFCURVE",
"260 509 CURVE SMOOTH"
);
},
{
closed = 1;
nodes = (
"309 450 OFFCURVE",
"348 371 OFFCURVE",
"348 261 CURVE SMOOTH",
"348 191 OFFCURVE",
"327 88 OFFCURVE",
"264 88 CURVE SMOOTH",
"201 88 OFFCURVE",
"165 129 OFFCURVE",
"165 250 CURVE SMOOTH",
"165 392 OFFCURVE",
"188 450 OFFCURVE",
"262 450 CURVE SMOOTH"
);
},
{
closed = 1;
nodes = (
"50 -83 LINE SMOOTH",
"50 -102 OFFCURVE",
"65 -117 OFFCURVE",
"84 -117 CURVE SMOOTH",
"135 -117 LINE SMOOTH",
"154 -117 OFFCURVE",
"169 -102 OFFCURVE",
"169 -83 CURVE SMOOTH",
"169 500 LINE SMOOTH",
"169 519 OFFCURVE",
"154 534 OFFCURVE",
"135 534 CURVE SMOOTH",
"84 534 LINE SMOOTH",
"65 534 OFFCURVE",
"50 519 OFFCURVE",
"50 500 CURVE SMOOTH"
);
}
);
userData = {
assembly = "SVTCA[0]\011/* SetFreedomAndProjectionVectorToAxis */
IUP[0]\011/* InterpolateUntPts */
IUP[1]\011/* InterpolateUntPts */";
};
width = 493;
}
);
note = uni0070;
unicode = 0070;
},
{
color = 5;
glyphname = thorn;
lastChange = "2019-12-11 06:40:48 +0000";
layers = (
{
layerId = "47F7128E-F1A6-4572-9BDC-88462FF34A66";
paths = (
{
closed = 1;
nodes = (
"72 -53 LINE SMOOTH",
"72 -72 OFFCURVE",
"87 -87 OFFCURVE",
"106 -87 CURVE SMOOTH",
"150 -87 LINE SMOOTH",
"169 -87 OFFCURVE",
"184 -72 OFFCURVE",
"184 -53 CURVE SMOOTH",
"184 677 LINE SMOOTH",
"184 696 OFFCURVE",
"169 711 OFFCURVE",
"150 711 CURVE SMOOTH",
"106 711 LINE SMOOTH",
"87 711 OFFCURVE",
"72 696 OFFCURVE",
"72 677 CURVE SMOOTH"
);
},
{
closed = 1;
nodes = (
"216 525 OFFCURVE",
"100 513 OFFCURVE",
"100 300 CURVE SMOOTH",
"100 132 OFFCURVE",
"127 11 OFFCURVE",
"267 11 CURVE SMOOTH",
"410 11 OFFCURVE",
"455 100 OFFCURVE",
"455 280 CURVE SMOOTH",
"455 460 OFFCURVE",
"371 525 OFFCURVE",
"275 525 CURVE SMOOTH"
);
},
{
closed = 1;
nodes = (
"327 469 OFFCURVE",
"347 385 OFFCURVE",
"347 267 CURVE SMOOTH",
"347 149 OFFCURVE",
"315 66 OFFCURVE",
"276 66 CURVE SMOOTH",
"237 66 OFFCURVE",
"161 134 OFFCURVE",
"161 264 CURVE SMOOTH",
"161 394 OFFCURVE",
"245 469 OFFCURVE",
"275 469 CURVE"
);
}
);
width = 488;
}
);
unicode = 00FE;
},
{
color = 5;
glyphname = q;
lastChange = "2019-12-11 06:40:48 +0000";
layers = (
{
layerId = "47F7128E-F1A6-4572-9BDC-88462FF34A66";
paths = (
{
closed = 1;
nodes = (
"104 509 OFFCURVE",
"33 381 OFFCURVE",
"33 243 CURVE SMOOTH",
"33 105 OFFCURVE",
"96 37 OFFCURVE",
"245 37 CURVE SMOOTH",
"344 37 OFFCURVE",
"425 95 OFFCURVE",
"425 260 CURVE SMOOTH",
"425 425 OFFCURVE",
"370 509 OFFCURVE",
"233 509 CURVE SMOOTH"
);
},
{
closed = 1;
nodes = (
"325 450 OFFCURVE",
"328 392 OFFCURVE",
"328 250 CURVE SMOOTH",
"328 129 OFFCURVE",
"312 88 OFFCURVE",
"249 88 CURVE SMOOTH",
"186 88 OFFCURVE",
"145 191 OFFCURVE",
"145 261 CURVE SMOOTH",
"145 371 OFFCURVE",
"204 450 OFFCURVE",
"251 450 CURVE SMOOTH"
);
},
{
closed = 1;
nodes = (
"443 519 OFFCURVE",
"428 534 OFFCURVE",
"409 534 CURVE SMOOTH",
"358 534 LINE SMOOTH",
"339 534 OFFCURVE",
"324 519 OFFCURVE",
"324 500 CURVE SMOOTH",
"324 -83 LINE SMOOTH",
"324 -102 OFFCURVE",
"339 -117 OFFCURVE",
"358 -117 CURVE SMOOTH",
"409 -117 LINE SMOOTH",
"428 -117 OFFCURVE",
"443 -102 OFFCURVE",
"443 -83 CURVE SMOOTH",
"443 500 LINE SMOOTH"
);
}
);
userData = {
assembly = "SVTCA[0]\011/* SetFreedomAndProjectionVectorToAxis */
IUP[0]\011/* InterpolateUntPts */
IUP[1]\011/* InterpolateUntPts */";
};
width = 483;
}
);
note = uni0071;
unicode = 0071;
},
{
color = 5;
glyphname = r;
lastChange = "2019-12-11 06:40:48 +0000";
layers = (
{
layerId = "47F7128E-F1A6-4572-9BDC-88462FF34A66";
paths = (
{
closed = 1;
nodes = (
"72 10 LINE SMOOTH",
"72 -9 OFFCURVE",
"87 -24 OFFCURVE",
"106 -24 CURVE SMOOTH",
"157 -24 LINE SMOOTH",
"176 -24 OFFCURVE",
"191 -9 OFFCURVE",
"191 10 CURVE SMOOTH",
"191 493 LINE SMOOTH",
"191 512 OFFCURVE",
"176 527 OFFCURVE",
"157 527 CURVE SMOOTH",
"106 527 LINE SMOOTH",
"87 527 OFFCURVE",
"72 512 OFFCURVE",
"72 493 CURVE SMOOTH"
);
},
{
closed = 1;
nodes = (
"224 513 OFFCURVE",
"178 455 OFFCURVE",
"178 390 CURVE",
"178 152 LINE",
"178 315 OFFCURVE",
"259 439 OFFCURVE",
"300 439 CURVE SMOOTH",
"341 439 OFFCURVE",
"369 433 OFFCURVE",
"383 426 CURVE SMOOTH",
"397 419 OFFCURVE",
"414 422 OFFCURVE",
"419 436 CURVE SMOOTH",
"424 450 OFFCURVE",
"420 466 OFFCURVE",
"402 477 CURVE SMOOTH",
"384 488 OFFCURVE",
"339 513 OFFCURVE",
"284 513 CURVE"
);
}
);
userData = {
assembly = "SVTCA[0]\011/* SetFreedomAndProjectionVectorToAxis */
IUP[0]\011/* InterpolateUntPts */
IUP[1]\011/* InterpolateUntPts */";
};
width = 442;
}
);
note = uni0072;
unicode = 0072;
},
{
color = 5;
glyphname = s;
lastChange = "2019-12-11 06:40:48 +0000";
layers = (
{
layerId = "47F7128E-F1A6-4572-9BDC-88462FF34A66";
paths = (
{
closed = 1;
nodes = (
"96 517 OFFCURVE",
"44 415 OFFCURVE",
"44 375 CURVE SMOOTH",
"44 254 OFFCURVE",
"73 221 OFFCURVE",
"249 221 CURVE SMOOTH",
"301 221 OFFCURVE",
"339 148 OFFCURVE",
"339 118 CURVE SMOOTH",
"339 73 OFFCURVE",
"309 26 OFFCURVE",
"262 26 CURVE SMOOTH",
"194 26 OFFCURVE",
"148 30 OFFCURVE",
"148 106 CURVE SMOOTH",
"148 118 OFFCURVE",
"138 122 OFFCURVE",
"89 122 CURVE SMOOTH",
"61 122 OFFCURVE",
"38 118 OFFCURVE",
"38 95 CURVE SMOOTH",
"38 5 OFFCURVE",
"108 -31 OFFCURVE",
"255 -31 CURVE SMOOTH",
"402 -31 OFFCURVE",
"449 7 OFFCURVE",
"449 121 CURVE SMOOTH",
"449 203 OFFCURVE",
"403 273 OFFCURVE",
"269 273 CURVE SMOOTH",
"174 273 OFFCURVE",
"162 300 OFFCURVE",
"162 358 CURVE SMOOTH",
"162 416 OFFCURVE",
"215 466 OFFCURVE",
"253 466 CURVE SMOOTH",
"298 466 OFFCURVE",
"362 387 OFFCURVE",
"438 387 CURVE SMOOTH",
"453 387 OFFCURVE",
"461 406 OFFCURVE",
"461 413 CURVE SMOOTH",
"461 476 OFFCURVE",
"348 517 OFFCURVE",
"240 517 CURVE"
);
}
);
userData = {
assembly = "SVTCA[0]\011/* SetFreedomAndProjectionVectorToAxis */
PUSHB[ ]\011/* 5 values pushed */
46 45 56 103 1 
CALL[ ]\011/* CallFunction */
IUP[0]\011/* InterpolateUntPts */
IUP[1]\011/* InterpolateUntPts */";
};
width = 500;
}
);
note = uni0073;
unicode = 0073;
},
{
color = 4;
glyphname = scaron;
lastChange = "2019-12-12 07:41:21 +0000";
layers = (
{
background = {
paths = (
{
closed = 1;
nodes = (
"234 -26 OFFCURVE",
"254 -29 QCURVE",
"272 -29 OFFCURVE",
"291 -25 QCURVE",
"310 -25 OFFCURVE",
"328 -25 QCURVE",
"344 -22 OFFCURVE",
"360 -18 QCURVE SMOOTH",
"435 6 OFFCURVE",
"450 85 QCURVE",
"451 112 OFFCURVE",
"447 140 QCURVE SMOOTH",
"445 163 OFFCURVE",
"438 187 QCURVE SMOOTH",
"434 200 OFFCURVE",
"425 211 QCURVE SMOOTH",
"418 219 OFFCURVE",
"411 228 QCURVE SMOOTH",
"405 236 OFFCURVE",
"399 242 QCURVE",
"391 248 OFFCURVE",
"383 253 QCURVE",
"369 257 OFFCURVE",
"356 260 QCURVE SMOOTH",
"345 262 OFFCURVE",
"333 266 QCURVE SMOOTH",
"321 269 OFFCURVE",
"310 271 QCURVE SMOOTH",
"299 271 OFFCURVE",
"288 271 QCURVE",
"276 274 OFFCURVE",
"266 278 QCURVE",
"254 278 OFFCURVE",
"243 279 QCURVE SMOOTH",
"225 281 OFFCURVE",
"207 288 QCURVE SMOOTH",
"167 302 OFFCURVE",
"162 345 QCURVE",
"164 387 OFFCURVE",
"190 419 QCURVE SMOOTH",
"206 438 OFFCURVE",
"228 453 QCURVE SMOOTH",
"247 464 OFFCURVE",
"271 463 QCURVE",
"293 468 OFFCURVE",
"308 454 QCURVE",
"321 451 OFFCURVE",
"327 437 QCURVE SMOOTH",
"330 426 OFFCURVE",
"334 417 QCURVE",
"339 412 OFFCURVE",
"346 408 QCURVE",
"361 396 OFFCURVE",
"381 393 QCURVE",
"399 385 OFFCURVE",
"419 377 QCURVE",
"434 366 OFFCURVE",
"447 378 QCURVE",
"456 395 OFFCURVE",
"450 414 QCURVE SMOOTH",
"438 448 OFFCURVE",
"409 470 QCURVE",
"392 486 OFFCURVE",
"372 497 QCURVE SMOOTH",
"362 502 OFFCURVE",
"353 502 QCURVE SMOOTH",
"343 502 OFFCURVE",
"336 508 QCURVE",
"311 517 OFFCURVE",
"284 520 QCURVE SMOOTH",
"259 521 OFFCURVE",
"233 522 QCURVE SMOOTH",
"207 521 OFFCURVE",
"182 517 QCURVE",
"159 516 OFFCURVE",
"141 507 QCURVE SMOOTH",
"101 486 OFFCURVE",
"78 449 QCURVE",
"49 408 OFFCURVE",
"43 359 QCURVE",
"43 334 OFFCURVE",
"45 309 QCURVE SMOOTH",
"47 287 OFFCURVE",
"60 270 QCURVE SMOOTH",
"88 234 OFFCURVE",
"132 229 QCURVE",
"157 231 OFFCURVE",
"183 229 QCURVE SMOOTH",
"206 224 OFFCURVE",
"229 224 QCURVE SMOOTH",
"256 224 OFFCURVE",
"278 211 QCURVE SMOOTH",
"295 201 OFFCURVE",
"310 189 QCURVE",
"326 170 OFFCURVE",
"328 144 QCURVE",
"327 132 OFFCURVE",
"329 121 QCURVE SMOOTH",
"331 110 OFFCURVE",
"330 100 QCURVE",
"320 60 OFFCURVE",
"292 33 QCURVE SMOOTH",
"271 17 OFFCURVE",
"248 21 QCURVE",
"237 26 OFFCURVE",
"227 29 QCURVE",
"216 29 OFFCURVE",
"205 34 QCURVE SMOOTH",
"169 54 OFFCURVE",
"158 95 QCURVE",
"156 110 OFFCURVE",
"144 116 QCURVE",
"118 117 OFFCURVE",
"95 113 QCURVE",
"71 115 OFFCURVE",
"50 108 QCURVE",
"36 97 OFFCURVE",
"41 79 QCURVE SMOOTH",
"45 67 OFFCURVE",
"52 58 QCURVE",
"54 46 OFFCURVE",
"60 37 QCURVE",
"63 26 OFFCURVE",
"69 20 QCURVE",
"76 16 OFFCURVE",
"80 10 QCURVE",
"79 9 OFFCURVE",
"78 9 QCURVE SMOOTH",
"92 8 OFFCURVE",
"102 -3 QCURVE",
"118 -13 OFFCURVE",
"137 -17 QCURVE SMOOTH",
"157 -22 OFFCURVE",
"178 -26 QCURVE SMOOTH",
"198 -29 OFFCURVE",
"218 -34 QCURVE",
"218 -34 LINE"
);
},
{
closed = 1;
nodes = (
"215 584 OFFCURVE",
"215 587 QCURVE",
"222 586 OFFCURVE",
"227 589 QCURVE",
"252 584 OFFCURVE",
"298 603 OFFCURVE",
"332 641 OFFCURVE",
"352 654 QCURVE",
"391 673 OFFCURVE",
"427 696 QCURVE",
"440 703 OFFCURVE",
"438 717 QCURVE",
"429 727 OFFCURVE",
"405 733 OFFCURVE",
"395 737 QCURVE",
"395 736 LINE",
"372 738 OFFCURVE",
"350 741 QCURVE",
"325 738 OFFCURVE",
"296 702 OFFCURVE",
"278 689 QCURVE SMOOTH",
"267 681 OFFCURVE",
"238 684 OFFCURVE",
"223 707 OFFCURVE",
"204 727 OFFCURVE",
"190 730 QCURVE SMOOTH",
"172 737 OFFCURVE",
"153 736 QCURVE",
"144 738 OFFCURVE",
"133 738 QCURVE",
"133 737 LINE",
"119 737 OFFCURVE",
"105 738 QCURVE SMOOTH",
"102 738 OFFCURVE",
"98 736 QCURVE",
"93 737 OFFCURVE",
"79 733 OFFCURVE",
"81 721 OFFCURVE",
"89 711 OFFCURVE",
"92 707 QCURVE SMOOTH",
"109 686 OFFCURVE",
"131 668 QCURVE",
"144 653 OFFCURVE",
"167 621 OFFCURVE",
"193 591 OFFCURVE",
"212 583 QCURVE",
"212 583 LINE"
);
}
);
};
components = (
{
name = caroncomb;
transform = "{1, 0, 0, 1, 0, -222}";
},
{
name = s;
}
);
layerId = "47F7128E-F1A6-4572-9BDC-88462FF34A66";
userData = {
assembly = "SVTCA[0]\011/* SetFreedomAndProjectionVectorToAxis */
PUSHB[ ]\011/* 5 values pushed */
46 45 56 103 1 
CALL[ ]\011/* CallFunction */
IUP[0]\011/* InterpolateUntPts */
IUP[1]\011/* InterpolateUntPts */";
};
vertWidth = 1000;
width = 500;
}
);
leftMetricsKey = s;
note = uni0161;
rightMetricsKey = s;
unicode = 0161;
},
{
color = 5;
glyphname = germandbls;
lastChange = "2019-12-11 06:40:48 +0000";
layers = (
{
layerId = "47F7128E-F1A6-4572-9BDC-88462FF34A66";
paths = (
{
closed = 1;
nodes = (
"202 757 OFFCURVE",
"72 738 OFFCURVE",
"72 63 CURVE SMOOTH",
"72 3 OFFCURVE",
"79 -76 OFFCURVE",
"104 -76 CURVE SMOOTH",
"129 -76 OFFCURVE",
"139 -76 OFFCURVE",
"159 -76 CURVE SMOOTH",
"174 -76 OFFCURVE",
"181 32 OFFCURVE",
"181 269 CURVE SMOOTH",
"181 561 OFFCURVE",
"290 685 OFFCURVE",
"351 685 CURVE SMOOTH",
"372 685 OFFCURVE",
"380 665 OFFCURVE",
"380 638 CURVE SMOOTH",
"380 532 OFFCURVE",
"259 467 OFFCURVE",
"259 416 CURVE SMOOTH",
"259 385 OFFCURVE",
"377 355 OFFCURVE",
"377 272 CURVE SMOOTH",
"377 149 OFFCURVE",
"193 79 OFFCURVE",
"193 63 CURVE SMOOTH",
"193 50 OFFCURVE",
"206 29 OFFCURVE",
"230 29 CURVE SMOOTH",
"254 29 OFFCURVE",
"480 54 OFFCURVE",
"480 216 CURVE SMOOTH",
"480 379 OFFCURVE",
"361 450 OFFCURVE",
"341 450 CURVE",
"341 395 LINE",
"372 395 OFFCURVE",
"479 473 OFFCURVE",
"479 579 CURVE SMOOTH",
"479 685 OFFCURVE",
"390 757 OFFCURVE",
"328 757 CURVE"
);
}
);
width = 522;
}
);
unicode = 00DF;
},
{
color = 5;
glyphname = t;
lastChange = "2019-12-11 06:40:48 +0000";
layers = (
{
layerId = "47F7128E-F1A6-4572-9BDC-88462FF34A66";
paths = (
{
closed = 1;
nodes = (
"154 21 LINE SMOOTH",
"154 2 OFFCURVE",
"169 -13 OFFCURVE",
"188 -13 CURVE SMOOTH",
"248 -13 LINE SMOOTH",
"267 -13 OFFCURVE",
"282 2 OFFCURVE",
"282 21 CURVE SMOOTH",
"282 734 LINE SMOOTH",
"282 753 OFFCURVE",
"267 768 OFFCURVE",
"248 768 CURVE SMOOTH",
"188 768 LINE SMOOTH",
"169 768 OFFCURVE",
"154 753 OFFCURVE",
"154 734 CURVE SMOOTH"
);
},
{
closed = 1;
nodes = (
"25 462 OFFCURVE",
"40 451 OFFCURVE",
"59 451 CURVE SMOOTH",
"386 451 LINE SMOOTH",
"405 451 OFFCURVE",
"420 462 OFFCURVE",
"420 477 CURVE SMOOTH",
"420 492 OFFCURVE",
"405 503 OFFCURVE",
"386 503 CURVE SMOOTH",
"59 503 LINE SMOOTH",
"40 503 OFFCURVE",
"25 492 OFFCURVE",
"25 477 CURVE SMOOTH"
);
}
);
userData = {
assembly = "NPUSHB[ ]\011/* 17 values pushed */
45 102 32 0 67 66 65 99 11 10 6 70 101 8 5 4 8 
CALL[ ]\011/* CallFunction */
CALL[ ]\011/* CallFunction */
CALL[ ]\011/* CallFunction */
SVTCA[0]\011/* SetFreedomAndProjectionVectorToAxis */
IUP[0]\011/* InterpolateUntPts */
IUP[1]\011/* InterpolateUntPts */";
};
width = 433;
}
);
note = uni0074;
unicode = 0074;
},
{
color = 5;
glyphname = u;
lastChange = "2019-12-11 06:40:48 +0000";
layers = (
{
layerId = "47F7128E-F1A6-4572-9BDC-88462FF34A66";
paths = (
{
closed = 1;
nodes = (
"453 493 LINE SMOOTH",
"453 512 OFFCURVE",
"438 527 OFFCURVE",
"419 527 CURVE SMOOTH",
"356 527 LINE SMOOTH",
"337 527 OFFCURVE",
"322 512 OFFCURVE",
"322 493 CURVE SMOOTH",
"322 3 LINE SMOOTH",
"322 -16 OFFCURVE",
"337 -31 OFFCURVE",
"356 -31 CURVE SMOOTH",
"419 -31 LINE SMOOTH",
"438 -31 OFFCURVE",
"453 -16 OFFCURVE",
"453 3 CURVE SMOOTH"
);
},
{
closed = 1;
nodes = (
"390 -24 OFFCURVE",
"433 86 OFFCURVE",
"433 241 CURVE",
"332 337 LINE",
"332 122 OFFCURVE",
"285 48 OFFCURVE",
"229 48 CURVE SMOOTH",
"162 48 OFFCURVE",
"161 169 OFFCURVE",
"161 470 CURVE SMOOTH",
"161 515 OFFCURVE",
"155 533 OFFCURVE",
"138 533 CURVE SMOOTH",
"122 533 OFFCURVE",
"78 533 OFFCURVE",
"66 533 CURVE SMOOTH",
"55 533 OFFCURVE",
"45 527 OFFCURVE",
"45 501 CURVE SMOOTH",
"45 475 OFFCURVE",
"45 315 OFFCURVE",
"45 250 CURVE SMOOTH",
"45 53 OFFCURVE",
"119 -24 OFFCURVE",
"214 -24 CURVE"
);
}
);
userData = {
assembly = "SVTCA[0]\011/* SetFreedomAndProjectionVectorToAxis */
IUP[0]\011/* InterpolateUntPts */
IUP[1]\011/* InterpolateUntPts */";
};
width = 507;
}
);
note = uni0075;
unicode = 0075;
},
{
color = 5;
glyphname = v;
lastChange = "2019-12-11 06:40:48 +0000";
layers = (
{
layerId = "47F7128E-F1A6-4572-9BDC-88462FF34A66";
paths = (
{
closed = 1;
nodes = (
"33 512 OFFCURVE",
"29 496 OFFCURVE",
"36 455 CURVE SMOOTH",
"41 425 OFFCURVE",
"160 78 OFFCURVE",
"174 33 CURVE SMOOTH",
"188 -12 OFFCURVE",
"200 -22 OFFCURVE",
"222 -22 CURVE SMOOTH",
"244 -22 OFFCURVE",
"269 -22 OFFCURVE",
"295 -22 CURVE SMOOTH",
"321 -22 OFFCURVE",
"335 16 OFFCURVE",
"339 50 CURVE SMOOTH",
"343 84 OFFCURVE",
"448 413 OFFCURVE",
"455 460 CURVE SMOOTH",
"462 507 OFFCURVE",
"450 510 OFFCURVE",
"430 510 CURVE SMOOTH",
"410 510 OFFCURVE",
"403 510 OFFCURVE",
"385 510 CURVE SMOOTH",
"356 510 OFFCURVE",
"348 498 OFFCURVE",
"339 470 CURVE SMOOTH",
"243 158 LINE",
"263 158 LINE",
"151 471 LINE SMOOTH",
"141 499 OFFCURVE",
"136 512 OFFCURVE",
"119 512 CURVE SMOOTH",
"64 512 LINE SMOOTH"
);
}
);
userData = {
assembly = "SVTCA[0]\011/* SetFreedomAndProjectionVectorToAxis */
IUP[0]\011/* InterpolateUntPts */
IUP[1]\011/* InterpolateUntPts */";
};
width = 490;
}
);
note = uni0076;
unicode = 0076;
},
{
color = 5;
glyphname = w;
lastChange = "2019-12-13 05:35:28 +0000";
layers = (
{
layerId = "47F7128E-F1A6-4572-9BDC-88462FF34A66";
paths = (
{
closed = 1;
nodes = (
"41 512 OFFCURVE",
"40 496 OFFCURVE",
"46 455 CURVE SMOOTH",
"56 385 OFFCURVE",
"101 125 OFFCURVE",
"119 33 CURVE SMOOTH",
"128 -14 OFFCURVE",
"147 -22 OFFCURVE",
"169 -22 CURVE SMOOTH",
"191 -22 OFFCURVE",
"216 -22 OFFCURVE",
"242 -22 CURVE SMOOTH",
"268 -22 OFFCURVE",
"275 17 OFFCURVE",
"283 50 CURVE SMOOTH",
"296 104 OFFCURVE",
"360 413 OFFCURVE",
"365 460 CURVE SMOOTH",
"370 507 OFFCURVE",
"358 510 OFFCURVE",
"338 510 CURVE SMOOTH",
"318 510 OFFCURVE",
"311 510 OFFCURVE",
"293 510 CURVE SMOOTH",
"264 510 OFFCURVE",
"253 498 OFFCURVE",
"249 470 CURVE SMOOTH",
"199 158 LINE",
"219 158 LINE",
"161 471 LINE SMOOTH",
"156 499 OFFCURVE",
"144 512 OFFCURVE",
"127 512 CURVE SMOOTH",
"72 512 LINE SMOOTH"
);
},
{
closed = 1;
nodes = (
"261 512 OFFCURVE",
"260 496 OFFCURVE",
"266 455 CURVE SMOOTH",
"276 385 OFFCURVE",
"321 125 OFFCURVE",
"339 33 CURVE SMOOTH",
"348 -14 OFFCURVE",
"367 -22 OFFCURVE",
"389 -22 CURVE SMOOTH",
"411 -22 OFFCURVE",
"436 -22 OFFCURVE",
"462 -22 CURVE SMOOTH",
"488 -22 OFFCURVE",
"495 17 OFFCURVE",
"503 50 CURVE SMOOTH",
"516 104 OFFCURVE",
"580 413 OFFCURVE",
"585 460 CURVE SMOOTH",
"590 507 OFFCURVE",
"578 510 OFFCURVE",
"558 510 CURVE SMOOTH",
"538 510 OFFCURVE",
"531 510 OFFCURVE",
"513 510 CURVE SMOOTH",
"484 510 OFFCURVE",
"473 498 OFFCURVE",
"469 470 CURVE SMOOTH",
"419 158 LINE",
"439 158 LINE",
"381 471 LINE SMOOTH",
"376 499 OFFCURVE",
"364 512 OFFCURVE",
"347 512 CURVE SMOOTH",
"292 512 LINE SMOOTH"
);
}
);
userData = {
assembly = "SVTCA[0]\011/* SetFreedomAndProjectionVectorToAxis */
IUP[0]\011/* InterpolateUntPts */
IUP[1]\011/* InterpolateUntPts */";
};
width = 628;
}
);
note = uni0077;
unicode = 0077;
},
{
color = 5;
glyphname = x;
lastChange = "2019-12-11 06:40:48 +0000";
layers = (
{
layerId = "47F7128E-F1A6-4572-9BDC-88462FF34A66";
paths = (
{
closed = 1;
nodes = (
"103 525 OFFCURVE",
"69 525 OFFCURVE",
"53 525 CURVE SMOOTH",
"39 525 OFFCURVE",
"25 501 OFFCURVE",
"39 478 CURVE SMOOTH",
"51 455 OFFCURVE",
"281 21 OFFCURVE",
"294 3 CURVE SMOOTH",
"305 -15 OFFCURVE",
"325 -28 OFFCURVE",
"345 -28 CURVE SMOOTH",
"367 -28 OFFCURVE",
"391 -28 OFFCURVE",
"406 -28 CURVE SMOOTH",
"422 -28 OFFCURVE",
"446 -7 OFFCURVE",
"429 21 CURVE SMOOTH",
"412 49 OFFCURVE",
"184 470 OFFCURVE",
"176 488 CURVE SMOOTH",
"168 506 OFFCURVE",
"149 525 OFFCURVE",
"130 525 CURVE"
);
},
{
closed = 1;
nodes = (
"359 525 OFFCURVE",
"340 506 OFFCURVE",
"332 488 CURVE SMOOTH",
"324 470 OFFCURVE",
"96 49 OFFCURVE",
"79 21 CURVE SMOOTH",
"62 -7 OFFCURVE",
"86 -28 OFFCURVE",
"102 -28 CURVE SMOOTH",
"117 -28 OFFCURVE",
"141 -28 OFFCURVE",
"163 -28 CURVE SMOOTH",
"183 -28 OFFCURVE",
"203 -15 OFFCURVE",
"214 3 CURVE SMOOTH",
"226 22 OFFCURVE",
"457 455 OFFCURVE",
"469 478 CURVE SMOOTH",
"481 502 OFFCURVE",
"469 525 OFFCURVE",
"455 525 CURVE SMOOTH",
"439 525 OFFCURVE",
"405 525 OFFCURVE",
"378 525 CURVE"
);
}
);
userData = {
assembly = "SVTCA[0]\011/* SetFreedomAndProjectionVectorToAxis */
IUP[0]\011/* InterpolateUntPts */
IUP[1]\011/* InterpolateUntPts */";
};
width = 507;
}
);
note = uni0078;
unicode = 0078;
},
{
color = 5;
glyphname = y;
lastChange = "2019-12-11 06:40:48 +0000";
layers = (
{
layerId = "47F7128E-F1A6-4572-9BDC-88462FF34A66";
paths = (
{
closed = 1;
nodes = (
"356 525 OFFCURVE",
"338 506 OFFCURVE",
"331 488 CURVE SMOOTH",
"323 470 OFFCURVE",
"136 -24 OFFCURVE",
"120 -52 CURVE SMOOTH",
"104 -80 OFFCURVE",
"127 -101 OFFCURVE",
"142 -101 CURVE SMOOTH",
"156 -101 OFFCURVE",
"178 -101 OFFCURVE",
"199 -101 CURVE SMOOTH",
"218 -101 OFFCURVE",
"237 -88 OFFCURVE",
"247 -70 CURVE SMOOTH",
"258 -51 OFFCURVE",
"448 455 OFFCURVE",
"460 478 CURVE SMOOTH",
"471 502 OFFCURVE",
"460 525 OFFCURVE",
"447 525 CURVE SMOOTH",
"431 525 OFFCURVE",
"400 525 OFFCURVE",
"374 525 CURVE"
);
},
{
closed = 1;
nodes = (
"92 516 OFFCURVE",
"64 516 OFFCURVE",
"50 516 CURVE SMOOTH",
"38 516 OFFCURVE",
"26 493 OFFCURVE",
"38 470 CURVE SMOOTH",
"48 447 OFFCURVE",
"156 60 OFFCURVE",
"168 42 CURVE SMOOTH",
"178 27 OFFCURVE",
"193 12 OFFCURVE",
"210 12 CURVE SMOOTH",
"229 12 OFFCURVE",
"249 12 OFFCURVE",
"261 12 CURVE SMOOTH",
"275 12 OFFCURVE",
"295 33 OFFCURVE",
"281 60 CURVE SMOOTH",
"266 88 OFFCURVE",
"160 462 OFFCURVE",
"153 480 CURVE SMOOTH",
"146 498 OFFCURVE",
"131 516 OFFCURVE",
"115 516 CURVE"
);
}
);
userData = {
assembly = "SVTCA[0]\011/* SetFreedomAndProjectionVectorToAxis */
IUP[0]\011/* InterpolateUntPts */
IUP[1]\011/* InterpolateUntPts */";
};
width = 498;
}
);
note = uni0079;
unicode = 0079;
},
{
color = 5;
glyphname = z;
lastChange = "2019-12-11 06:40:48 +0000";
layers = (
{
layerId = "47F7128E-F1A6-4572-9BDC-88462FF34A66";
paths = (
{
closed = 1;
nodes = (
"384 533 OFFCURVE",
"148 533 OFFCURVE",
"118 533 CURVE SMOOTH",
"88 533 OFFCURVE",
"70 524 OFFCURVE",
"70 503 CURVE SMOOTH",
"70 482 OFFCURVE",
"91 470 OFFCURVE",
"118 470 CURVE SMOOTH",
"145 470 OFFCURVE",
"261 470 OFFCURVE",
"278 470 CURVE SMOOTH",
"295 470 OFFCURVE",
"302 459 OFFCURVE",
"286 439 CURVE SMOOTH",
"270 419 OFFCURVE",
"65 61 OFFCURVE",
"54 39 CURVE SMOOTH",
"43 17 OFFCURVE",
"42 -18 OFFCURVE",
"76 -18 CURVE SMOOTH",
"110 -18 OFFCURVE",
"390 -18 OFFCURVE",
"419 -18 CURVE SMOOTH",
"448 -18 OFFCURVE",
"455 -13 OFFCURVE",
"455 9 CURVE SMOOTH",
"455 31 OFFCURVE",
"445 44 OFFCURVE",
"418 44 CURVE SMOOTH",
"391 44 OFFCURVE",
"229 44 OFFCURVE",
"208 44 CURVE SMOOTH",
"187 44 OFFCURVE",
"185 65 OFFCURVE",
"202 95 CURVE SMOOTH",
"219 125 OFFCURVE",
"434 470 OFFCURVE",
"447 492 CURVE SMOOTH",
"460 514 OFFCURVE",
"462 533 OFFCURVE",
"432 533 CURVE"
);
}
);
userData = {
assembly = "SVTCA[0]\011/* SetFreedomAndProjectionVectorToAxis */
IUP[0]\011/* InterpolateUntPts */
IUP[1]\011/* InterpolateUntPts */";
};
width = 500;
}
);
note = uni007A;
unicode = 007A;
},
{
color = 4;
glyphname = zcaron;
lastChange = "2019-12-12 07:41:28 +0000";
layers = (
{
background = {
paths = (
{
closed = 1;
nodes = (
"356 -19 OFFCURVE",
"369 -21 QCURVE",
"385 -20 OFFCURVE",
"400 -18 QCURVE",
"427 -21 OFFCURVE",
"450 -9 QCURVE",
"468 8 OFFCURVE",
"457 30 QCURVE",
"442 44 OFFCURVE",
"422 43 QCURVE",
"390 48 OFFCURVE",
"357 45 QCURVE SMOOTH",
"325 44 OFFCURVE",
"293 46 QCURVE SMOOTH",
"263 47 OFFCURVE",
"233 52 QCURVE",
"218 59 OFFCURVE",
"203 54 QCURVE",
"204 55 OFFCURVE",
"205 56 QCURVE",
"189 56 OFFCURVE",
"187 71 QCURVE",
"192 82 OFFCURVE",
"199 93 QCURVE SMOOTH",
"208 105 OFFCURVE",
"215 120 QCURVE SMOOTH",
"227 147 OFFCURVE",
"246 171 QCURVE SMOOTH",
"263 192 OFFCURVE",
"273 219 QCURVE",
"280 230 OFFCURVE",
"289 242 QCURVE SMOOTH",
"297 256 OFFCURVE",
"306 269 QCURVE SMOOTH",
"323 294 OFFCURVE",
"339 320 QCURVE SMOOTH",
"347 334 OFFCURVE",
"354 348 QCURVE SMOOTH",
"361 359 OFFCURVE",
"372 370 QCURVE",
"387 393 OFFCURVE",
"400 419 QCURVE",
"431 455 OFFCURVE",
"454 496 QCURVE",
"461 521 OFFCURVE",
"440 533 QCURVE",
"419 538 OFFCURVE",
"396 535 QCURVE SMOOTH",
"370 532 OFFCURVE",
"344 531 QCURVE SMOOTH",
"318 528 OFFCURVE",
"293 527 QCURVE SMOOTH",
"239 523 OFFCURVE",
"186 527 QCURVE SMOOTH",
"145 531 OFFCURVE",
"104 524 QCURVE SMOOTH",
"68 518 OFFCURVE",
"71 484 QCURVE",
"91 469 OFFCURVE",
"118 471 QCURVE",
"131 467 OFFCURVE",
"145 466 QCURVE",
"154 468 OFFCURVE",
"165 470 QCURVE",
"177 468 OFFCURVE",
"184 477 QCURVE",
"199 469 OFFCURVE",
"216 471 QCURVE",
"236 471 OFFCURVE",
"258 469 QCURVE",
"277 470 OFFCURVE",
"297 466 QCURVE",
"293 452 OFFCURVE",
"288 438 QCURVE",
"281 432 OFFCURVE",
"275 424 QCURVE",
"272 414 OFFCURVE",
"265 407 QCURVE",
"257 397 OFFCURVE",
"253 387 QCURVE",
"246 376 OFFCURVE",
"240 365 QCURVE SMOOTH",
"235 354 OFFCURVE",
"229 347 QCURVE SMOOTH",
"213 329 OFFCURVE",
"205 308 QCURVE SMOOTH",
"194 285 OFFCURVE",
"184 264 QCURVE",
"182 255 OFFCURVE",
"176 250 QCURVE",
"171 249 OFFCURVE",
"169 245 QCURVE",
"163 220 OFFCURVE",
"146 206 QCURVE",
"146 194 OFFCURVE",
"140 188 QCURVE SMOOTH",
"132 180 OFFCURVE",
"130 170 QCURVE",
"124 158 OFFCURVE",
"116 148 QCURVE SMOOTH",
"109 142 OFFCURVE",
"109 134 QCURVE",
"105 135 OFFCURVE",
"103 134 QCURVE",
"98 127 OFFCURVE",
"96 119 QCURVE",
"89 105 OFFCURVE",
"82 93 QCURVE",
"76 77 OFFCURVE",
"69 63 QCURVE SMOOTH",
"63 49 OFFCURVE",
"58 35 QCURVE",
"39 18 OFFCURVE",
"44 -5 QCURVE",
"63 -22 OFFCURVE",
"91 -17 QCURVE",
"159 -10 OFFCURVE",
"228 -13 QCURVE",
"243 -17 OFFCURVE",
"260 -19 QCURVE SMOOTH",
"275 -19 OFFCURVE",
"290 -20 QCURVE",
"318 -17 OFFCURVE",
"346 -24 QCURVE",
"346 -24 LINE"
);
},
{
closed = 1;
nodes = (
"230 584 OFFCURVE",
"230 587 QCURVE",
"237 586 OFFCURVE",
"242 589 QCURVE",
"268 584 OFFCURVE",
"313 603 OFFCURVE",
"348 641 OFFCURVE",
"367 654 QCURVE",
"406 673 OFFCURVE",
"442 696 QCURVE",
"456 703 OFFCURVE",
"453 717 QCURVE",
"444 727 OFFCURVE",
"421 733 OFFCURVE",
"410 737 QCURVE",
"410 736 LINE",
"388 738 OFFCURVE",
"365 741 QCURVE",
"341 738 OFFCURVE",
"312 702 OFFCURVE",
"294 689 QCURVE SMOOTH",
"282 681 OFFCURVE",
"254 684 OFFCURVE",
"238 707 OFFCURVE",
"220 727 OFFCURVE",
"206 730 QCURVE SMOOTH",
"188 737 OFFCURVE",
"169 736 QCURVE",
"159 738 OFFCURVE",
"148 738 QCURVE",
"148 737 LINE",
"135 737 OFFCURVE",
"121 738 QCURVE SMOOTH",
"117 738 OFFCURVE",
"113 736 QCURVE",
"108 737 OFFCURVE",
"95 733 OFFCURVE",
"97 721 OFFCURVE",
"104 711 OFFCURVE",
"107 707 QCURVE SMOOTH",
"125 686 OFFCURVE",
"146 668 QCURVE",
"159 653 OFFCURVE",
"183 621 OFFCURVE",
"209 591 OFFCURVE",
"228 583 QCURVE",
"228 583 LINE"
);
}
);
};
components = (
{
name = caroncomb;
transform = "{1, 0, 0, 1, 24, -209}";
},
{
name = z;
}
);
layerId = "47F7128E-F1A6-4572-9BDC-88462FF34A66";
userData = {
assembly = "SVTCA[0]\011/* SetFreedomAndProjectionVectorToAxis */
IUP[0]\011/* InterpolateUntPts */
IUP[1]\011/* InterpolateUntPts */";
};
vertWidth = 1000;
width = 500;
}
);
leftMetricsKey = z;
note = uni017E;
rightMetricsKey = z;
unicode = 017E;
},
{
color = 7;
glyphname = a.full;
lastChange = "2019-12-13 05:40:23 +0000";
layers = (
{
layerId = "47F7128E-F1A6-4572-9BDC-88462FF34A66";
paths = (
{
closed = 1;
nodes = (
"310 538 OFFCURVE",
"166 415 OFFCURVE",
"166 250 CURVE SMOOTH",
"166 96 OFFCURVE",
"276 -26 OFFCURVE",
"420 -26 CURVE SMOOTH",
"612 -26 OFFCURVE",
"678 138 OFFCURVE",
"692 165 CURVE",
"669 183 LINE",
"669 126 OFFCURVE",
"684 40 OFFCURVE",
"707 -5 CURVE SMOOTH",
"710 -12 OFFCURVE",
"725 -28 OFFCURVE",
"734 -28 CURVE SMOOTH",
"747 -28 OFFCURVE",
"790 -28 OFFCURVE",
"807 -28 CURVE SMOOTH",
"826 -30 OFFCURVE",
"826 -7 OFFCURVE",
"818 18 CURVE SMOOTH",
"812 40 OFFCURVE",
"789 131 OFFCURVE",
"789 195 CURVE SMOOTH",
"789 259 OFFCURVE",
"795 300 OFFCURVE",
"799 318 CURVE SMOOTH",
"803 336 OFFCURVE",
"797 369 OFFCURVE",
"789 391 CURVE SMOOTH",
"770 443 OFFCURVE",
"711 538 OFFCURVE",
"489 538 CURVE SMOOTH"
);
},
{
closed = 1;
nodes = (
"637 487 OFFCURVE",
"674 407 OFFCURVE",
"674 336 CURVE SMOOTH",
"674 152 OFFCURVE",
"525 50 OFFCURVE",
"430 50 CURVE SMOOTH",
"340 50 OFFCURVE",
"280 155 OFFCURVE",
"280 245 CURVE SMOOTH",
"280 343 OFFCURVE",
"373 487 OFFCURVE",
"489 487 CURVE SMOOTH"
);
}
);
width = 1000;
}
);
unicode = FF41;
},
{
color = 7;
glyphname = b.full;
lastChange = "2019-12-13 05:40:23 +0000";
layers = (
{
layerId = "47F7128E-F1A6-4572-9BDC-88462FF34A66";
paths = (
{
closed = 1;
nodes = (
"245 11 LINE SMOOTH",
"245 -8 OFFCURVE",
"260 -23 OFFCURVE",
"279 -23 CURVE SMOOTH",
"324 -23 LINE SMOOTH",
"343 -23 OFFCURVE",
"358 -8 OFFCURVE",
"358 11 CURVE SMOOTH",
"358 728 LINE SMOOTH",
"358 747 OFFCURVE",
"343 762 OFFCURVE",
"324 762 CURVE SMOOTH",
"279 762 LINE SMOOTH",
"260 762 OFFCURVE",
"245 747 OFFCURVE",
"245 728 CURVE SMOOTH"
);
},
{
closed = 1;
nodes = (
"392 505 OFFCURVE",
"293 417 OFFCURVE",
"293 280 CURVE SMOOTH",
"293 106 OFFCURVE",
"390 -9 OFFCURVE",
"537 -9 CURVE SMOOTH",
"740 -9 OFFCURVE",
"856 121 OFFCURVE",
"856 256 CURVE SMOOTH",
"856 392 OFFCURVE",
"715 505 OFFCURVE",
"545 505 CURVE SMOOTH"
);
},
{
closed = 1;
nodes = (
"700 449 OFFCURVE",
"748 326 OFFCURVE",
"748 243 CURVE SMOOTH",
"748 137 OFFCURVE",
"656 46 OFFCURVE",
"546 46 CURVE SMOOTH",
"466 46 OFFCURVE",
"354 161 OFFCURVE",
"354 244 CURVE SMOOTH",
"354 312 OFFCURVE",
"414 449 OFFCURVE",
"545 449 CURVE SMOOTH"
);
}
);
width = 1000;
}
);
unicode = FF42;
},
{
color = 7;
glyphname = c.full;
lastChange = "2019-12-13 05:40:23 +0000";
layers = (
{
layerId = "47F7128E-F1A6-4572-9BDC-88462FF34A66";
paths = (
{
closed = 1;
nodes = (
"406 526 OFFCURVE",
"223 462 OFFCURVE",
"223 249 CURVE SMOOTH",
"223 31 OFFCURVE",
"416 -27 OFFCURVE",
"500 -27 CURVE SMOOTH",
"685 -27 OFFCURVE",
"831 21 OFFCURVE",
"831 133 CURVE SMOOTH",
"831 182 OFFCURVE",
"811 193 OFFCURVE",
"798 193 CURVE SMOOTH",
"785 193 OFFCURVE",
"758 193 OFFCURVE",
"742 193 CURVE SMOOTH",
"726 193 OFFCURVE",
"708 185 OFFCURVE",
"708 160 CURVE SMOOTH",
"708 80 OFFCURVE",
"650 38 OFFCURVE",
"541 38 CURVE SMOOTH",
"491 38 OFFCURVE",
"338 97 OFFCURVE",
"338 258 CURVE SMOOTH",
"338 382 OFFCURVE",
"421 472 OFFCURVE",
"534 472 CURVE SMOOTH",
"628 472 OFFCURVE",
"704 416 OFFCURVE",
"704 371 CURVE SMOOTH",
"704 340 OFFCURVE",
"734 330 OFFCURVE",
"744 330 CURVE SMOOTH",
"754 330 OFFCURVE",
"787 330 OFFCURVE",
"798 330 CURVE SMOOTH",
"809 330 OFFCURVE",
"823 345 OFFCURVE",
"823 378 CURVE SMOOTH",
"823 409 OFFCURVE",
"698 526 OFFCURVE",
"525 526 CURVE SMOOTH"
);
}
);
width = 1000;
}
);
unicode = FF43;
},
{
color = 7;
glyphname = d.full;
lastChange = "2019-12-13 05:40:23 +0000";
layers = (
{
layerId = "47F7128E-F1A6-4572-9BDC-88462FF34A66";
paths = (
{
closed = 1;
nodes = (
"826 751 OFFCURVE",
"811 766 OFFCURVE",
"792 766 CURVE SMOOTH",
"747 766 LINE SMOOTH",
"728 766 OFFCURVE",
"713 751 OFFCURVE",
"713 732 CURVE SMOOTH",
"713 15 LINE SMOOTH",
"713 -4 OFFCURVE",
"728 -19 OFFCURVE",
"747 -19 CURVE SMOOTH",
"792 -19 LINE SMOOTH",
"811 -19 OFFCURVE",
"826 -4 OFFCURVE",
"826 15 CURVE SMOOTH",
"826 732 LINE SMOOTH"
);
},
{
closed = 1;
nodes = (
"404 525 OFFCURVE",
"253 444 OFFCURVE",
"253 264 CURVE SMOOTH",
"253 84 OFFCURVE",
"337 -18 OFFCURVE",
"531 -18 CURVE SMOOTH",
"738 -18 OFFCURVE",
"807 116 OFFCURVE",
"807 284 CURVE SMOOTH",
"807 497 OFFCURVE",
"677 525 OFFCURVE",
"546 525 CURVE SMOOTH"
);
},
{
closed = 1;
nodes = (
"625 480 OFFCURVE",
"723 423 OFFCURVE",
"723 248 CURVE SMOOTH",
"723 118 OFFCURVE",
"624 37 OFFCURVE",
"532 37 CURVE SMOOTH",
"443 37 OFFCURVE",
"359 93 OFFCURVE",
"359 251 CURVE SMOOTH",
"359 369 OFFCURVE",
"408 480 OFFCURVE",
"546 480 CURVE SMOOTH"
);
}
);
width = 1000;
}
);
unicode = FF44;
},
{
color = 7;
glyphname = e.full;
lastChange = "2019-12-13 05:40:23 +0000";
layers = (
{
layerId = "47F7128E-F1A6-4572-9BDC-88462FF34A66";
paths = (
{
closed = 1;
nodes = (
"360 532 OFFCURVE",
"213 449 OFFCURVE",
"213 253 CURVE SMOOTH",
"213 57 OFFCURVE",
"318 -29 OFFCURVE",
"533 -29 CURVE SMOOTH",
"708 -29 OFFCURVE",
"804 52 OFFCURVE",
"804 95 CURVE SMOOTH",
"804 112 OFFCURVE",
"796 130 OFFCURVE",
"775 130 CURVE SMOOTH",
"755 130 OFFCURVE",
"737 130 OFFCURVE",
"718 130 CURVE SMOOTH",
"699 130 OFFCURVE",
"675 113 OFFCURVE",
"675 100 CURVE SMOOTH",
"675 87 OFFCURVE",
"600 25 OFFCURVE",
"537 25 CURVE SMOOTH",
"430 25 OFFCURVE",
"319 89 OFFCURVE",
"319 237 CURVE SMOOTH",
"319 385 OFFCURVE",
"382 466 OFFCURVE",
"516 466 CURVE SMOOTH",
"603 466 OFFCURVE",
"689 376 OFFCURVE",
"689 291 CURVE",
"718 314 LINE",
"286 314 LINE",
"286 256 LINE",
"418 256 OFFCURVE",
"725 256 OFFCURVE",
"755 256 CURVE SMOOTH",
"785 256 OFFCURVE",
"810 266 OFFCURVE",
"810 305 CURVE SMOOTH",
"810 388 OFFCURVE",
"658 532 OFFCURVE",
"516 532 CURVE"
);
}
);
width = 1000;
}
);
unicode = FF45;
},
{
color = 7;
glyphname = f.full;
lastChange = "2019-12-13 05:40:23 +0000";
layers = (
{
layerId = "47F7128E-F1A6-4572-9BDC-88462FF34A66";
paths = (
{
closed = 1;
nodes = (
"221 466 OFFCURVE",
"243 455 OFFCURVE",
"270 455 CURVE SMOOTH",
"771 455 LINE SMOOTH",
"799 455 OFFCURVE",
"820 467 OFFCURVE",
"820 482 CURVE SMOOTH",
"820 497 OFFCURVE",
"799 509 OFFCURVE",
"771 509 CURVE SMOOTH",
"270 509 LINE SMOOTH",
"243 509 OFFCURVE",
"221 497 OFFCURVE",
"221 482 CURVE SMOOTH"
);
},
{
closed = 1;
nodes = (
"421 755 OFFCURVE",
"375 712 OFFCURVE",
"375 638 CURVE SMOOTH",
"375 564 OFFCURVE",
"375 41 OFFCURVE",
"375 14 CURVE SMOOTH",
"375 -13 OFFCURVE",
"397 -26 OFFCURVE",
"421 -26 CURVE SMOOTH",
"446 -26 OFFCURVE",
"440 -26 OFFCURVE",
"465 -26 CURVE SMOOTH",
"489 -26 OFFCURVE",
"498 -11 OFFCURVE",
"498 15 CURVE SMOOTH",
"498 41 OFFCURVE",
"498 619 OFFCURVE",
"498 641 CURVE SMOOTH",
"498 663 OFFCURVE",
"518 699 OFFCURVE",
"571 699 CURVE SMOOTH",
"616 699 OFFCURVE",
"652 655 OFFCURVE",
"665 622 CURVE SMOOTH",
"674 599 OFFCURVE",
"693 591 OFFCURVE",
"715 591 CURVE",
"737 591 OFFCURVE",
"748 591 OFFCURVE",
"758 591 CURVE SMOOTH",
"769 591 OFFCURVE",
"781 606 OFFCURVE",
"781 626 CURVE SMOOTH",
"781 674 OFFCURVE",
"671 755 OFFCURVE",
"554 755 CURVE"
);
}
);
width = 1000;
}
);
unicode = FF46;
},
{
color = 7;
glyphname = g.full;
lastChange = "2019-12-13 05:40:48 +0000";
layers = (
{
layerId = "47F7128E-F1A6-4572-9BDC-88462FF34A66";
paths = (
{
closed = 1;
nodes = (
"359 525 OFFCURVE",
"198 467 OFFCURVE",
"198 306 CURVE SMOOTH",
"198 145 OFFCURVE",
"319 66 OFFCURVE",
"509 66 CURVE SMOOTH",
"715 66 OFFCURVE",
"783 174 OFFCURVE",
"783 324 CURVE SMOOTH",
"783 514 OFFCURVE",
"628 525 OFFCURVE",
"498 525 CURVE SMOOTH"
);
},
{
closed = 1;
nodes = (
"617 478 OFFCURVE",
"683 403 OFFCURVE",
"683 293 CURVE SMOOTH",
"683 183 OFFCURVE",
"626 114 OFFCURVE",
"512 114 CURVE SMOOTH",
"393 114 OFFCURVE",
"313 194 OFFCURVE",
"313 296 CURVE SMOOTH",
"313 396 OFFCURVE",
"378 478 OFFCURVE",
"513 478 CURVE SMOOTH"
);
},
{
closed = 1;
nodes = (
"767 534 CURVE SMOOTH",
"742 534 OFFCURVE",
"720 534 OFFCURVE",
"706 534 CURVE SMOOTH",
"692 534 OFFCURVE",
"676 525 OFFCURVE",
"676 492 CURVE SMOOTH",
"676 459 OFFCURVE",
"676 78 OFFCURVE",
"676 39 CURVE SMOOTH",
"676 0 OFFCURVE",
"587 -52 OFFCURVE",
"541 -52 CURVE SMOOTH",
"495 -52 OFFCURVE",
"447 -24 OFFCURVE",
"427 -10 CURVE SMOOTH",
"407 4 OFFCURVE",
"368 6 OFFCURVE",
"345 1 CURVE SMOOTH",
"324 -4 OFFCURVE",
"310 -9 OFFCURVE",
"282 -15 CURVE SMOOTH",
"264 -19 OFFCURVE",
"272 -40 OFFCURVE",
"292 -52 CURVE SMOOTH",
"315 -66 OFFCURVE",
"398 -111 OFFCURVE",
"568 -111 CURVE SMOOTH",
"714 -111 OFFCURVE",
"789 -53 OFFCURVE",
"789 58 CURVE SMOOTH",
"789 169 OFFCURVE",
"789 466 OFFCURVE",
"789 492 CURVE SMOOTH",
"789 523 OFFCURVE",
"787 534 OFFCURVE"
);
}
);
width = 1000;
}
);
unicode = FF47;
},
{
color = 7;
glyphname = h.full;
lastChange = "2019-12-13 05:40:23 +0000";
layers = (
{
layerId = "47F7128E-F1A6-4572-9BDC-88462FF34A66";
paths = (
{
closed = 1;
nodes = (
"260 9 LINE SMOOTH",
"260 -10 OFFCURVE",
"275 -25 OFFCURVE",
"294 -25 CURVE SMOOTH",
"357 -25 LINE SMOOTH",
"376 -25 OFFCURVE",
"391 -10 OFFCURVE",
"391 9 CURVE SMOOTH",
"391 726 LINE SMOOTH",
"391 745 OFFCURVE",
"376 760 OFFCURVE",
"357 760 CURVE SMOOTH",
"294 760 LINE SMOOTH",
"275 760 OFFCURVE",
"260 745 OFFCURVE",
"260 726 CURVE SMOOTH"
);
},
{
closed = 1;
nodes = (
"357 504 OFFCURVE",
"280 399 OFFCURVE",
"280 250 CURVE",
"385 157 LINE",
"385 265 OFFCURVE",
"403 435 OFFCURVE",
"547 435 CURVE SMOOTH",
"675 435 OFFCURVE",
"677 298 OFFCURVE",
"677 30 CURVE SMOOTH",
"677 -14 OFFCURVE",
"683 -31 OFFCURVE",
"698 -31 CURVE SMOOTH",
"712 -31 OFFCURVE",
"766 -31 OFFCURVE",
"776 -31 CURVE SMOOTH",
"787 -31 OFFCURVE",
"795 -25 OFFCURVE",
"795 0 CURVE SMOOTH",
"795 25 OFFCURVE",
"795 179 OFFCURVE",
"795 241 CURVE SMOOTH",
"795 430 OFFCURVE",
"669 504 OFFCURVE",
"544 504 CURVE"
);
}
);
width = 1000;
}
);
unicode = FF48;
},
{
color = 7;
glyphname = i.full;
lastChange = "2019-12-13 05:40:23 +0000";
layers = (
{
layerId = "47F7128E-F1A6-4572-9BDC-88462FF34A66";
paths = (
{
closed = 1;
nodes = (
"468 666 LINE SMOOTH",
"468 647 OFFCURVE",
"483 632 OFFCURVE",
"502 632 CURVE SMOOTH",
"568 632 LINE SMOOTH",
"587 632 OFFCURVE",
"602 647 OFFCURVE",
"602 666 CURVE SMOOTH",
"602 727 LINE SMOOTH",
"602 746 OFFCURVE",
"587 761 OFFCURVE",
"568 761 CURVE SMOOTH",
"502 761 LINE SMOOTH",
"483 761 OFFCURVE",
"468 746 OFFCURVE",
"468 727 CURVE SMOOTH"
);
},
{
closed = 1;
nodes = (
"475 12 LINE SMOOTH",
"475 -7 OFFCURVE",
"490 -22 OFFCURVE",
"509 -22 CURVE SMOOTH",
"562 -22 LINE SMOOTH",
"581 -22 OFFCURVE",
"596 -7 OFFCURVE",
"596 12 CURVE SMOOTH",
"596 487 LINE SMOOTH",
"596 506 OFFCURVE",
"581 521 OFFCURVE",
"562 521 CURVE SMOOTH",
"509 521 LINE SMOOTH",
"490 521 OFFCURVE",
"475 506 OFFCURVE",
"475 487 CURVE SMOOTH"
);
}
);
width = 1000;
}
);
unicode = FF49;
},
{
color = 7;
glyphname = j.full;
lastChange = "2019-12-13 05:40:23 +0000";
layers = (
{
layerId = "47F7128E-F1A6-4572-9BDC-88462FF34A66";
paths = (
{
closed = 1;
nodes = (
"621 656 LINE SMOOTH",
"621 637 OFFCURVE",
"636 622 OFFCURVE",
"655 622 CURVE SMOOTH",
"724 622 LINE SMOOTH",
"743 622 OFFCURVE",
"758 637 OFFCURVE",
"758 656 CURVE SMOOTH",
"758 708 LINE SMOOTH",
"758 727 OFFCURVE",
"743 742 OFFCURVE",
"724 742 CURVE SMOOTH",
"655 742 LINE SMOOTH",
"636 742 OFFCURVE",
"621 727 OFFCURVE",
"621 708 CURVE SMOOTH"
);
},
{
closed = 1;
nodes = (
"698 521 OFFCURVE",
"671 521 OFFCURVE",
"660 521 CURVE SMOOTH",
"649 521 OFFCURVE",
"640 512 OFFCURVE",
"640 492 CURVE SMOOTH",
"640 472 OFFCURVE",
"640 151 OFFCURVE",
"640 84 CURVE SMOOTH",
"640 14 OFFCURVE",
"571 -62 OFFCURVE",
"483 -62 CURVE SMOOTH",
"441 -62 OFFCURVE",
"363 -32 OFFCURVE",
"363 49 CURVE SMOOTH",
"363 69 OFFCURVE",
"360 87 OFFCURVE",
"340 87 CURVE SMOOTH",
"320 87 OFFCURVE",
"286 87 OFFCURVE",
"271 87 CURVE SMOOTH",
"256 87 OFFCURVE",
"256 55 OFFCURVE",
"256 13 CURVE SMOOTH",
"256 -29 OFFCURVE",
"346 -116 OFFCURVE",
"491 -116 CURVE SMOOTH",
"655 -116 OFFCURVE",
"745 -60 OFFCURVE",
"745 21 CURVE SMOOTH",
"745 102 OFFCURVE",
"745 486 OFFCURVE",
"745 507 CURVE SMOOTH",
"745 518 OFFCURVE",
"738 521 OFFCURVE",
"726 521 CURVE"
);
}
);
width = 1000;
}
);
unicode = FF4A;
},
{
color = 7;
glyphname = k.full;
lastChange = "2019-12-13 05:40:23 +0000";
layers = (
{
layerId = "47F7128E-F1A6-4572-9BDC-88462FF34A66";
paths = (
{
closed = 1;
nodes = (
"249 9 LINE SMOOTH",
"249 -10 OFFCURVE",
"263 -25 OFFCURVE",
"280 -25 CURVE SMOOTH",
"325 -25 LINE SMOOTH",
"343 -25 OFFCURVE",
"357 -10 OFFCURVE",
"357 9 CURVE SMOOTH",
"357 721 LINE SMOOTH",
"357 740 OFFCURVE",
"343 755 OFFCURVE",
"325 755 CURVE SMOOTH",
"280 755 LINE SMOOTH",
"263 755 OFFCURVE",
"249 740 OFFCURVE",
"249 721 CURVE SMOOTH"
);
},
{
closed = 1;
nodes = (
"730 505 OFFCURVE",
"705 505 OFFCURVE",
"680 505 CURVE SMOOTH",
"670 505 OFFCURVE",
"661 497 OFFCURVE",
"632 468 CURVE SMOOTH",
"619 455 OFFCURVE",
"357 206 OFFCURVE",
"341 190 CURVE",
"341 49 LINE",
"482 190 OFFCURVE",
"747 443 OFFCURVE",
"765 462 CURVE SMOOTH",
"783 481 OFFCURVE",
"802 505 OFFCURVE",
"766 505 CURVE"
);
},
{
closed = 1;
nodes = (
"776 -9 OFFCURVE",
"763 10 OFFCURVE",
"749 26 CURVE",
"519 262 LINE",
"448 190 LINE",
"460 177 OFFCURVE",
"583 55 OFFCURVE",
"609 24 CURVE SMOOTH",
"630 -1 OFFCURVE",
"643 -6 OFFCURVE",
"654 -6 CURVE SMOOTH",
"680 -6 OFFCURVE",
"701 -9 OFFCURVE",
"739 -9 CURVE"
);
}
);
width = 1000;
}
);
unicode = FF4B;
},
{
color = 7;
glyphname = l.full;
lastChange = "2019-12-13 05:40:23 +0000";
layers = (
{
layerId = "47F7128E-F1A6-4572-9BDC-88462FF34A66";
paths = (
{
closed = 1;
nodes = (
"442 15 LINE SMOOTH",
"442 -4 OFFCURVE",
"459 -19 OFFCURVE",
"480 -19 CURVE SMOOTH",
"520 -19 LINE SMOOTH",
"541 -19 OFFCURVE",
"558 -4 OFFCURVE",
"558 15 CURVE SMOOTH",
"558 726 LINE SMOOTH",
"558 745 OFFCURVE",
"541 760 OFFCURVE",
"520 760 CURVE SMOOTH",
"480 760 LINE SMOOTH",
"459 760 OFFCURVE",
"442 745 OFFCURVE",
"442 726 CURVE SMOOTH"
);
}
);
width = 1000;
}
);
unicode = FF4C;
},
{
color = 7;
glyphname = m.full;
lastChange = "2019-12-13 05:41:10 +0000";
layers = (
{
layerId = "47F7128E-F1A6-4572-9BDC-88462FF34A66";
paths = (
{
closed = 1;
nodes = (
"161 9 LINE SMOOTH",
"161 -10 OFFCURVE",
"176 -25 OFFCURVE",
"195 -25 CURVE SMOOTH",
"258 -25 LINE SMOOTH",
"277 -25 OFFCURVE",
"292 -10 OFFCURVE",
"292 9 CURVE SMOOTH",
"292 499 LINE SMOOTH",
"292 518 OFFCURVE",
"277 533 OFFCURVE",
"258 533 CURVE SMOOTH",
"195 533 LINE SMOOTH",
"176 533 OFFCURVE",
"161 518 OFFCURVE",
"161 499 CURVE SMOOTH"
);
},
{
closed = 1;
nodes = (
"216 504 OFFCURVE",
"181 399 OFFCURVE",
"181 250 CURVE",
"283 159 LINE",
"283 403 OFFCURVE",
"325 435 OFFCURVE",
"382 435 CURVE SMOOTH",
"446 435 OFFCURVE",
"450 354 OFFCURVE",
"450 30 CURVE SMOOTH",
"450 -14 OFFCURVE",
"459 -31 OFFCURVE",
"480 -31 CURVE SMOOTH",
"502 -31 OFFCURVE",
"520 -31 OFFCURVE",
"535 -31 CURVE SMOOTH",
"550 -31 OFFCURVE",
"563 -25 OFFCURVE",
"563 0 CURVE SMOOTH",
"563 25 OFFCURVE",
"563 179 OFFCURVE",
"563 241 CURVE SMOOTH",
"563 430 OFFCURVE",
"497 504 OFFCURVE",
"391 504 CURVE"
);
},
{
closed = 1;
nodes = (
"491 504 OFFCURVE",
"456 399 OFFCURVE",
"456 250 CURVE",
"558 159 LINE",
"558 403 OFFCURVE",
"600 435 OFFCURVE",
"657 435 CURVE SMOOTH",
"721 435 OFFCURVE",
"725 354 OFFCURVE",
"725 30 CURVE SMOOTH",
"725 -14 OFFCURVE",
"734 -31 OFFCURVE",
"755 -31 CURVE SMOOTH",
"777 -31 OFFCURVE",
"795 -31 OFFCURVE",
"810 -31 CURVE SMOOTH",
"825 -31 OFFCURVE",
"838 -25 OFFCURVE",
"838 0 CURVE SMOOTH",
"838 25 OFFCURVE",
"838 179 OFFCURVE",
"838 241 CURVE SMOOTH",
"838 430 OFFCURVE",
"772 504 OFFCURVE",
"666 504 CURVE"
);
}
);
width = 1000;
}
);
unicode = FF4D;
},
{
color = 7;
glyphname = n.full;
lastChange = "2019-12-13 05:40:23 +0000";
layers = (
{
layerId = "47F7128E-F1A6-4572-9BDC-88462FF34A66";
paths = (
{
closed = 1;
nodes = (
"239 9 LINE SMOOTH",
"239 -10 OFFCURVE",
"254 -25 OFFCURVE",
"273 -25 CURVE SMOOTH",
"336 -25 LINE SMOOTH",
"355 -25 OFFCURVE",
"370 -10 OFFCURVE",
"370 9 CURVE SMOOTH",
"370 499 LINE SMOOTH",
"370 518 OFFCURVE",
"355 533 OFFCURVE",
"336 533 CURVE SMOOTH",
"273 533 LINE SMOOTH",
"254 533 OFFCURVE",
"239 518 OFFCURVE",
"239 499 CURVE SMOOTH"
);
},
{
closed = 1;
nodes = (
"346 504 OFFCURVE",
"259 397 OFFCURVE",
"259 250 CURVE",
"364 157 LINE",
"364 364 OFFCURVE",
"378 435 OFFCURVE",
"511 435 CURVE SMOOTH",
"637 435 OFFCURVE",
"641 386 OFFCURVE",
"641 30 CURVE SMOOTH",
"641 -14 OFFCURVE",
"648 -31 OFFCURVE",
"665 -31 CURVE SMOOTH",
"682 -31 OFFCURVE",
"728 -31 OFFCURVE",
"740 -31 CURVE SMOOTH",
"752 -31 OFFCURVE",
"762 -25 OFFCURVE",
"762 0 CURVE SMOOTH",
"762 25 OFFCURVE",
"762 179 OFFCURVE",
"762 241 CURVE SMOOTH",
"762 430 OFFCURVE",
"690 504 OFFCURVE",
"526 504 CURVE"
);
}
);
width = 1000;
}
);
unicode = FF4E;
},
{
color = 7;
glyphname = o.full;
lastChange = "2019-12-13 05:40:23 +0000";
layers = (
{
layerId = "47F7128E-F1A6-4572-9BDC-88462FF34A66";
paths = (
{
closed = 1;
nodes = (
"334 529 OFFCURVE",
"219 463 OFFCURVE",
"219 260 CURVE SMOOTH",
"219 47 OFFCURVE",
"338 -33 OFFCURVE",
"489 -33 CURVE SMOOTH",
"640 -33 OFFCURVE",
"781 61 OFFCURVE",
"781 243 CURVE SMOOTH",
"781 428 OFFCURVE",
"639 529 OFFCURVE",
"501 529 CURVE"
);
},
{
closed = 1;
nodes = (
"587 450 OFFCURVE",
"665 405 OFFCURVE",
"665 261 CURVE SMOOTH",
"665 77 OFFCURVE",
"582 37 OFFCURVE",
"501 37 CURVE SMOOTH",
"422 37 OFFCURVE",
"334 44 OFFCURVE",
"334 250 CURVE SMOOTH",
"334 391 OFFCURVE",
"419 450 OFFCURVE",
"499 450 CURVE"
);
}
);
width = 1000;
}
);
unicode = FF4F;
},
{
color = 7;
glyphname = p.full;
lastChange = "2019-12-13 05:40:23 +0000";
layers = (
{
layerId = "47F7128E-F1A6-4572-9BDC-88462FF34A66";
paths = (
{
closed = 1;
nodes = (
"422 509 OFFCURVE",
"355 425 OFFCURVE",
"355 260 CURVE SMOOTH",
"355 95 OFFCURVE",
"454 37 OFFCURVE",
"574 37 CURVE SMOOTH",
"781 37 OFFCURVE",
"832 105 OFFCURVE",
"832 243 CURVE SMOOTH",
"832 381 OFFCURVE",
"746 509 OFFCURVE",
"589 509 CURVE SMOOTH"
);
},
{
closed = 1;
nodes = (
"665 450 OFFCURVE",
"727 371 OFFCURVE",
"727 261 CURVE",
"727 191 OFFCURVE",
"693 88 OFFCURVE",
"596 88 CURVE SMOOTH",
"498 88 OFFCURVE",
"442 129 OFFCURVE",
"442 250 CURVE SMOOTH",
"442 392 OFFCURVE",
"478 450 OFFCURVE",
"592 450 CURVE SMOOTH"
);
},
{
closed = 1;
nodes = (
"337 -83 LINE SMOOTH",
"337 -102 OFFCURVE",
"352 -117 OFFCURVE",
"371 -117 CURVE SMOOTH",
"422 -117 LINE SMOOTH",
"441 -117 OFFCURVE",
"456 -102 OFFCURVE",
"456 -83 CURVE SMOOTH",
"456 500 LINE SMOOTH",
"456 519 OFFCURVE",
"441 534 OFFCURVE",
"422 534 CURVE SMOOTH",
"371 534 LINE SMOOTH",
"352 534 OFFCURVE",
"337 519 OFFCURVE",
"337 500 CURVE SMOOTH"
);
}
);
width = 1000;
}
);
unicode = FF50;
},
{
color = 7;
glyphname = q.full;
lastChange = "2019-12-13 05:40:23 +0000";
layers = (
{
layerId = "47F7128E-F1A6-4572-9BDC-88462FF34A66";
paths = (
{
closed = 1;
nodes = (
"344 509 OFFCURVE",
"258 381 OFFCURVE",
"258 243 CURVE SMOOTH",
"258 105 OFFCURVE",
"309 37 OFFCURVE",
"516 37 CURVE SMOOTH",
"636 37 OFFCURVE",
"735 95 OFFCURVE",
"735 260 CURVE SMOOTH",
"735 425 OFFCURVE",
"668 509 OFFCURVE",
"501 509 CURVE SMOOTH"
);
},
{
closed = 1;
nodes = (
"612 450 OFFCURVE",
"648 392 OFFCURVE",
"648 250 CURVE SMOOTH",
"648 129 OFFCURVE",
"592 88 OFFCURVE",
"494 88 CURVE SMOOTH",
"397 88 OFFCURVE",
"363 191 OFFCURVE",
"363 261 CURVE",
"363 371 OFFCURVE",
"425 450 OFFCURVE",
"498 450 CURVE SMOOTH"
);
},
{
closed = 1;
nodes = (
"753 519 OFFCURVE",
"738 534 OFFCURVE",
"719 534 CURVE SMOOTH",
"668 534 LINE SMOOTH",
"649 534 OFFCURVE",
"634 519 OFFCURVE",
"634 500 CURVE SMOOTH",
"634 -83 LINE SMOOTH",
"634 -102 OFFCURVE",
"649 -117 OFFCURVE",
"668 -117 CURVE SMOOTH",
"719 -117 LINE SMOOTH",
"738 -117 OFFCURVE",
"753 -102 OFFCURVE",
"753 -83 CURVE SMOOTH",
"753 500 LINE SMOOTH"
);
}
);
width = 1000;
}
);
unicode = FF51;
},
{
color = 7;
glyphname = r.full;
lastChange = "2019-12-13 05:40:23 +0000";
layers = (
{
layerId = "47F7128E-F1A6-4572-9BDC-88462FF34A66";
paths = (
{
closed = 1;
nodes = (
"292 10 LINE SMOOTH",
"292 -9 OFFCURVE",
"307 -24 OFFCURVE",
"326 -24 CURVE SMOOTH",
"377 -24 LINE SMOOTH",
"396 -24 OFFCURVE",
"411 -9 OFFCURVE",
"411 10 CURVE SMOOTH",
"411 493 LINE SMOOTH",
"411 512 OFFCURVE",
"396 527 OFFCURVE",
"377 527 CURVE SMOOTH",
"326 527 LINE SMOOTH",
"307 527 OFFCURVE",
"292 512 OFFCURVE",
"292 493 CURVE SMOOTH"
);
},
{
closed = 1;
nodes = (
"443 510 OFFCURVE",
"398 455 OFFCURVE",
"398 390 CURVE",
"398 152 LINE",
"398 315 OFFCURVE",
"452 439 OFFCURVE",
"562 439 CURVE SMOOTH",
"671 439 OFFCURVE",
"707 418 OFFCURVE",
"721 411 CURVE SMOOTH",
"735 404 OFFCURVE",
"752 407 OFFCURVE",
"757 421 CURVE SMOOTH",
"762 435 OFFCURVE",
"758 451 OFFCURVE",
"740 462 CURVE SMOOTH",
"722 473 OFFCURVE",
"669 513 OFFCURVE",
"546 513 CURVE"
);
}
);
width = 1000;
}
);
unicode = FF52;
},
{
color = 7;
glyphname = s.full;
lastChange = "2019-12-13 05:40:23 +0000";
layers = (
{
layerId = "47F7128E-F1A6-4572-9BDC-88462FF34A66";
paths = (
{
closed = 1;
nodes = (
"351 517 OFFCURVE",
"286 415 OFFCURVE",
"286 375 CURVE SMOOTH",
"286 254 OFFCURVE",
"322 221 OFFCURVE",
"544 221 CURVE SMOOTH",
"610 221 OFFCURVE",
"687 180 OFFCURVE",
"687 118 CURVE SMOOTH",
"687 65 OFFCURVE",
"631 26 OFFCURVE",
"560 26 CURVE SMOOTH",
"475 26 OFFCURVE",
"397 30 OFFCURVE",
"397 106 CURVE SMOOTH",
"397 118 OFFCURVE",
"384 122 OFFCURVE",
"342 122 CURVE SMOOTH",
"307 122 OFFCURVE",
"278 118 OFFCURVE",
"278 95 CURVE SMOOTH",
"278 5 OFFCURVE",
"366 -31 OFFCURVE",
"552 -31 CURVE SMOOTH",
"737 -31 OFFCURVE",
"796 7 OFFCURVE",
"796 121 CURVE SMOOTH",
"796 203 OFFCURVE",
"738 273 OFFCURVE",
"569 273 CURVE SMOOTH",
"441 273 OFFCURVE",
"397 296 OFFCURVE",
"397 358 CURVE SMOOTH",
"397 416 OFFCURVE",
"431 466 OFFCURVE",
"549 466 CURVE SMOOTH",
"680 466 OFFCURVE",
"686 387 OFFCURVE",
"782 387 CURVE SMOOTH",
"801 387 OFFCURVE",
"811 406 OFFCURVE",
"811 413 CURVE SMOOTH",
"811 476 OFFCURVE",
"669 517 OFFCURVE",
"533 517 CURVE"
);
}
);
width = 1000;
}
);
unicode = FF53;
},
{
color = 7;
glyphname = t.full;
lastChange = "2019-12-13 05:40:23 +0000";
layers = (
{
layerId = "47F7128E-F1A6-4572-9BDC-88462FF34A66";
paths = (
{
closed = 1;
nodes = (
"437 21 LINE SMOOTH",
"437 2 OFFCURVE",
"452 -13 OFFCURVE",
"471 -13 CURVE SMOOTH",
"531 -13 LINE SMOOTH",
"550 -13 OFFCURVE",
"565 2 OFFCURVE",
"565 21 CURVE SMOOTH",
"565 734 LINE SMOOTH",
"565 753 OFFCURVE",
"550 768 OFFCURVE",
"531 768 CURVE SMOOTH",
"471 768 LINE SMOOTH",
"452 768 OFFCURVE",
"437 753 OFFCURVE",
"437 734 CURVE SMOOTH"
);
},
{
closed = 1;
nodes = (
"250 462 OFFCURVE",
"269 451 OFFCURVE",
"293 451 CURVE SMOOTH",
"708 451 LINE SMOOTH",
"732 451 OFFCURVE",
"751 462 OFFCURVE",
"751 477 CURVE SMOOTH",
"751 492 OFFCURVE",
"732 503 OFFCURVE",
"708 503 CURVE SMOOTH",
"293 503 LINE SMOOTH",
"269 503 OFFCURVE",
"250 492 OFFCURVE",
"250 477 CURVE SMOOTH"
);
}
);
width = 1000;
}
);
unicode = FF54;
},
{
color = 7;
glyphname = u.full;
lastChange = "2019-12-13 05:40:23 +0000";
layers = (
{
layerId = "47F7128E-F1A6-4572-9BDC-88462FF34A66";
paths = (
{
closed = 1;
nodes = (
"761 495 LINE SMOOTH",
"761 514 OFFCURVE",
"746 529 OFFCURVE",
"727 529 CURVE SMOOTH",
"664 529 LINE SMOOTH",
"645 529 OFFCURVE",
"630 514 OFFCURVE",
"630 495 CURVE SMOOTH",
"630 25 LINE SMOOTH",
"630 6 OFFCURVE",
"645 -9 OFFCURVE",
"664 -9 CURVE SMOOTH",
"727 -9 LINE SMOOTH",
"746 -9 OFFCURVE",
"761 6 OFFCURVE",
"761 25 CURVE SMOOTH"
);
},
{
closed = 1;
nodes = (
"654 20 OFFCURVE",
"746 187 OFFCURVE",
"746 334 CURVE",
"641 427 LINE",
"641 220 OFFCURVE",
"622 69 OFFCURVE",
"489 69 CURVE SMOOTH",
"363 69 OFFCURVE",
"359 118 OFFCURVE",
"359 474 CURVE SMOOTH",
"359 518 OFFCURVE",
"352 535 OFFCURVE",
"335 535 CURVE SMOOTH",
"318 535 OFFCURVE",
"272 535 OFFCURVE",
"260 535 CURVE SMOOTH",
"248 535 OFFCURVE",
"238 529 OFFCURVE",
"238 504 CURVE SMOOTH",
"238 479 OFFCURVE",
"238 325 OFFCURVE",
"238 263 CURVE SMOOTH",
"238 74 OFFCURVE",
"310 0 OFFCURVE",
"474 0 CURVE"
);
}
);
width = 1000;
}
);
unicode = FF55;
},
{
color = 7;
glyphname = v.full;
lastChange = "2019-12-13 05:40:23 +0000";
layers = (
{
layerId = "47F7128E-F1A6-4572-9BDC-88462FF34A66";
paths = (
{
closed = 1;
nodes = (
"233 512 OFFCURVE",
"231 496 OFFCURVE",
"242 455 CURVE SMOOTH",
"250 425 OFFCURVE",
"406 78 OFFCURVE",
"424 33 CURVE SMOOTH",
"438 -12 OFFCURVE",
"456 -22 OFFCURVE",
"478 -22 CURVE SMOOTH",
"500 -22 OFFCURVE",
"522 -22 OFFCURVE",
"548 -22 CURVE SMOOTH",
"574 -22 OFFCURVE",
"591 17 OFFCURVE",
"603 50 CURVE SMOOTH",
"623 104 OFFCURVE",
"735 398 OFFCURVE",
"761 460 CURVE SMOOTH",
"771 484 OFFCURVE",
"762 510 OFFCURVE",
"742 510 CURVE SMOOTH",
"722 510 OFFCURVE",
"715 510 OFFCURVE",
"697 510 CURVE SMOOTH",
"668 510 OFFCURVE",
"655 498 OFFCURVE",
"647 470 CURVE SMOOTH",
"496 104 LINE",
"525 104 LINE",
"355 471 LINE SMOOTH",
"341 500 OFFCURVE",
"336 512 OFFCURVE",
"319 512 CURVE SMOOTH",
"264 512 LINE SMOOTH"
);
}
);
width = 1000;
}
);
unicode = FF56;
},
{
color = 7;
glyphname = w.full;
lastChange = "2019-12-13 05:40:23 +0000";
layers = (
{
layerId = "47F7128E-F1A6-4572-9BDC-88462FF34A66";
paths = (
{
closed = 1;
nodes = (
"95 512 OFFCURVE",
"94 496 OFFCURVE",
"104 455 CURVE SMOOTH",
"111 425 OFFCURVE",
"252 78 OFFCURVE",
"268 33 CURVE SMOOTH",
"284 -11 OFFCURVE",
"297 -22 OFFCURVE",
"317 -22 CURVE SMOOTH",
"337 -22 OFFCURVE",
"377 -22 OFFCURVE",
"400 -22 CURVE SMOOTH",
"424 -22 OFFCURVE",
"439 17 OFFCURVE",
"450 50 CURVE SMOOTH",
"468 104 OFFCURVE",
"521 354 OFFCURVE",
"544 416 CURVE SMOOTH",
"553 440 OFFCURVE",
"545 466 OFFCURVE",
"527 466 CURVE SMOOTH",
"509 466 OFFCURVE",
"502 466 OFFCURVE",
"486 466 CURVE SMOOTH",
"460 466 OFFCURVE",
"449 454 OFFCURVE",
"441 426 CURVE SMOOTH",
"353 104 LINE",
"379 104 LINE",
"226 471 LINE SMOOTH",
"214 500 OFFCURVE",
"208 512 OFFCURVE",
"193 512 CURVE SMOOTH",
"123 512 LINE SMOOTH"
);
},
{
closed = 1;
nodes = (
"449 458 OFFCURVE",
"447 442 OFFCURVE",
"457 401 CURVE SMOOTH",
"464 371 OFFCURVE",
"543 78 OFFCURVE",
"559 33 CURVE SMOOTH",
"575 -11 OFFCURVE",
"588 -22 OFFCURVE",
"608 -22 CURVE SMOOTH",
"628 -22 OFFCURVE",
"668 -22 OFFCURVE",
"691 -22 CURVE SMOOTH",
"715 -22 OFFCURVE",
"730 17 OFFCURVE",
"741 50 CURVE SMOOTH",
"759 104 OFFCURVE",
"861 398 OFFCURVE",
"884 460 CURVE SMOOTH",
"893 484 OFFCURVE",
"885 510 OFFCURVE",
"867 510 CURVE SMOOTH",
"849 510 OFFCURVE",
"822 510 OFFCURVE",
"806 510 CURVE SMOOTH",
"780 510 OFFCURVE",
"771 497 OFFCURVE",
"761 470 CURVE SMOOTH",
"624 104 LINE",
"651 104 LINE",
"559 417 LINE SMOOTH",
"550 448 OFFCURVE",
"542 458 OFFCURVE",
"527 458 CURVE SMOOTH",
"477 458 LINE SMOOTH"
);
}
);
width = 1000;
}
);
unicode = FF57;
},
{
color = 7;
glyphname = x.full;
lastChange = "2019-12-13 05:40:23 +0000";
layers = (
{
layerId = "47F7128E-F1A6-4572-9BDC-88462FF34A66";
paths = (
{
closed = 1;
nodes = (
"652 525 OFFCURVE",
"628 506 OFFCURVE",
"616 488 CURVE SMOOTH",
"604 470 OFFCURVE",
"273 49 OFFCURVE",
"249 21 CURVE SMOOTH",
"225 -7 OFFCURVE",
"244 -28 OFFCURVE",
"260 -28 CURVE SMOOTH",
"275 -28 OFFCURVE",
"299 -28 OFFCURVE",
"321 -28 CURVE SMOOTH",
"341 -28 OFFCURVE",
"364 -15 OFFCURVE",
"380 3 CURVE SMOOTH",
"397 22 OFFCURVE",
"733 455 OFFCURVE",
"751 478 CURVE SMOOTH",
"769 502 OFFCURVE",
"762 525 OFFCURVE",
"748 525 CURVE SMOOTH",
"732 525 OFFCURVE",
"698 525 OFFCURVE",
"671 525 CURVE"
);
},
{
closed = 1;
nodes = (
"301 525 OFFCURVE",
"267 525 OFFCURVE",
"251 525 CURVE SMOOTH",
"237 525 OFFCURVE",
"230 502 OFFCURVE",
"248 478 CURVE SMOOTH",
"266 455 OFFCURVE",
"602 22 OFFCURVE",
"619 3 CURVE SMOOTH",
"635 -15 OFFCURVE",
"658 -28 OFFCURVE",
"678 -28 CURVE SMOOTH",
"700 -28 OFFCURVE",
"724 -28 OFFCURVE",
"739 -28 CURVE SMOOTH",
"755 -28 OFFCURVE",
"774 -7 OFFCURVE",
"750 21 CURVE SMOOTH",
"726 49 OFFCURVE",
"395 470 OFFCURVE",
"383 488 CURVE SMOOTH",
"371 506 OFFCURVE",
"347 525 OFFCURVE",
"328 525 CURVE"
);
}
);
width = 1000;
}
);
unicode = FF58;
},
{
color = 7;
glyphname = y.full;
lastChange = "2019-12-13 05:40:23 +0000";
layers = (
{
layerId = "47F7128E-F1A6-4572-9BDC-88462FF34A66";
paths = (
{
closed = 1;
nodes = (
"716 525 OFFCURVE",
"694 506 OFFCURVE",
"684 488 CURVE SMOOTH",
"674 470 OFFCURVE",
"391 -24 OFFCURVE",
"369 -52 CURVE SMOOTH",
"348 -80 OFFCURVE",
"367 -101 OFFCURVE",
"382 -101 CURVE SMOOTH",
"396 -101 OFFCURVE",
"418 -101 OFFCURVE",
"439 -101 CURVE SMOOTH",
"458 -101 OFFCURVE",
"479 -88 OFFCURVE",
"493 -70 CURVE SMOOTH",
"507 -51 OFFCURVE",
"795 455 OFFCURVE",
"811 478 CURVE SMOOTH",
"827 501 OFFCURVE",
"820 525 OFFCURVE",
"807 525 CURVE SMOOTH",
"791 525 OFFCURVE",
"760 525 OFFCURVE",
"734 525 CURVE"
);
},
{
closed = 1;
nodes = (
"380 516 OFFCURVE",
"352 516 OFFCURVE",
"338 516 CURVE SMOOTH",
"326 516 OFFCURVE",
"320 493 OFFCURVE",
"338 470 CURVE SMOOTH",
"355 448 OFFCURVE",
"476 218 OFFCURVE",
"492 200 CURVE SMOOTH",
"506 185 OFFCURVE",
"529 131 OFFCURVE",
"546 131 CURVE SMOOTH",
"565 131 OFFCURVE",
"585 131 OFFCURVE",
"597 131 CURVE SMOOTH",
"611 131 OFFCURVE",
"616 180 OFFCURVE",
"595 207 CURVE SMOOTH",
"573 235 OFFCURVE",
"462 462 OFFCURVE",
"450 480 CURVE SMOOTH",
"438 498 OFFCURVE",
"419 516 OFFCURVE",
"403 516 CURVE"
);
}
);
width = 1000;
}
);
unicode = FF59;
},
{
color = 7;
glyphname = z.full;
lastChange = "2019-12-13 05:40:23 +0000";
layers = (
{
layerId = "47F7128E-F1A6-4572-9BDC-88462FF34A66";
paths = (
{
closed = 1;
nodes = (
"710 511 OFFCURVE",
"289 511 OFFCURVE",
"259 511 CURVE SMOOTH",
"229 511 OFFCURVE",
"211 502 OFFCURVE",
"212 481 CURVE SMOOTH",
"213 460 OFFCURVE",
"232 448 OFFCURVE",
"259 448 CURVE SMOOTH",
"286 448 OFFCURVE",
"565 448 OFFCURVE",
"582 448 CURVE SMOOTH",
"599 448 OFFCURVE",
"602 437 OFFCURVE",
"580 417 CURVE SMOOTH",
"556 396 OFFCURVE",
"246 79 OFFCURVE",
"228 57 CURVE SMOOTH",
"210 35 OFFCURVE",
"196 0 OFFCURVE",
"230 0 CURVE SMOOTH",
"264 0 OFFCURVE",
"721 0 OFFCURVE",
"750 0 CURVE SMOOTH",
"779 0 OFFCURVE",
"785 5 OFFCURVE",
"786 27 CURVE SMOOTH",
"787 49 OFFCURVE",
"773 62 OFFCURVE",
"746 62 CURVE SMOOTH",
"719 62 OFFCURVE",
"404 62 OFFCURVE",
"383 62 CURVE SMOOTH",
"362 62 OFFCURVE",
"368 83 OFFCURVE",
"396 113 CURVE SMOOTH",
"424 143 OFFCURVE",
"738 448 OFFCURVE",
"758 470 CURVE SMOOTH",
"779 493 OFFCURVE",
"788 511 OFFCURVE",
"758 511 CURVE"
);
}
);
width = 1000;
}
);
unicode = FF5A;
},
{
color = 5;
glyphname = ordfeminine;
lastChange = "2019-12-11 06:40:48 +0000";
layers = (
{
layerId = "47F7128E-F1A6-4572-9BDC-88462FF34A66";
paths = (
{
closed = 1;
nodes = (
"100 678 OFFCURVE",
"21 608 OFFCURVE",
"21 537 CURVE SMOOTH",
"21 466 OFFCURVE",
"40 402 OFFCURVE",
"148 402 CURVE SMOOTH",
"218 402 OFFCURVE",
"275 426 OFFCURVE",
"287 432 CURVE SMOOTH",
"299 438 OFFCURVE",
"304 439 OFFCURVE",
"311 430 CURVE SMOOTH",
"318 422 OFFCURVE",
"322 416 OFFCURVE",
"326 412 CURVE SMOOTH",
"330 408 OFFCURVE",
"340 401 OFFCURVE",
"353 401 CURVE SMOOTH",
"366 401 OFFCURVE",
"409 401 OFFCURVE",
"426 401 CURVE SMOOTH",
"443 401 OFFCURVE",
"444 412 OFFCURVE",
"437 423 CURVE SMOOTH",
"430 435 OFFCURVE",
"408 479 OFFCURVE",
"408 510 CURVE SMOOTH",
"408 541 OFFCURVE",
"414 561 OFFCURVE",
"418 570 CURVE SMOOTH",
"422 579 OFFCURVE",
"416 595 OFFCURVE",
"408 606 CURVE SMOOTH",
"391 629 OFFCURVE",
"337 678 OFFCURVE",
"218 678 CURVE"
);
},
{
closed = 1;
nodes = (
"244 619 OFFCURVE",
"293 607 OFFCURVE",
"293 576 CURVE SMOOTH",
"293 535 OFFCURVE",
"244 465 OFFCURVE",
"200 465 CURVE SMOOTH",
"156 465 OFFCURVE",
"135 492 OFFCURVE",
"135 537 CURVE SMOOTH",
"135 581 OFFCURVE",
"168 619 OFFCURVE",
"217 619 CURVE"
);
}
);
width = 474;
}
);
leftMetricsKey = a;
rightMetricsKey = a;
unicode = 00AA;
},
{
color = 5;
glyphname = ordmasculine;
lastChange = "2019-12-11 06:40:48 +0000";
layers = (
{
layerId = "47F7128E-F1A6-4572-9BDC-88462FF34A66";
paths = (
{
closed = 1;
nodes = (
"99 689 OFFCURVE",
"38 601 OFFCURVE",
"38 509 CURVE SMOOTH",
"38 417 OFFCURVE",
"86 351 OFFCURVE",
"221 351 CURVE SMOOTH",
"356 351 OFFCURVE",
"401 403 OFFCURVE",
"401 509 CURVE SMOOTH",
"401 615 OFFCURVE",
"361 689 OFFCURVE",
"231 689 CURVE"
);
},
{
closed = 1;
nodes = (
"265 616 OFFCURVE",
"267 584 OFFCURVE",
"267 527 CURVE SMOOTH",
"267 470 OFFCURVE",
"254 429 OFFCURVE",
"218 429 CURVE SMOOTH",
"182 429 OFFCURVE",
"177 484 OFFCURVE",
"177 524 CURVE SMOOTH",
"177 564 OFFCURVE",
"207 616 OFFCURVE",
"230 616 CURVE"
);
}
);
width = 441;
}
);
leftMetricsKey = o;
rightMetricsKey = o;
unicode = 00BA;
},
{
color = 5;
glyphname = "close-han";
lastChange = "2019-12-13 04:15:56 +0000";
layers = (
{
layerId = "47F7128E-F1A6-4572-9BDC-88462FF34A66";
paths = (
{
closed = 1;
nodes = (
"790 774 LINE SMOOTH",
"770 774 OFFCURVE",
"764 772 OFFCURVE",
"753 759 CURVE SMOOTH",
"160 52 LINE",
"209 52 LINE",
"249 355 OFFCURVE",
"311 482 OFFCURVE",
"367 482 CURVE SMOOTH",
"442 482 OFFCURVE",
"529 418 OFFCURVE",
"809 167 CURVE SMOOTH",
"834 145 OFFCURVE",
"846 143 OFFCURVE",
"870 158 CURVE SMOOTH",
"895 174 OFFCURVE",
"893 184 OFFCURVE",
"866 213 CURVE",
"562 498 OFFCURVE",
"457 569 OFFCURVE",
"337 569 CURVE SMOOTH",
"224 569 OFFCURVE",
"96 384 OFFCURVE",
"96 52 CURVE SMOOTH",
"96 32 OFFCURVE",
"100 24 OFFCURVE",
"122 15 CURVE SMOOTH",
"209 -22 LINE SMOOTH",
"239 -35 OFFCURVE",
"250 -34 OFFCURVE",
"271 -8 CURVE SMOOTH",
"848 687 LINE SMOOTH",
"904 756 OFFCURVE",
"904 774 OFFCURVE",
"843 774 CURVE SMOOTH"
);
}
);
width = 1000;
}
);
unicode = 3006;
},
{
color = 5;
glyphname = "iterationmark-han";
lastChange = "2019-12-13 04:15:56 +0000";
layers = (
{
layerId = "47F7128E-F1A6-4572-9BDC-88462FF34A66";
paths = (
{
closed = 1;
nodes = (
"377 716 LINE SMOOTH",
"361 716 OFFCURVE",
"354 713 OFFCURVE",
"347 697 CURVE SMOOTH",
"127 272 LINE SMOOTH",
"98 216 OFFCURVE",
"106 202 OFFCURVE",
"168 202 CURVE SMOOTH",
"184 202 OFFCURVE",
"190 205 OFFCURVE",
"198 220 CURVE SMOOTH",
"431 644 LINE SMOOTH",
"462 702 OFFCURVE",
"458 716 OFFCURVE",
"413 716 CURVE SMOOTH"
);
},
{
closed = 1;
nodes = (
"346 603 LINE",
"335 561 LINE",
"663 561 LINE SMOOTH",
"722 561 OFFCURVE",
"731 546 OFFCURVE",
"704 492 CURVE SMOOTH",
"549 176 LINE",
"628 107 LINE",
"855 532 LINE SMOOTH",
"886 589 OFFCURVE",
"877 603 OFFCURVE",
"813 603 CURVE SMOOTH"
);
},
{
closed = 1;
nodes = (
"316 325 OFFCURVE",
"322 304 OFFCURVE",
"422 220 CURVE SMOOTH",
"633 40 LINE SMOOTH",
"640 34 OFFCURVE",
"645 33 OFFCURVE",
"655 33 CURVE SMOOTH",
"695 33 LINE SMOOTH",
"735 33 OFFCURVE",
"721 54 OFFCURVE",
"625 138 CURVE SMOOTH",
"417 317 LINE SMOOTH",
"410 324 OFFCURVE",
"406 325 OFFCURVE",
"395 325 CURVE SMOOTH"
);
}
);
width = 1000;
}
);
unicode = 3005;
},
{
color = 7;
glyphname = uni4E00;
lastChange = "2019-12-14 12:04:16 +0000";
layers = (
{
layerId = "47F7128E-F1A6-4572-9BDC-88462FF34A66";
paths = (
{
closed = 1;
nodes = (
"90 384 LINE SMOOTH",
"69 384 OFFCURVE",
"57 373 OFFCURVE",
"57 354 CURVE SMOOTH",
"57 335 OFFCURVE",
"69 324 OFFCURVE",
"90 324 CURVE SMOOTH",
"904 324 LINE SMOOTH",
"925 324 OFFCURVE",
"937 335 OFFCURVE",
"937 354 CURVE SMOOTH",
"937 373 OFFCURVE",
"925 384 OFFCURVE",
"904 384 CURVE SMOOTH"
);
}
);
width = 1000;
},
{
associatedMasterId = "47F7128E-F1A6-4572-9BDC-88462FF34A66";
layerId = "179B4DA1-91B1-4D8A-A634-D2A23E7CA522";
name = openpath;
paths = (
{
closed = 1;
nodes = (
"90 384 LINE SMOOTH",
"69 384 OFFCURVE",
"57 373 OFFCURVE",
"57 354 CURVE SMOOTH",
"57 335 OFFCURVE",
"69 324 OFFCURVE",
"90 324 CURVE SMOOTH",
"904 324 LINE SMOOTH",
"925 324 OFFCURVE",
"937 335 OFFCURVE",
"937 354 CURVE SMOOTH",
"937 373 OFFCURVE",
"925 384 OFFCURVE",
"904 384 CURVE SMOOTH"
);
}
);
width = 1000;
}
);
unicode = 4E00;
},
{
color = 7;
glyphname = uni4E03;
lastChange = "2019-12-14 12:04:16 +0000";
layers = (
{
layerId = "47F7128E-F1A6-4572-9BDC-88462FF34A66";
paths = (
{
closed = 1;
nodes = (
"93 418 LINE SMOOTH",
"70 414 OFFCURVE",
"61 399 OFFCURVE",
"69 381 CURVE SMOOTH",
"77 363 OFFCURVE",
"90 354 OFFCURVE",
"109 358 CURVE SMOOTH",
"890 503 LINE SMOOTH",
"913 507 OFFCURVE",
"922 522 OFFCURVE",
"914 540 CURVE SMOOTH",
"906 558 OFFCURVE",
"893 567 OFFCURVE",
"874 563 CURVE SMOOTH"
);
},
{
closed = 1;
nodes = (
"402 28 LINE SMOOTH",
"381 28 OFFCURVE",
"369 40 OFFCURVE",
"369 61 CURVE SMOOTH",
"369 740 LINE SMOOTH",
"369 761 OFFCURVE",
"357 773 OFFCURVE",
"336 773 CURVE SMOOTH",
"274 773 LINE SMOOTH",
"253 773 OFFCURVE",
"241 761 OFFCURVE",
"241 740 CURVE SMOOTH",
"241 1 LINE SMOOTH",
"241 -20 OFFCURVE",
"253 -32 OFFCURVE",
"274 -32 CURVE SMOOTH",
"866 -32 LINE SMOOTH",
"887 -32 OFFCURVE",
"899 -21 OFFCURVE",
"899 -2 CURVE SMOOTH",
"899 17 OFFCURVE",
"887 28 OFFCURVE",
"866 28 CURVE SMOOTH"
);
}
);
width = 1000;
}
);
unicode = 4E03;
},
{
color = 7;
glyphname = uni4E09;
lastChange = "2019-12-14 12:04:16 +0000";
layers = (
{
layerId = "47F7128E-F1A6-4572-9BDC-88462FF34A66";
paths = (
{
closed = 1;
nodes = (
"149 713 LINE SMOOTH",
"128 713 OFFCURVE",
"116 702 OFFCURVE",
"116 683 CURVE SMOOTH",
"116 664 OFFCURVE",
"128 653 OFFCURVE",
"149 653 CURVE SMOOTH",
"850 653 LINE SMOOTH",
"871 653 OFFCURVE",
"883 664 OFFCURVE",
"883 683 CURVE SMOOTH",
"883 702 OFFCURVE",
"871 713 OFFCURVE",
"850 713 CURVE SMOOTH"
);
},
{
closed = 1;
nodes = (
"257 382 LINE SMOOTH",
"236 382 OFFCURVE",
"224 371 OFFCURVE",
"224 352 CURVE SMOOTH",
"224 333 OFFCURVE",
"236 322 OFFCURVE",
"257 322 CURVE SMOOTH",
"761 322 LINE SMOOTH",
"782 322 OFFCURVE",
"794 333 OFFCURVE",
"794 352 CURVE SMOOTH",
"794 371 OFFCURVE",
"782 382 OFFCURVE",
"761 382 CURVE SMOOTH"
);
},
{
closed = 1;
nodes = (
"127 39 LINE SMOOTH",
"106 39 OFFCURVE",
"94 28 OFFCURVE",
"94 9 CURVE SMOOTH",
"94 -10 OFFCURVE",
"106 -21 OFFCURVE",
"127 -21 CURVE SMOOTH",
"887 -21 LINE SMOOTH",
"908 -21 OFFCURVE",
"920 -10 OFFCURVE",
"920 9 CURVE SMOOTH",
"920 28 OFFCURVE",
"908 39 OFFCURVE",
"887 39 CURVE SMOOTH"
);
}
);
width = 1000;
}
);
unicode = 4E09;
},
{
color = 7;
glyphname = uni4E0A;
lastChange = "2019-12-14 12:04:16 +0000";
layers = (
{
layerId = "47F7128E-F1A6-4572-9BDC-88462FF34A66";
paths = (
{
closed = 1;
nodes = (
"553 543 LINE SMOOTH",
"532 543 OFFCURVE",
"520 532 OFFCURVE",
"520 513 CURVE SMOOTH",
"520 494 OFFCURVE",
"532 483 OFFCURVE",
"553 483 CURVE SMOOTH",
"871 483 LINE SMOOTH",
"892 483 OFFCURVE",
"904 494 OFFCURVE",
"904 513 CURVE SMOOTH",
"904 532 OFFCURVE",
"892 543 OFFCURVE",
"871 543 CURVE SMOOTH"
);
},
{
closed = 1;
nodes = (
"575 746 LINE SMOOTH",
"575 767 OFFCURVE",
"563 779 OFFCURVE",
"542 779 CURVE SMOOTH",
"480 779 LINE SMOOTH",
"459 779 OFFCURVE",
"447 767 OFFCURVE",
"447 746 CURVE SMOOTH",
"447 8 LINE SMOOTH",
"447 -13 OFFCURVE",
"459 -25 OFFCURVE",
"480 -25 CURVE SMOOTH",
"542 -25 LINE SMOOTH",
"563 -25 OFFCURVE",
"575 -13 OFFCURVE",
"575 8 CURVE SMOOTH"
);
},
{
closed = 1;
nodes = (
"122 20 LINE SMOOTH",
"101 20 OFFCURVE",
"89 9 OFFCURVE",
"89 -10 CURVE SMOOTH",
"89 -29 OFFCURVE",
"101 -40 OFFCURVE",
"122 -40 CURVE SMOOTH",
"903 -40 LINE SMOOTH",
"924 -40 OFFCURVE",
"936 -29 OFFCURVE",
"936 -10 CURVE SMOOTH",
"936 9 OFFCURVE",
"924 20 OFFCURVE",
"903 20 CURVE SMOOTH"
);
}
);
width = 1000;
}
);
unicode = 4E0A;
},
{
color = 7;
glyphname = uni4E0B;
lastChange = "2019-12-14 12:04:16 +0000";
layers = (
{
layerId = "47F7128E-F1A6-4572-9BDC-88462FF34A66";
paths = (
{
closed = 1;
nodes = (
"102 767 LINE SMOOTH",
"81 767 OFFCURVE",
"69 756 OFFCURVE",
"69 737 CURVE SMOOTH",
"69 718 OFFCURVE",
"81 707 OFFCURVE",
"102 707 CURVE SMOOTH",
"911 707 LINE SMOOTH",
"932 707 OFFCURVE",
"944 718 OFFCURVE",
"944 737 CURVE SMOOTH",
"944 756 OFFCURVE",
"932 767 OFFCURVE",
"911 767 CURVE SMOOTH"
);
},
{
closed = 1;
nodes = (
"427 -41 LINE SMOOTH",
"427 -62 OFFCURVE",
"439 -74 OFFCURVE",
"460 -74 CURVE SMOOTH",
"522 -74 LINE SMOOTH",
"543 -74 OFFCURVE",
"555 -62 OFFCURVE",
"555 -41 CURVE SMOOTH",
"555 724 LINE SMOOTH",
"555 745 OFFCURVE",
"543 757 OFFCURVE",
"522 757 CURVE SMOOTH",
"460 757 LINE SMOOTH",
"439 757 OFFCURVE",
"427 745 OFFCURVE",
"427 724 CURVE SMOOTH"
);
},
{
closed = 1;
nodes = (
"797 317 LINE SMOOTH",
"814 307 OFFCURVE",
"829 309 OFFCURVE",
"843 321 CURVE SMOOTH",
"853 329 LINE SMOOTH",
"872 344 OFFCURVE",
"870 363 OFFCURVE",
"849 375 CURVE SMOOTH",
"570 534 LINE SMOOTH",
"553 544 OFFCURVE",
"538 542 OFFCURVE",
"524 530 CURVE SMOOTH",
"514 522 LINE SMOOTH",
"495 507 OFFCURVE",
"497 488 OFFCURVE",
"518 476 CURVE SMOOTH"
);
}
);
width = 1000;
}
);
unicode = 4E0B;
},
{
color = 7;
glyphname = uni4E2D;
lastChange = "2019-12-14 12:04:16 +0000";
layers = (
{
layerId = "47F7128E-F1A6-4572-9BDC-88462FF34A66";
paths = (
{
closed = 1;
nodes = (
"267 620 LINE SMOOTH",
"267 641 OFFCURVE",
"255 653 OFFCURVE",
"234 653 CURVE SMOOTH",
"172 653 LINE SMOOTH",
"151 653 OFFCURVE",
"139 641 OFFCURVE",
"139 620 CURVE SMOOTH",
"139 170 LINE SMOOTH",
"139 169 OFFCURVE",
"143 137 OFFCURVE",
"172 137 CURVE SMOOTH",
"234 137 LINE SMOOTH",
"263 137 OFFCURVE",
"267 169 OFFCURVE",
"267 170 CURVE SMOOTH"
);
},
{
closed = 1;
nodes = (
"874 601 LINE SMOOTH",
"874 622 OFFCURVE",
"862 634 OFFCURVE",
"841 634 CURVE SMOOTH",
"244 634 LINE SMOOTH",
"223 634 OFFCURVE",
"211 623 OFFCURVE",
"211 604 CURVE SMOOTH",
"211 585 OFFCURVE",
"223 574 OFFCURVE",
"244 574 CURVE SMOOTH",
"713 574 LINE SMOOTH",
"734 574 OFFCURVE",
"746 552 OFFCURVE",
"746 531 CURVE SMOOTH",
"746 168 LINE SMOOTH",
"746 147 OFFCURVE",
"758 135 OFFCURVE",
"779 135 CURVE SMOOTH",
"841 135 LINE SMOOTH",
"862 135 OFFCURVE",
"874 147 OFFCURVE",
"874 168 CURVE SMOOTH"
);
},
{
closed = 1;
nodes = (
"232 215 LINE SMOOTH",
"211 215 OFFCURVE",
"199 204 OFFCURVE",
"199 185 CURVE SMOOTH",
"199 166 OFFCURVE",
"211 155 OFFCURVE",
"232 155 CURVE SMOOTH",
"765 155 LINE SMOOTH",
"786 155 OFFCURVE",
"798 166 OFFCURVE",
"798 185 CURVE SMOOTH",
"798 204 OFFCURVE",
"786 215 OFFCURVE",
"765 215 CURVE SMOOTH"
);
},
{
closed = 1;
nodes = (
"572 798 LINE SMOOTH",
"572 819 OFFCURVE",
"560 831 OFFCURVE",
"539 831 CURVE SMOOTH",
"477 831 LINE SMOOTH",
"456 831 OFFCURVE",
"444 819 OFFCURVE",
"444 798 CURVE SMOOTH",
"444 -38 LINE SMOOTH",
"444 -59 OFFCURVE",
"456 -71 OFFCURVE",
"477 -71 CURVE SMOOTH",
"539 -71 LINE SMOOTH",
"560 -71 OFFCURVE",
"572 -59 OFFCURVE",
"572 -38 CURVE SMOOTH"
);
}
);
width = 1000;
}
);
unicode = 4E2D;
},
{
color = 7;
glyphname = uni4E5D;
lastChange = "2019-12-14 12:04:16 +0000";
layers = (
{
layerId = "47F7128E-F1A6-4572-9BDC-88462FF34A66";
paths = (
{
closed = 1;
nodes = (
"818 16 LINE",
"657 16 LINE",
"657 527 LINE SMOOTH",
"657 546 OFFCURVE",
"642 561 OFFCURVE",
"623 561 CURVE SMOOTH",
"139 561 LINE SMOOTH",
"120 561 OFFCURVE",
"105 548 OFFCURVE",
"105 531 CURVE SMOOTH",
"105 514 OFFCURVE",
"120 501 OFFCURVE",
"139 501 CURVE SMOOTH",
"529 501 LINE",
"529 -10 LINE SMOOTH",
"529 -29 OFFCURVE",
"544 -44 OFFCURVE",
"563 -44 CURVE SMOOTH",
"912 -44 LINE SMOOTH",
"931 -44 OFFCURVE",
"946 -29 OFFCURVE",
"946 -10 CURVE SMOOTH",
"946 137 LINE SMOOTH",
"946 156 OFFCURVE",
"931 171 OFFCURVE",
"912 171 CURVE SMOOTH",
"852 171 LINE SMOOTH",
"833 171 OFFCURVE",
"818 156 OFFCURVE",
"818 137 CURVE SMOOTH"
);
},
{
closed = 1;
nodes = (
"399 148 OFFCURVE",
"479 416 OFFCURVE",
"486 778 CURVE SMOOTH",
"487 805 OFFCURVE",
"472 824 OFFCURVE",
"453 824 CURVE SMOOTH",
"392 824 LINE SMOOTH",
"373 824 OFFCURVE",
"359 810 OFFCURVE",
"359 790 CURVE SMOOTH",
"352 455 OFFCURVE",
"280 178 OFFCURVE",
"151 -11 CURVE SMOOTH",
"136 -33 OFFCURVE",
"145 -59 OFFCURVE",
"170 -68 CURVE SMOOTH",
"202 -79 LINE SMOOTH",
"215 -84 OFFCURVE",
"228 -80 OFFCURVE",
"237 -69 CURVE SMOOTH"
);
}
);
width = 1000;
},
{
associatedMasterId = "47F7128E-F1A6-4572-9BDC-88462FF34A66";
layerId = "7B7F1FF4-C1C2-4D27-854F-3D58C4333274";
name = openpath;
paths = (
{
closed = 0;
nodes = (
"89 511 LINE",
"597 511 LINE",
"597 -4 LINE",
"898 -4 LINE",
"898 191 LINE"
);
},
{
closed = 0;
nodes = (
"420 824 LINE",
"418 454 OFFCURVE",
"338 151 OFFCURVE",
"159 -69 CURVE"
);
}
);
width = 1000;
}
);
unicode = 4E5D;
},
{
color = 7;
glyphname = uni4E8C;
lastChange = "2019-12-14 12:04:16 +0000";
layers = (
{
layerId = "47F7128E-F1A6-4572-9BDC-88462FF34A66";
paths = (
{
closed = 1;
nodes = (
"183 638 LINE SMOOTH",
"164 638 OFFCURVE",
"149 625 OFFCURVE",
"149 608 CURVE SMOOTH",
"149 591 OFFCURVE",
"164 578 OFFCURVE",
"183 578 CURVE SMOOTH",
"828 578 LINE SMOOTH",
"847 578 OFFCURVE",
"862 591 OFFCURVE",
"862 608 CURVE SMOOTH",
"862 625 OFFCURVE",
"847 638 OFFCURVE",
"828 638 CURVE SMOOTH"
);
},
{
closed = 1;
nodes = (
"124 93 LINE SMOOTH",
"105 93 OFFCURVE",
"90 80 OFFCURVE",
"90 63 CURVE SMOOTH",
"90 46 OFFCURVE",
"105 33 OFFCURVE",
"124 33 CURVE SMOOTH",
"873 33 LINE SMOOTH",
"892 33 OFFCURVE",
"907 46 OFFCURVE",
"907 63 CURVE SMOOTH",
"907 80 OFFCURVE",
"892 93 OFFCURVE",
"873 93 CURVE SMOOTH"
);
}
);
width = 1000;
},
{
associatedMasterId = "47F7128E-F1A6-4572-9BDC-88462FF34A66";
layerId = "6EEA56C6-6F2C-42D9-A1EE-559F89CC911B";
name = openpath;
paths = (
{
closed = 0;
nodes = (
"149 608 LINE",
"862 608 LINE"
);
},
{
closed = 0;
nodes = (
"90 63 LINE",
"907 63 LINE"
);
}
);
width = 1000;
}
);
unicode = 4E8C;
},
{
color = 7;
glyphname = uni4E94;
lastChange = "2019-12-14 12:04:16 +0000";
layers = (
{
layerId = "47F7128E-F1A6-4572-9BDC-88462FF34A66";
paths = (
{
closed = 1;
nodes = (
"234 758 LINE SMOOTH",
"215 758 OFFCURVE",
"200 745 OFFCURVE",
"200 728 CURVE SMOOTH",
"200 711 OFFCURVE",
"215 698 OFFCURVE",
"234 698 CURVE SMOOTH",
"762 698 LINE SMOOTH",
"781 698 OFFCURVE",
"796 711 OFFCURVE",
"796 728 CURVE SMOOTH",
"796 745 OFFCURVE",
"781 758 OFFCURVE",
"762 758 CURVE SMOOTH"
);
},
{
closed = 1;
nodes = (
"802 390 LINE SMOOTH",
"806 413 OFFCURVE",
"790 431 OFFCURVE",
"767 431 CURVE SMOOTH",
"181 431 LINE SMOOTH",
"162 431 OFFCURVE",
"147 418 OFFCURVE",
"147 401 CURVE SMOOTH",
"147 384 OFFCURVE",
"162 371 OFFCURVE",
"181 371 CURVE SMOOTH",
"671 371 LINE",
"611 13 LINE SMOOTH",
"608 -8 OFFCURVE",
"621 -25 OFFCURVE",
"642 -27 CURVE SMOOTH",
"701 -32 LINE SMOOTH",
"718 -33 OFFCURVE",
"733 -21 OFFCURVE",
"736 -4 CURVE SMOOTH"
);
},
{
closed = 1;
nodes = (
"541 661 LINE SMOOTH",
"546 682 OFFCURVE",
"532 702 OFFCURVE",
"510 704 CURVE SMOOTH",
"452 709 LINE SMOOTH",
"435 711 OFFCURVE",
"421 700 OFFCURVE",
"417 684 CURVE SMOOTH",
"271 16 LINE SMOOTH",
"266 -5 OFFCURVE",
"280 -25 OFFCURVE",
"302 -27 CURVE SMOOTH",
"360 -32 LINE SMOOTH",
"377 -34 OFFCURVE",
"391 -23 OFFCURVE",
"395 -7 CURVE SMOOTH"
);
},
{
closed = 1;
nodes = (
"104 0 LINE SMOOTH",
"85 0 OFFCURVE",
"70 -13 OFFCURVE",
"70 -30 CURVE SMOOTH",
"70 -47 OFFCURVE",
"85 -60 OFFCURVE",
"104 -60 CURVE SMOOTH",
"896 -60 LINE SMOOTH",
"915 -60 OFFCURVE",
"930 -47 OFFCURVE",
"930 -30 CURVE SMOOTH",
"930 -13 OFFCURVE",
"915 0 OFFCURVE",
"896 0 CURVE SMOOTH"
);
}
);
width = 1000;
},
{
associatedMasterId = "47F7128E-F1A6-4572-9BDC-88462FF34A66";
layerId = "4D0CE9FC-7A76-4C11-831C-37D039A016DF";
name = openpath;
paths = (
{
closed = 0;
nodes = (
"200 728 LINE",
"796 728 LINE"
);
},
{
closed = 0;
nodes = (
"147 401 LINE",
"740 401 LINE",
"668 -29 LINE"
);
},
{
closed = 0;
nodes = (
"486 706 LINE",
"326 -29 LINE"
);
},
{
closed = 0;
nodes = (
"70 -30 LINE",
"930 -30 LINE"
);
}
);
width = 1000;
}
);
unicode = 4E94;
},
{
color = 7;
glyphname = uni4EBA;
lastChange = "2019-12-14 12:04:16 +0000";
layers = (
{
layerId = "47F7128E-F1A6-4572-9BDC-88462FF34A66";
paths = (
{
closed = 1;
nodes = (
"410 194 OFFCURVE",
"536 309 OFFCURVE",
"551 740 CURVE SMOOTH",
"552 769 OFFCURVE",
"534 790 OFFCURVE",
"514 790 CURVE SMOOTH",
"448 790 LINE SMOOTH",
"428 790 OFFCURVE",
"412 775 OFFCURVE",
"412 755 CURVE SMOOTH",
"412 334 OFFCURVE",
"314 203 OFFCURVE",
"121 19 CURVE SMOOTH",
"99 -2 OFFCURVE",
"105 -29 OFFCURVE",
"132 -41 CURVE SMOOTH",
"157 -52 LINE SMOOTH",
"171 -58 OFFCURVE",
"186 -55 OFFCURVE",
"195 -45 CURVE SMOOTH"
);
},
{
closed = 1;
nodes = (
"528 209 OFFCURVE",
"671 68 OFFCURVE",
"839 -54 CURVE SMOOTH",
"850 -62 OFFCURVE",
"865 -62 OFFCURVE",
"876 -55 CURVE SMOOTH",
"898 -42 LINE SMOOTH",
"919 -30 OFFCURVE",
"915 -3 OFFCURVE",
"892 15 CURVE SMOOTH",
"760 118 OFFCURVE",
"634 255 OFFCURVE",
"542 426 CURVE SMOOTH",
"535 439 OFFCURVE",
"520 445 OFFCURVE",
"506 442 CURVE SMOOTH",
"456 432 LINE SMOOTH",
"430 427 OFFCURVE",
"418 403 OFFCURVE",
"431 380 CURVE SMOOTH"
);
}
);
width = 1000;
},
{
associatedMasterId = "47F7128E-F1A6-4572-9BDC-88462FF34A66";
layerId = "9A9C503C-0B3D-44CE-93DD-D46C6FAEBE74";
name = openpath;
paths = (
{
closed = 0;
nodes = (
"493 770 LINE",
"493 290 OFFCURVE",
"380 168 OFFCURVE",
"152 -60 CURVE"
);
},
{
closed = 0;
nodes = (
"896 -62 LINE",
"728 52 OFFCURVE",
"583 216 OFFCURVE",
"481 415 CURVE"
);
}
);
width = 1000;
}
);
unicode = 4EBA;
},
{
color = 7;
glyphname = uni4F11;
lastChange = "2019-12-14 12:04:16 +0000";
layers = (
{
layerId = "47F7128E-F1A6-4572-9BDC-88462FF34A66";
paths = (
{
closed = 1;
nodes = (
"444 735 LINE SMOOTH",
"459 757 OFFCURVE",
"451 783 OFFCURVE",
"425 792 CURVE SMOOTH",
"391 803 LINE SMOOTH",
"378 807 OFFCURVE",
"364 804 OFFCURVE",
"356 792 CURVE SMOOTH",
"69 388 LINE SMOOTH",
"54 366 OFFCURVE",
"62 340 OFFCURVE",
"88 331 CURVE SMOOTH",
"122 320 LINE SMOOTH",
"135 316 OFFCURVE",
"149 319 OFFCURVE",
"157 331 CURVE SMOOTH"
);
},
{
closed = 1;
nodes = (
"323 546 LINE SMOOTH",
"323 565 OFFCURVE",
"308 580 OFFCURVE",
"289 580 CURVE SMOOTH",
"229 580 LINE SMOOTH",
"210 580 OFFCURVE",
"195 565 OFFCURVE",
"195 546 CURVE SMOOTH",
"195 -18 LINE SMOOTH",
"195 -37 OFFCURVE",
"210 -52 OFFCURVE",
"229 -52 CURVE SMOOTH",
"289 -52 LINE SMOOTH",
"308 -52 OFFCURVE",
"323 -37 OFFCURVE",
"323 -18 CURVE SMOOTH"
);
},
{
closed = 1;
nodes = (
"407 557 LINE SMOOTH",
"388 557 OFFCURVE",
"373 544 OFFCURVE",
"373 527 CURVE SMOOTH",
"373 510 OFFCURVE",
"388 497 OFFCURVE",
"407 497 CURVE SMOOTH",
"897 497 LINE SMOOTH",
"916 497 OFFCURVE",
"931 510 OFFCURVE",
"931 527 CURVE SMOOTH",
"931 544 OFFCURVE",
"916 557 OFFCURVE",
"897 557 CURVE SMOOTH"
);
},
{
closed = 1;
nodes = (
"713 766 LINE SMOOTH",
"713 785 OFFCURVE",
"698 800 OFFCURVE",
"679 800 CURVE SMOOTH",
"619 800 LINE SMOOTH",
"600 800 OFFCURVE",
"585 785 OFFCURVE",
"585 766 CURVE SMOOTH",
"585 -18 LINE SMOOTH",
"585 -37 OFFCURVE",
"600 -52 OFFCURVE",
"619 -52 CURVE SMOOTH",
"679 -52 LINE SMOOTH",
"698 -52 OFFCURVE",
"713 -37 OFFCURVE",
"713 -18 CURVE SMOOTH"
);
},
{
closed = 1;
nodes = (
"675 456 LINE SMOOTH",
"689 478 OFFCURVE",
"680 504 OFFCURVE",
"654 512 CURVE SMOOTH",
"616 523 LINE SMOOTH",
"603 527 OFFCURVE",
"589 523 OFFCURVE",
"581 511 CURVE SMOOTH",
"345 144 LINE SMOOTH",
"331 122 OFFCURVE",
"340 96 OFFCURVE",
"366 88 CURVE SMOOTH",
"404 77 LINE SMOOTH",
"417 73 OFFCURVE",
"431 78 OFFCURVE",
"439 90 CURVE SMOOTH"
);
},
{
closed = 1;
nodes = (
"750 511 LINE SMOOTH",
"742 524 OFFCURVE",
"727 531 OFFCURVE",
"713 528 CURVE SMOOTH",
"667 518 LINE SMOOTH",
"642 513 OFFCURVE",
"634 489 OFFCURVE",
"647 467 CURVE SMOOTH",
"854 101 LINE SMOOTH",
"862 88 OFFCURVE",
"877 81 OFFCURVE",
"891 84 CURVE SMOOTH",
"937 94 LINE SMOOTH",
"962 99 OFFCURVE",
"970 123 OFFCURVE",
"958 145 CURVE SMOOTH"
);
}
);
width = 1000;
},
{
associatedMasterId = "47F7128E-F1A6-4572-9BDC-88462FF34A66";
layerId = "9D7A113C-B33E-4405-8480-2D91272B14F2";
name = openpath;
paths = (
{
closed = 0;
nodes = (
"421 793 LINE",
"92 330 LINE"
);
},
{
closed = 0;
nodes = (
"259 514 LINE",
"259 -33 LINE"
);
},
{
closed = 0;
nodes = (
"373 527 LINE",
"931 527 LINE"
);
},
{
closed = 0;
nodes = (
"674 800 LINE",
"674 -23 LINE"
);
},
{
closed = 0;
nodes = (
"648 491 LINE",
"372 63 LINE"
);
},
{
closed = 0;
nodes = (
"718 491 LINE",
"925 61 LINE"
);
}
);
width = 1000;
}
);
unicode = 4F11;
},
{
color = 7;
glyphname = uni5148;
lastChange = "2019-12-14 12:04:16 +0000";
layers = (
{
layerId = "47F7128E-F1A6-4572-9BDC-88462FF34A66";
paths = (
{
closed = 1;
nodes = (
"364 740 LINE SMOOTH",
"377 762 OFFCURVE",
"367 788 OFFCURVE",
"342 795 CURVE SMOOTH",
"302 806 LINE SMOOTH",
"288 810 OFFCURVE",
"274 804 OFFCURVE",
"267 792 CURVE SMOOTH",
"86 491 LINE SMOOTH",
"73 469 OFFCURVE",
"83 443 OFFCURVE",
"108 436 CURVE SMOOTH",
"148 425 LINE SMOOTH",
"162 421 OFFCURVE",
"176 427 OFFCURVE",
"183 439 CURVE SMOOTH"
);
},
{
closed = 1;
nodes = (
"239 616 LINE SMOOTH",
"220 616 OFFCURVE",
"205 603 OFFCURVE",
"205 586 CURVE SMOOTH",
"205 569 OFFCURVE",
"220 556 OFFCURVE",
"239 556 CURVE SMOOTH",
"820 556 LINE SMOOTH",
"839 556 OFFCURVE",
"854 569 OFFCURVE",
"854 586 CURVE SMOOTH",
"854 603 OFFCURVE",
"839 616 OFFCURVE",
"820 616 CURVE SMOOTH"
);
},
{
closed = 1;
nodes = (
"579 758 LINE SMOOTH",
"579 777 OFFCURVE",
"564 792 OFFCURVE",
"545 792 CURVE SMOOTH",
"485 792 LINE SMOOTH",
"466 792 OFFCURVE",
"451 777 OFFCURVE",
"451 758 CURVE SMOOTH",
"451 369 LINE SMOOTH",
"451 350 OFFCURVE",
"466 335 OFFCURVE",
"485 335 CURVE SMOOTH",
"545 335 LINE SMOOTH",
"564 335 OFFCURVE",
"579 350 OFFCURVE",
"579 369 CURVE SMOOTH"
);
},
{
closed = 1;
nodes = (
"111 365 LINE SMOOTH",
"92 365 OFFCURVE",
"77 352 OFFCURVE",
"77 335 CURVE SMOOTH",
"77 318 OFFCURVE",
"92 305 OFFCURVE",
"111 305 CURVE SMOOTH",
"889 305 LINE SMOOTH",
"908 305 OFFCURVE",
"923 318 OFFCURVE",
"923 335 CURVE SMOOTH",
"923 352 OFFCURVE",
"908 365 OFFCURVE",
"889 365 CURVE SMOOTH"
);
},
{
closed = 1;
nodes = (
"93 38 LINE SMOOTH",
"77 17 OFFCURVE",
"86 -11 OFFCURVE",
"111 -20 CURVE SMOOTH",
"143 -31 LINE SMOOTH",
"156 -36 OFFCURVE",
"171 -32 OFFCURVE",
"179 -21 CURVE SMOOTH",
"406 287 LINE SMOOTH",
"415 299 OFFCURVE",
"428 331 OFFCURVE",
"388 345 CURVE SMOOTH",
"356 356 LINE SMOOTH",
"337 362 OFFCURVE",
"329 358 OFFCURVE",
"320 346 CURVE SMOOTH"
);
},
{
closed = 1;
nodes = (
"838 18 LINE",
"670 18 LINE",
"670 301 LINE SMOOTH",
"670 320 OFFCURVE",
"655 335 OFFCURVE",
"636 335 CURVE SMOOTH",
"576 335 LINE SMOOTH",
"557 335 OFFCURVE",
"542 320 OFFCURVE",
"542 301 CURVE SMOOTH",
"542 -8 LINE SMOOTH",
"542 -27 OFFCURVE",
"557 -42 OFFCURVE",
"576 -42 CURVE SMOOTH",
"932 -42 LINE SMOOTH",
"951 -42 OFFCURVE",
"966 -27 OFFCURVE",
"966 -8 CURVE SMOOTH",
"966 51 LINE SMOOTH",
"966 70 OFFCURVE",
"951 85 OFFCURVE",
"932 85 CURVE SMOOTH",
"872 85 LINE SMOOTH",
"853 85 OFFCURVE",
"838 71 OFFCURVE",
"838 52 CURVE SMOOTH"
);
}
);
width = 1000;
},
{
associatedMasterId = "47F7128E-F1A6-4572-9BDC-88462FF34A66";
layerId = "45E12971-DAD7-4E90-8828-19A3F55AACA0";
name = openpath;
paths = (
{
closed = 0;
nodes = (
"334 797 LINE",
"116 434 LINE"
);
},
{
closed = 0;
nodes = (
"248 586 LINE",
"854 586 LINE"
);
},
{
closed = 0;
nodes = (
"515 792 LINE",
"515 374 LINE"
);
},
{
closed = 0;
nodes = (
"77 365 LINE",
"923 365 LINE"
);
},
{
closed = 0;
nodes = (
"114 -21 LINE",
"384 350 LINE"
);
},
{
closed = 0;
nodes = (
"606 347 LINE",
"606 -12 LINE",
"902 -12 LINE",
"902 85 LINE"
);
}
);
width = 1000;
}
);
unicode = 5148;
},
{
color = 7;
glyphname = uni5165;
lastChange = "2019-12-14 12:04:16 +0000";
layers = (
{
layerId = "47F7128E-F1A6-4572-9BDC-88462FF34A66";
paths = (
{
closed = 1;
nodes = (
"265 793 LINE SMOOTH",
"256 804 OFFCURVE",
"242 807 OFFCURVE",
"230 802 CURVE SMOOTH",
"202 790 LINE SMOOTH",
"177 779 OFFCURVE",
"170 751 OFFCURVE",
"188 730 CURVE SMOOTH",
"852 -30 LINE SMOOTH",
"861 -41 OFFCURVE",
"875 -44 OFFCURVE",
"887 -39 CURVE SMOOTH",
"915 -27 LINE SMOOTH",
"940 -16 OFFCURVE",
"947 12 OFFCURVE",
"929 33 CURVE SMOOTH"
);
},
{
closed = 1;
nodes = (
"538 354 LINE SMOOTH",
"559 375 OFFCURVE",
"553 404 OFFCURVE",
"527 416 CURVE SMOOTH",
"506 426 LINE SMOOTH",
"494 432 OFFCURVE",
"482 430 OFFCURVE",
"472 420 CURVE SMOOTH",
"84 34 LINE SMOOTH",
"63 13 OFFCURVE",
"69 -16 OFFCURVE",
"95 -28 CURVE SMOOTH",
"116 -38 LINE SMOOTH",
"128 -44 OFFCURVE",
"140 -42 OFFCURVE",
"150 -32 CURVE SMOOTH"
);
}
);
width = 1000;
},
{
associatedMasterId = "47F7128E-F1A6-4572-9BDC-88462FF34A66";
layerId = "2BB5CC42-1C67-465C-8D39-654D40ADE92D";
name = openpath;
paths = (
{
closed = 0;
nodes = (
"182 790 LINE",
"895 -27 LINE"
);
},
{
closed = 0;
nodes = (
"490 392 LINE",
"92 -4 LINE"
);
},
{
closed = 0;
nodes = (
"625 148 LINE"
);
}
);
width = 1000;
}
);
unicode = 5165;
},
{
color = 7;
glyphname = uni516B;
lastChange = "2019-12-14 12:04:16 +0000";
layers = (
{
layerId = "47F7128E-F1A6-4572-9BDC-88462FF34A66";
paths = (
{
closed = 1;
nodes = (
"353 639 LINE SMOOTH",
"359 662 OFFCURVE",
"346 681 OFFCURVE",
"323 684 CURVE SMOOTH",
"267 691 LINE SMOOTH",
"251 693 OFFCURVE",
"236 684 OFFCURVE",
"232 668 CURVE SMOOTH",
"64 82 LINE SMOOTH",
"58 59 OFFCURVE",
"71 40 OFFCURVE",
"94 37 CURVE SMOOTH",
"150 30 LINE SMOOTH",
"166 28 OFFCURVE",
"181 37 OFFCURVE",
"185 53 CURVE SMOOTH"
);
},
{
closed = 1;
nodes = (
"661 774 LINE SMOOTH",
"656 789 OFFCURVE",
"641 798 OFFCURVE",
"626 795 CURVE SMOOTH",
"574 786 LINE SMOOTH",
"551 782 OFFCURVE",
"539 762 OFFCURVE",
"547 739 CURVE SMOOTH",
"818 -15 LINE SMOOTH",
"823 -30 OFFCURVE",
"838 -39 OFFCURVE",
"853 -36 CURVE SMOOTH",
"905 -27 LINE SMOOTH",
"928 -23 OFFCURVE",
"940 -3 OFFCURVE",
"932 20 CURVE SMOOTH"
);
}
);
width = 1000;
},
{
associatedMasterId = "47F7128E-F1A6-4572-9BDC-88462FF34A66";
layerId = "AC66EC1A-D26A-4D58-9D63-5F1831D2B2FD";
name = openpath;
paths = (
{
closed = 0;
nodes = (
"302 687 LINE",
"115 34 LINE"
);
},
{
closed = 0;
nodes = (
"592 789 LINE",
"887 -30 LINE"
);
}
);
width = 1000;
}
);
unicode = 516B;
},
{
color = 7;
glyphname = uni516D;
lastChange = "2019-12-14 12:04:16 +0000";
layers = (
{
layerId = "47F7128E-F1A6-4572-9BDC-88462FF34A66";
paths = (
{
closed = 1;
nodes = (
"565 763 LINE SMOOTH",
"565 782 OFFCURVE",
"550 797 OFFCURVE",
"531 797 CURVE SMOOTH",
"471 797 LINE SMOOTH",
"452 797 OFFCURVE",
"437 782 OFFCURVE",
"437 763 CURVE SMOOTH",
"437 658 LINE SMOOTH",
"437 639 OFFCURVE",
"452 624 OFFCURVE",
"471 624 CURVE SMOOTH",
"531 624 LINE SMOOTH",
"550 624 OFFCURVE",
"565 639 OFFCURVE",
"565 658 CURVE SMOOTH"
);
},
{
closed = 1;
nodes = (
"124 654 LINE SMOOTH",
"105 654 OFFCURVE",
"90 641 OFFCURVE",
"90 624 CURVE SMOOTH",
"90 607 OFFCURVE",
"105 594 OFFCURVE",
"124 594 CURVE SMOOTH",
"879 594 LINE SMOOTH",
"898 594 OFFCURVE",
"913 607 OFFCURVE",
"913 624 CURVE SMOOTH",
"913 641 OFFCURVE",
"898 654 OFFCURVE",
"879 654 CURVE SMOOTH"
);
},
{
closed = 1;
nodes = (
"407 420 LINE SMOOTH",
"416 443 OFFCURVE",
"403 465 OFFCURVE",
"380 469 CURVE SMOOTH",
"331 478 LINE SMOOTH",
"316 481 OFFCURVE",
"301 473 OFFCURVE",
"295 459 CURVE SMOOTH",
"125 33 LINE SMOOTH",
"116 10 OFFCURVE",
"129 -12 OFFCURVE",
"152 -16 CURVE SMOOTH",
"201 -25 LINE SMOOTH",
"216 -28 OFFCURVE",
"231 -20 OFFCURVE",
"237 -6 CURVE SMOOTH"
);
},
{
closed = 1;
nodes = (
"690 481 LINE SMOOTH",
"684 495 OFFCURVE",
"669 502 OFFCURVE",
"654 499 CURVE SMOOTH",
"607 488 LINE SMOOTH",
"583 483 OFFCURVE",
"572 459 OFFCURVE",
"582 437 CURVE SMOOTH",
"788 -4 LINE SMOOTH",
"794 -18 OFFCURVE",
"809 -25 OFFCURVE",
"824 -22 CURVE SMOOTH",
"871 -11 LINE SMOOTH",
"895 -6 OFFCURVE",
"906 18 OFFCURVE",
"896 40 CURVE SMOOTH"
);
}
);
width = 1000;
},
{
associatedMasterId = "47F7128E-F1A6-4572-9BDC-88462FF34A66";
layerId = "26162177-F886-4F34-A00D-3E517614320C";
name = openpath;
paths = (
{
closed = 0;
nodes = (
"501 797 LINE",
"501 611 LINE"
);
},
{
closed = 0;
nodes = (
"90 624 LINE",
"913 624 LINE"
);
},
{
closed = 0;
nodes = (
"364 472 LINE",
"168 -19 LINE"
);
},
{
closed = 0;
nodes = (
"621 491 LINE",
"857 -14 LINE"
);
}
);
width = 1000;
}
);
unicode = 516D;
},
{
color = 7;
glyphname = uni5186;
lastChange = "2019-12-14 12:04:16 +0000";
layers = (
{
layerId = "47F7128E-F1A6-4572-9BDC-88462FF34A66";
paths = (
{
closed = 1;
nodes = (
"851 -57 LINE SMOOTH",
"875 -63 OFFCURVE",
"896 -47 OFFCURVE",
"896 -22 CURVE SMOOTH",
"896 742 LINE SMOOTH",
"896 761 OFFCURVE",
"881 776 OFFCURVE",
"862 776 CURVE SMOOTH",
"136 776 LINE SMOOTH",
"117 776 OFFCURVE",
"102 761 OFFCURVE",
"102 742 CURVE SMOOTH",
"102 -5 LINE SMOOTH",
"102 -24 OFFCURVE",
"117 -39 OFFCURVE",
"136 -39 CURVE SMOOTH",
"196 -39 LINE SMOOTH",
"215 -39 OFFCURVE",
"230 -24 OFFCURVE",
"230 -5 CURVE SMOOTH",
"230 716 LINE",
"768 716 LINE",
"768 28 LINE",
"748 33 LINE SMOOTH",
"736 36 OFFCURVE",
"723 30 OFFCURVE",
"716 16 CURVE SMOOTH",
"712 9 LINE SMOOTH",
"704 -6 OFFCURVE",
"718 -25 OFFCURVE",
"742 -31 CURVE SMOOTH"
);
},
{
closed = 1;
nodes = (
"436 278 LINE SMOOTH",
"436 259 OFFCURVE",
"451 244 OFFCURVE",
"470 244 CURVE SMOOTH",
"530 244 LINE SMOOTH",
"549 244 OFFCURVE",
"564 259 OFFCURVE",
"564 278 CURVE SMOOTH",
"564 732 LINE SMOOTH",
"564 751 OFFCURVE",
"549 766 OFFCURVE",
"530 766 CURVE SMOOTH",
"470 766 LINE SMOOTH",
"451 766 OFFCURVE",
"436 751 OFFCURVE",
"436 732 CURVE SMOOTH"
);
},
{
closed = 1;
nodes = (
"200 290 LINE SMOOTH",
"181 290 OFFCURVE",
"166 277 OFFCURVE",
"166 260 CURVE SMOOTH",
"166 243 OFFCURVE",
"181 230 OFFCURVE",
"200 230 CURVE SMOOTH",
"809 230 LINE SMOOTH",
"828 230 OFFCURVE",
"843 243 OFFCURVE",
"843 260 CURVE SMOOTH",
"843 277 OFFCURVE",
"828 290 OFFCURVE",
"809 290 CURVE SMOOTH"
);
}
);
width = 1000;
},
{
associatedMasterId = "47F7128E-F1A6-4572-9BDC-88462FF34A66";
layerId = "1B2D2359-3803-4C0C-8886-56EAB1AB91D0";
name = openpath;
paths = (
{
closed = 0;
nodes = (
"166 -39 LINE",
"166 746 LINE",
"832 746 LINE",
"832 -20 LINE",
"712 9 LINE"
);
},
{
closed = 0;
nodes = (
"500 262 LINE",
"500 743 LINE"
);
},
{
closed = 0;
nodes = (
"166 260 LINE",
"772 260 LINE"
);
}
);
width = 1000;
}
);
unicode = 5186;
},
{
color = 7;
glyphname = uni51FA;
lastChange = "2019-12-14 12:04:16 +0000";
layers = (
{
layerId = "47F7128E-F1A6-4572-9BDC-88462FF34A66";
paths = (
{
closed = 1;
nodes = (
"787 459 LINE",
"230 459 LINE",
"230 725 LINE SMOOTH",
"230 744 OFFCURVE",
"215 759 OFFCURVE",
"196 759 CURVE SMOOTH",
"136 759 LINE SMOOTH",
"117 759 OFFCURVE",
"102 744 OFFCURVE",
"102 725 CURVE SMOOTH",
"102 433 LINE SMOOTH",
"102 414 OFFCURVE",
"117 399 OFFCURVE",
"136 399 CURVE SMOOTH",
"881 399 LINE SMOOTH",
"900 399 OFFCURVE",
"915 414 OFFCURVE",
"915 433 CURVE SMOOTH",
"915 725 LINE SMOOTH",
"915 744 OFFCURVE",
"900 759 OFFCURVE",
"881 759 CURVE SMOOTH",
"821 759 LINE SMOOTH",
"802 759 OFFCURVE",
"787 744 OFFCURVE",
"787 725 CURVE SMOOTH"
);
},
{
closed = 1;
nodes = (
"820 13 LINE",
"196 13 LINE",
"196 265 LINE SMOOTH",
"196 284 OFFCURVE",
"181 299 OFFCURVE",
"162 299 CURVE SMOOTH",
"102 299 LINE SMOOTH",
"83 299 OFFCURVE",
"68 284 OFFCURVE",
"68 265 CURVE SMOOTH",
"68 -13 LINE SMOOTH",
"68 -32 OFFCURVE",
"83 -47 OFFCURVE",
"102 -47 CURVE SMOOTH",
"914 -47 LINE SMOOTH",
"933 -47 OFFCURVE",
"948 -32 OFFCURVE",
"948 -13 CURVE SMOOTH",
"948 265 LINE SMOOTH",
"948 284 OFFCURVE",
"933 299 OFFCURVE",
"914 299 CURVE SMOOTH",
"854 299 LINE SMOOTH",
"835 299 OFFCURVE",
"820 284 OFFCURVE",
"820 265 CURVE SMOOTH"
);
},
{
closed = 1;
nodes = (
"572 764 LINE SMOOTH",
"572 783 OFFCURVE",
"557 798 OFFCURVE",
"538 798 CURVE SMOOTH",
"478 798 LINE SMOOTH",
"459 798 OFFCURVE",
"444 783 OFFCURVE",
"444 764 CURVE SMOOTH",
"444 0 LINE SMOOTH",
"444 -19 OFFCURVE",
"459 -34 OFFCURVE",
"478 -34 CURVE SMOOTH",
"538 -34 LINE SMOOTH",
"557 -34 OFFCURVE",
"572 -19 OFFCURVE",
"572 0 CURVE SMOOTH"
);
}
);
width = 1000;
},
{
associatedMasterId = "47F7128E-F1A6-4572-9BDC-88462FF34A66";
layerId = "BEE0954D-F58C-4460-A160-F784CFE635CA";
name = openpath;
paths = (
{
closed = 0;
nodes = (
"166 759 LINE",
"166 429 LINE",
"851 429 LINE",
"851 759 LINE"
);
},
{
closed = 0;
nodes = (
"132 299 LINE",
"132 -17 LINE",
"884 -17 LINE",
"884 299 LINE"
);
},
{
closed = 0;
nodes = (
"508 798 LINE",
"508 23 LINE"
);
}
);
width = 1000;
}
);
unicode = 51FA;
},
{
color = 7;
glyphname = uni529B;
lastChange = "2019-12-14 12:04:16 +0000";
layers = (
{
layerId = "47F7128E-F1A6-4572-9BDC-88462FF34A66";
paths = (
{
closed = 1;
nodes = (
"785 -39 LINE SMOOTH",
"807 -49 OFFCURVE",
"831 -36 OFFCURVE",
"835 -12 CURVE SMOOTH",
"949 611 LINE SMOOTH",
"953 635 OFFCURVE",
"937 653 OFFCURVE",
"914 653 CURVE SMOOTH",
"134 653 LINE SMOOTH",
"115 653 OFFCURVE",
"100 640 OFFCURVE",
"100 623 CURVE SMOOTH",
"100 606 OFFCURVE",
"115 593 OFFCURVE",
"134 593 CURVE SMOOTH",
"819 593 LINE",
"721 65 LINE",
"664 89 LINE SMOOTH",
"651 95 OFFCURVE",
"638 92 OFFCURVE",
"629 82 CURVE SMOOTH",
"619 70 LINE SMOOTH",
"606 56 OFFCURVE",
"618 32 OFFCURVE",
"643 21 CURVE SMOOTH"
);
},
{
closed = 1;
nodes = (
"591 740 LINE SMOOTH",
"600 762 OFFCURVE",
"588 785 OFFCURVE",
"565 790 CURVE SMOOTH",
"515 800 LINE SMOOTH",
"500 803 OFFCURVE",
"486 796 OFFCURVE",
"480 781 CURVE SMOOTH",
"174 64 LINE SMOOTH",
"165 42 OFFCURVE",
"177 19 OFFCURVE",
"200 14 CURVE SMOOTH",
"250 4 LINE SMOOTH",
"265 1 OFFCURVE",
"279 8 OFFCURVE",
"285 23 CURVE SMOOTH"
);
}
);
width = 1000;
}
);
unicode = 529B;
},
{
color = 7;
glyphname = uni5341;
lastChange = "2019-12-14 12:04:16 +0000";
layers = (
{
layerId = "47F7128E-F1A6-4572-9BDC-88462FF34A66";
paths = (
{
closed = 1;
nodes = (
"120 422 LINE SMOOTH",
"101 422 OFFCURVE",
"86 409 OFFCURVE",
"86 392 CURVE SMOOTH",
"86 375 OFFCURVE",
"101 362 OFFCURVE",
"120 362 CURVE SMOOTH",
"880 362 LINE SMOOTH",
"899 362 OFFCURVE",
"914 375 OFFCURVE",
"914 392 CURVE SMOOTH",
"914 409 OFFCURVE",
"899 422 OFFCURVE",
"880 422 CURVE SMOOTH"
);
},
{
closed = 1;
nodes = (
"564 796 LINE SMOOTH",
"564 815 OFFCURVE",
"549 830 OFFCURVE",
"530 830 CURVE SMOOTH",
"470 830 LINE SMOOTH",
"451 830 OFFCURVE",
"436 815 OFFCURVE",
"436 796 CURVE SMOOTH",
"436 -35 LINE SMOOTH",
"436 -54 OFFCURVE",
"451 -69 OFFCURVE",
"470 -69 CURVE SMOOTH",
"530 -69 LINE SMOOTH",
"549 -69 OFFCURVE",
"564 -54 OFFCURVE",
"564 -35 CURVE SMOOTH"
);
}
);
width = 1000;
},
{
associatedMasterId = "47F7128E-F1A6-4572-9BDC-88462FF34A66";
layerId = "DEA6F428-85CA-4000-B4EA-3781EF0040F2";
name = openpath;
paths = (
{
closed = 0;
nodes = (
"70 392 LINE",
"930 392 LINE"
);
},
{
closed = 0;
nodes = (
"500 830 LINE",
"500 -69 LINE"
);
}
);
width = 1000;
}
);
unicode = 5341;
},
{
color = 7;
glyphname = uni5343;
lastChange = "2019-12-14 12:04:16 +0000";
layers = (
{
layerId = "47F7128E-F1A6-4572-9BDC-88462FF34A66";
paths = (
{
closed = 1;
nodes = (
"798 692 LINE SMOOTH",
"823 698 OFFCURVE",
"835 719 OFFCURVE",
"825 739 CURVE SMOOTH",
"818 753 OFFCURVE",
"805 759 OFFCURVE",
"790 755 CURVE SMOOTH",
"204 616 LINE SMOOTH",
"179 610 OFFCURVE",
"167 589 OFFCURVE",
"177 569 CURVE SMOOTH",
"184 555 OFFCURVE",
"197 549 OFFCURVE",
"212 553 CURVE SMOOTH"
);
},
{
closed = 1;
nodes = (
"126 345 LINE SMOOTH",
"107 345 OFFCURVE",
"92 332 OFFCURVE",
"92 315 CURVE SMOOTH",
"92 298 OFFCURVE",
"107 285 OFFCURVE",
"126 285 CURVE SMOOTH",
"880 285 LINE SMOOTH",
"899 285 OFFCURVE",
"914 298 OFFCURVE",
"914 315 CURVE SMOOTH",
"914 332 OFFCURVE",
"899 345 OFFCURVE",
"880 345 CURVE SMOOTH"
);
},
{
closed = 1;
nodes = (
"567 637 LINE SMOOTH",
"567 656 OFFCURVE",
"552 671 OFFCURVE",
"533 671 CURVE SMOOTH",
"473 671 LINE SMOOTH",
"454 671 OFFCURVE",
"439 656 OFFCURVE",
"439 637 CURVE SMOOTH",
"439 -31 LINE SMOOTH",
"439 -50 OFFCURVE",
"454 -65 OFFCURVE",
"473 -65 CURVE SMOOTH",
"533 -65 LINE SMOOTH",
"552 -65 OFFCURVE",
"567 -50 OFFCURVE",
"567 -31 CURVE SMOOTH"
);
}
);
width = 1000;
},
{
associatedMasterId = "47F7128E-F1A6-4572-9BDC-88462FF34A66";
layerId = "428BC4E9-5B54-44CC-9569-1C23F14438E6";
name = openpath;
paths = (
{
closed = 0;
nodes = (
"842 761 LINE",
"160 576 LINE"
);
},
{
closed = 0;
nodes = (
"76 315 LINE",
"930 315 LINE"
);
},
{
closed = 0;
nodes = (
"503 671 LINE",
"503 -45 LINE"
);
}
);
width = 1000;
}
);
unicode = 5343;
},
{
color = 7;
glyphname = uni53E3;
lastChange = "2019-12-14 12:04:16 +0000";
layers = (
{
layerId = "47F7128E-F1A6-4572-9BDC-88462FF34A66";
paths = (
{
closed = 1;
nodes = (
"112 17 LINE SMOOTH",
"112 -2 OFFCURVE",
"127 -17 OFFCURVE",
"146 -17 CURVE SMOOTH",
"206 -17 LINE SMOOTH",
"225 -17 OFFCURVE",
"240 -2 OFFCURVE",
"240 17 CURVE SMOOTH",
"240 696 LINE SMOOTH",
"240 715 OFFCURVE",
"225 730 OFFCURVE",
"206 730 CURVE SMOOTH",
"146 730 LINE SMOOTH",
"127 730 OFFCURVE",
"112 715 OFFCURVE",
"112 696 CURVE SMOOTH"
);
},
{
closed = 1;
nodes = (
"210 76 LINE SMOOTH",
"191 76 OFFCURVE",
"176 63 OFFCURVE",
"176 46 CURVE SMOOTH",
"176 29 OFFCURVE",
"191 16 OFFCURVE",
"210 16 CURVE SMOOTH",
"786 16 LINE SMOOTH",
"805 16 OFFCURVE",
"820 29 OFFCURVE",
"820 46 CURVE SMOOTH",
"820 63 OFFCURVE",
"805 76 OFFCURVE",
"786 76 CURVE SMOOTH"
);
},
{
closed = 1;
nodes = (
"884 681 LINE SMOOTH",
"884 700 OFFCURVE",
"869 715 OFFCURVE",
"850 715 CURVE SMOOTH",
"210 715 LINE SMOOTH",
"191 715 OFFCURVE",
"176 702 OFFCURVE",
"176 685 CURVE SMOOTH",
"176 668 OFFCURVE",
"191 655 OFFCURVE",
"210 655 CURVE SMOOTH",
"756 655 LINE",
"756 17 LINE SMOOTH",
"756 -2 OFFCURVE",
"771 -17 OFFCURVE",
"790 -17 CURVE SMOOTH",
"850 -17 LINE SMOOTH",
"869 -17 OFFCURVE",
"884 -2 OFFCURVE",
"884 17 CURVE SMOOTH"
);
}
);
width = 1000;
},
{
associatedMasterId = "47F7128E-F1A6-4572-9BDC-88462FF34A66";
layerId = "5F60B869-E695-4A68-9E23-87F4882B52C4";
name = openpath;
paths = (
{
closed = 0;
nodes = (
"160 63 LINE",
"160 680 LINE"
);
},
{
closed = 0;
nodes = (
"160 126 LINE",
"836 126 LINE"
);
},
{
closed = 0;
nodes = (
"160 635 LINE",
"836 635 LINE",
"836 63 LINE"
);
}
);
width = 1000;
}
);
unicode = 53E3;
},
